<?xml version="1.0" encoding="UTF-8" standalone="no"?>
<svg
   xmlns:dc="http://purl.org/dc/elements/1.1/"
   xmlns:cc="http://creativecommons.org/ns#"
   xmlns:rdf="http://www.w3.org/1999/02/22-rdf-syntax-ns#"
   xmlns:svg="http://www.w3.org/2000/svg"
   xmlns="http://www.w3.org/2000/svg"
   xmlns:sodipodi="http://sodipodi.sourceforge.net/DTD/sodipodi-0.dtd"
   xmlns:inkscape="http://www.inkscape.org/namespaces/inkscape"
   width="56.469994mm"
   height="61.679443mm"
   viewBox="0 0 56.469994 61.679444"
   version="1.1"
   id="svg100"
   inkscape:version="0.92.5 (2060ec1f9f, 2020-04-08)"
   sodipodi:docname="brushes.svg">
  <defs
     id="defs94">
    <clipPath
       clipPathUnits="userSpaceOnUse"
       id="clipEmfPath1-4">
      <path
         d="M 0,0 H 214.39166 V 234.40155 H 0 Z"
         id="path52"
         inkscape:connector-curvature="0" />
    </clipPath>
  </defs>
  <sodipodi:namedview
     id="base"
     pagecolor="#ffffff"
     bordercolor="#666666"
     borderopacity="1.0"
     inkscape:pageopacity="0.0"
     inkscape:pageshadow="2"
     inkscape:zoom="1.4"
     inkscape:cx="240.14116"
     inkscape:cy="167.9016"
     inkscape:document-units="mm"
     inkscape:current-layer="layer1"
     inkscape:document-rotation="0"
     showgrid="false"
     inkscape:window-width="1920"
     inkscape:window-height="1025"
     inkscape:window-x="0"
     inkscape:window-y="0"
     inkscape:window-maximized="1" />
  <metadata
     id="metadata97">
    <rdf:RDF>
      <cc:Work
         rdf:about="">
        <dc:format>image/svg+xml</dc:format>
        <dc:type
           rdf:resource="http://purl.org/dc/dcmitype/StillImage" />
        <dc:title />
      </cc:Work>
    </rdf:RDF>
  </metadata>
  <g
     inkscape:label="Layer 1"
     inkscape:groupmode="layer"
     id="layer1"
     transform="translate(2.294109,-84.649925)">
    <g
       id="g848">
      <path
         style="fill:#fad7ca;stroke-width:0.25210872"
         d="m 50.283865,133.32986 c -0.0812,-0.13134 -0.0401,-0.30522 0.0912,-0.38639 0.13134,-0.0812 0.30522,-0.0401 0.38639,0.0912 0.0812,0.13134 0.0401,0.30522 -0.0912,0.38639 -0.13134,0.0812 -0.30522,0.0401 -0.38639,-0.0912 z m -1.674269,-2.20092 c -0.284638,-0.35068 -0.287157,-0.39709 -0.01258,-0.23174 0.211209,0.12719 0.428005,0.073 0.563385,-0.14069 0.121035,-0.19109 0.22006,-0.23399 0.22006,-0.0953 0,0.13866 -0.09336,0.39929 -0.207473,0.57918 -0.163167,0.25722 -0.283483,0.23343 -0.563384,-0.11142 z m 0.124355,-1.66527 -0.480264,-0.56725 0.567244,0.48027 c 0.533069,0.45133 0.682014,0.65422 0.480265,0.65422 -0.04784,0 -0.3031,-0.25526 -0.567245,-0.56724 z m -2.655347,-1.13449 c -0.313591,-0.39986 -0.304674,-0.40878 0.09519,-0.0952 0.41995,0.32935 0.553499,0.53638 0.346004,0.53638 -0.05235,0 -0.250886,-0.19854 -0.44119,-0.44119 z m -31.229321,-5.49452 c 0,-0.0292 0.151265,-0.1787 0.336145,-0.33214 0.251192,-0.20847 0.336145,-0.19503 0.336145,0.0532 0,0.18268 -0.151265,0.33214 -0.336145,0.33214 -0.18488,0 -0.336145,-0.0239 -0.336145,-0.0532 z m 2.584114,-2.44691 c 0.03467,-0.17332 -0.103962,-0.27838 -0.308061,-0.23346 -0.276708,0.0609 -0.250741,-0.0513 0.102101,-0.44119 0.566025,-0.62545 0.855628,-0.70326 0.362884,-0.0975 -0.303463,0.37307 -0.291042,0.40476 0.101018,0.25779 0.380449,-0.14263 0.407288,-0.0933 0.180212,0.33096 -0.300588,0.56165 -0.533284,0.65905 -0.438154,0.1834 z m 2.81227,-2.92656 c 0.513819,-0.57766 0.654225,-0.65244 0.654225,-0.34847 0,0.10531 -0.25526,0.34828 -0.567245,0.53993 -0.56523,0.34723 -0.565539,0.34655 -0.08698,-0.19146 z m 1.158442,-0.1309 c 0,-0.0524 0.198536,-0.25089 0.441191,-0.44119 0.399858,-0.31359 0.408775,-0.30467 0.09518,0.0952 -0.329347,0.41995 -0.536375,0.55349 -0.536375,0.346 z m 0.504218,-1.24425 c 0,-0.0434 0.368709,-0.41209 0.819353,-0.81935 l 0.819353,-0.74046 -0.740466,0.81935 c -0.690218,0.76375 -0.89824,0.93523 -0.89824,0.74046 z m 1.764761,-1.78106 c 0,-0.0524 0.198535,-0.25088 0.44119,-0.44119 0.399859,-0.31359 0.408777,-0.30467 0.09519,0.0952 -0.329347,0.41995 -0.536376,0.5535 -0.536376,0.346 z m -0.756326,-0.256 c 0,-0.0545 0.176065,-0.16664 0.391257,-0.24922 0.224357,-0.0861 0.325553,-0.0438 0.237229,0.0991 -0.148053,0.23956 -0.628486,0.35433 -0.628486,0.15014 z m 2.673111,-2.12788 c -0.07142,-0.11555 0.03035,-0.21009 0.226139,-0.21009 0.19579,0 0.297553,0.0945 0.226139,0.21009 -0.07141,0.11555 -0.173176,0.21009 -0.226139,0.21009 -0.05296,0 -0.154727,-0.0945 -0.226139,-0.21009 z m 1.864845,-0.67229 c 0.325662,-0.34665 0.648835,-0.63027 0.718165,-0.63027 0.06933,0 -0.140395,0.28362 -0.466056,0.63027 -0.325661,0.34665 -0.648835,0.63027 -0.718164,0.63027 -0.06933,0 0.140394,-0.28362 0.466055,-0.63027 z m -1.008435,-0.97756 c 0,-0.0524 0.198536,-0.25089 0.441191,-0.44119 0.399859,-0.31359 0.408776,-0.30468 0.09519,0.0952 -0.329347,0.41995 -0.536377,0.5535 -0.536377,0.34601 z m 1.13449,-0.66114 c 0.143681,-0.74608 0.414812,-1.01721 0.306324,-0.30633 -0.04578,0.29999 -0.158238,0.62044 -0.249902,0.7121 -0.09167,0.0917 -0.117055,-0.0909 -0.05642,-0.40577 z m 1.134489,0.15692 c 0,-0.0524 0.198535,-0.25089 0.44119,-0.44119 0.39986,-0.31359 0.408777,-0.30467 0.09519,0.0952 -0.329347,0.41995 -0.536376,0.5535 -0.536376,0.34601 z m -0.420182,-1.31491 c 0,-0.18287 0.10169,-0.26964 0.225977,-0.19283 0.124287,0.0768 0.461796,-0.07 0.750021,-0.32622 0.516811,-0.45946 0.519375,-0.45828 0.185688,0.0852 -0.390829,0.63651 -1.161686,0.92442 -1.161686,0.43388 z m 2.184943,-0.73283 c 0.325661,-0.34665 0.648834,-0.63027 0.718164,-0.63027 0.06933,0 -0.140394,0.28362 -0.466056,0.63027 -0.325661,0.34665 -0.648834,0.63027 -0.718164,0.63027 -0.06933,0 0.140394,-0.28362 0.466056,-0.63027 z m -0.115905,-0.86596 c -0.164589,-0.26631 -0.127269,-0.30223 0.377208,-0.36307 0.143719,-0.0173 0.368878,-0.20169 0.500358,-0.40968 0.131479,-0.20799 0.240791,-0.25393 0.242914,-0.1021 0.0063,0.45066 -0.930561,1.18215 -1.12048,0.87485 z m 2.243011,-1.35987 c 0.388263,-0.50904 0.756919,-0.92553 0.819233,-0.92553 0.17513,0 -0.916302,1.47476 -1.239057,1.67423 -0.157361,0.0973 0.03156,-0.23966 0.419824,-0.7487 z m -0.614454,-1.77704 c 0,-0.0524 0.198536,-0.25089 0.44119,-0.44119 0.39986,-0.31359 0.408777,-0.30467 0.09519,0.0952 -0.329347,0.41995 -0.536376,0.5535 -0.536376,0.34601 z m 3.655576,-1.41747 c 0.682875,-0.6933 1.298315,-1.26054 1.367645,-1.26054 0.06933,0 -0.432662,0.56724 -1.115536,1.26054 -0.682874,0.6933 -1.298314,1.26055 -1.367644,1.26055 -0.06933,0 0.432661,-0.56725 1.115535,-1.26055 z m -1.638706,-0.88238 c 0.325661,-0.34665 0.648834,-0.63027 0.718164,-0.63027 0.06933,0 -0.140394,0.28362 -0.466056,0.63027 -0.325661,0.34665 -0.648834,0.63027 -0.718164,0.63027 -0.06933,0 0.140394,-0.28362 0.466056,-0.63027 z m 3.655576,-4.159792 c 0.250972,-0.277319 0.513036,-0.504217 0.582366,-0.504217 0.06933,0 -0.07929,0.226898 -0.330257,0.504217 -0.250972,0.27732 -0.513037,0.504218 -0.582366,0.504218 -0.06933,0 0.07928,-0.226898 0.330257,-0.504218 z m 2.395033,0.156924 c 0,-0.05235 0.198535,-0.250887 0.44119,-0.44119 0.399859,-0.313591 0.408777,-0.304674 0.09519,0.09519 -0.329347,0.41995 -0.536376,0.553499 -0.536376,0.346005 z m 2.016869,-2.268978 c 0,-0.05235 0.198536,-0.250888 0.441191,-0.44119 0.399859,-0.313591 0.408776,-0.304674 0.09519,0.09519 -0.329348,0.419949 -0.536377,0.553499 -0.536377,0.346005 z"
         id="path829"
         inkscape:connector-curvature="0" />
      <path
         style="fill:#f9c4b1;stroke-width:0.25210872"
         d="m 49.540195,132.0898 c -0.0714,-0.11555 0.0303,-0.21009 0.22614,-0.21009 0.19579,0 0.29756,0.0945 0.22614,0.21009 -0.0714,0.11555 -0.17317,0.21009 -0.22614,0.21009 -0.053,0 -0.15472,-0.0945 -0.22614,-0.21009 z m -1.160454,-2.32588 c 0,-0.14684 0.113449,-0.19687 0.252109,-0.11117 0.13866,0.0857 0.252108,0.20584 0.252108,0.26699 0,0.0611 -0.113448,0.11117 -0.252108,0.11117 -0.13866,0 -0.252109,-0.12014 -0.252109,-0.26699 z m -34.479785,-5.60556 c 0.2405,-0.19468 0.353949,-0.44603 0.252109,-0.55854 -0.101839,-0.11252 -0.04335,-0.12297 0.129973,-0.0232 0.435895,0.25085 0.400047,0.34482 -0.252108,0.66085 -0.509005,0.24666 -0.52235,0.23855 -0.129974,-0.0791 z m 1.453544,-1.02957 c 0,-0.0523 0.198536,-0.25089 0.441191,-0.44119 0.399858,-0.31359 0.408775,-0.30467 0.09518,0.0952 -0.329347,0.41995 -0.536375,0.5535 -0.536375,0.346 z m 0.857261,-1.2277 c -0.09998,-0.1737 -0.09194,-0.23473 0.01785,-0.13561 0.109792,0.0991 0.411603,0.0668 0.670691,-0.0719 0.259088,-0.13866 0.471069,-0.19538 0.471069,-0.12605 0,0.0693 -0.220013,0.2438 -0.488917,0.38771 -0.356981,0.19105 -0.53797,0.17644 -0.670691,-0.0542 z m 0.927403,-1.34526 c 0.0121,-0.2937 0.07184,-0.35344 0.152316,-0.15232 0.07283,0.18199 0.06387,0.39943 -0.0199,0.48321 -0.08377,0.0838 -0.143359,-0.0651 -0.132412,-0.33089 z m 1.492749,-0.48321 c 0.470381,-0.48531 0.911962,-0.88238 0.981292,-0.88238 0.06933,0 -0.258803,0.39707 -0.729183,0.88238 -0.47038,0.48531 -0.911961,0.88238 -0.981291,0.88238 -0.06933,0 0.258802,-0.39707 0.729182,-0.88238 z m 2.01687,-1.986 c 0,-0.0524 0.198536,-0.25089 0.44119,-0.44119 0.399859,-0.3136 0.408776,-0.30468 0.09519,0.0952 -0.329347,0.41995 -0.536375,0.5535 -0.536375,0.34601 z m -0.115288,-1.40005 c -0.172208,-0.27864 0.225488,-0.57951 0.458287,-0.34671 0.239701,0.2397 0.195028,0.5814 -0.07601,0.5814 -0.130477,0 -0.302501,-0.10561 -0.382277,-0.23469 z m 2.636375,-0.85263 c 0,-0.0434 0.368709,-0.4121 0.819354,-0.81936 l 0.819353,-0.74046 -0.740466,0.81935 c -0.690218,0.76375 -0.898241,0.93523 -0.898241,0.74047 z m 1.110537,-3.16282 c 0.513817,-0.57765 0.654224,-0.65244 0.654224,-0.34846 0,0.1053 -0.25526,0.34827 -0.567244,0.53993 -0.565231,0.34722 -0.565538,0.34654 -0.08698,-0.19147 z m 1.914768,-0.16176 c 0.325661,-0.34665 0.648834,-0.63028 0.718164,-0.63028 0.06933,0 -0.140394,0.28363 -0.466056,0.63028 -0.325661,0.34664 -0.648834,0.63027 -0.718164,0.63027 -0.06933,0 0.140394,-0.28363 0.466056,-0.63027 z m -0.9244,-0.24102 c 0,-0.20189 0.09454,-0.30865 0.210093,-0.23723 0.115549,0.0714 0.210089,0.23659 0.210089,0.36707 0,0.13048 -0.09454,0.23723 -0.210089,0.23723 -0.115552,0 -0.210093,-0.16518 -0.210093,-0.36707 z m 3.102208,-2.02796 c 0.07982,-0.20799 0.260317,-0.37817 0.40112,-0.37817 0.147562,0 0.123059,0.1602 -0.05784,0.37817 -0.172617,0.20799 -0.353121,0.37816 -0.40112,0.37816 -0.048,0 -0.02198,-0.17017 0.05784,-0.37816 z m 3.968456,-4.75967 c 0.0318,-0.21668 0.128227,-0.46437 0.214275,-0.55042 0.08605,-0.0861 0.130433,0.0208 0.09863,0.23751 -0.0318,0.21669 -0.128227,0.46438 -0.214275,0.55042 -0.08605,0.0861 -0.130433,-0.0208 -0.09863,-0.23751 z"
         id="path827"
         inkscape:connector-curvature="0" />
      <path
         style="fill:#f7ae94;stroke-width:0.25210872"
         d="m 50.520125,133.30421 c -0.0871,-0.14092 -0.26396,-0.19095 -0.39304,-0.11117 -0.41008,0.25344 -0.25257,-0.0614 0.2065,-0.41278 0.24265,-0.18573 0.35709,-0.23842 0.2543,-0.11709 -0.1028,0.12133 -0.0605,0.37285 0.0939,0.55893 0.15444,0.18608 0.21687,0.33833 0.13875,0.33833 -0.0781,0 -0.21331,-0.1153 -0.3004,-0.25622 z M 19.639348,119.09116 c 0,-0.0545 0.176066,-0.16665 0.391257,-0.24923 0.224358,-0.0861 0.325554,-0.0438 0.23723,0.0991 -0.148052,0.23956 -0.628487,0.35433 -0.628487,0.15015 z m 0.336145,-1.74972 c 0,-0.18488 0.149464,-0.33615 0.332143,-0.33615 0.2482,0 0.261637,0.085 0.05317,0.33615 -0.153437,0.18488 -0.302901,0.33614 -0.332143,0.33614 -0.02924,0 -0.05317,-0.15126 -0.05317,-0.33614 z m 1.176508,-0.89464 c 0,-0.13866 0.113448,-0.32223 0.252108,-0.40792 0.13866,-0.0857 0.252109,-0.0424 0.252109,0.0963 0,0.13866 -0.113449,0.32222 -0.252109,0.40791 -0.13866,0.0857 -0.252108,0.0424 -0.252108,-0.0963 z m 1.260543,-0.12884 c 0,-0.0545 0.176066,-0.16664 0.391258,-0.24922 0.224356,-0.0861 0.325553,-0.0438 0.237229,0.0991 -0.148053,0.23955 -0.628487,0.35432 -0.628487,0.15014 z m 2.268978,-2.13082 c 0,-0.11717 0.24446,-0.42916 0.543244,-0.6933 l 0.543244,-0.48027 -0.446184,0.6933 c -0.460066,0.71487 -0.640304,0.85006 -0.640304,0.48027 z M 24.0739,113.9326 c -0.07324,-0.1185 0.146962,-0.47863 0.489338,-0.80027 0.342376,-0.32165 0.622502,-0.47663 0.622502,-0.34441 0,0.13222 -0.220822,0.39955 -0.490715,0.59408 -0.269892,0.19453 -0.433369,0.44647 -0.363283,0.55987 0.07009,0.11341 0.0707,0.20619 0.0013,0.20619 -0.06933,0 -0.185975,-0.097 -0.259215,-0.21546 z m 2.510352,-2.79056 c -0.07914,-0.12806 0.226147,-0.47825 0.67842,-0.7782 l 0.822318,-0.54536 -0.630272,0.55942 c -0.346649,0.30768 -0.601909,0.65787 -0.567244,0.77819 0.08349,0.2898 -0.1213,0.2803 -0.303222,-0.0141 z m 3.643662,-2.88766 c 0,-0.0524 0.198536,-0.25089 0.44119,-0.44119 0.39986,-0.31359 0.408777,-0.30468 0.09519,0.0952 -0.329347,0.41995 -0.536376,0.5535 -0.536376,0.34601 z m 2.521087,-3.52953 c 0,-0.0524 0.198536,-0.25088 0.44119,-0.44119 0.39986,-0.31359 0.408777,-0.30467 0.09519,0.0952 -0.329348,0.41995 -0.536377,0.5535 -0.536377,0.346 z"
         id="path825"
         inkscape:connector-curvature="0" />
      <path
         style="fill:#f48f6a;stroke-width:0.25210872"
         d="m 51.321015,133.64447 c -0.25628,-0.25627 -0.20045,-0.58825 0.0989,-0.58825 0.14684,0 0.20286,0.10376 0.12448,0.23057 -0.0784,0.12682 2e-5,0.28804 0.17421,0.35826 0.17513,0.0706 0.19462,0.13658 0.0436,0.14759 -0.15022,0.0109 -0.34876,-0.0557 -0.44119,-0.14817 z m -1.25836,-1.00625 c -0.21154,-0.21154 0.30438,-0.84501 0.67996,-0.83488 0.15635,0.004 0.0834,0.12464 -0.16222,0.2676 -0.24558,0.14297 -0.38069,0.36641 -0.30026,0.49655 0.16786,0.27161 0.0287,0.31688 -0.21748,0.0707 z m -0.23749,-1.37805 c 0.17101,-0.1723 0.37444,-0.24976 0.45206,-0.17213 0.0776,0.0776 -0.0623,0.21859 -0.31093,0.31326 -0.35931,0.13681 -0.38826,0.10786 -0.14113,-0.14113 z m -34.975882,-8.13138 c 0,-0.0523 0.198535,-0.25089 0.44119,-0.44119 0.399859,-0.31359 0.408776,-0.30467 0.09519,0.0952 -0.329347,0.41995 -0.536375,0.5535 -0.536375,0.346 z m 5.042174,-4.28585 c 0,-0.0524 0.198536,-0.25088 0.44119,-0.44119 0.399859,-0.31359 0.408776,-0.30467 0.09519,0.0952 -0.329347,0.41995 -0.536375,0.5535 -0.536375,0.346 z m -0.572306,-0.7463 c 0.102532,-0.16115 0.188159,-0.36863 0.190282,-0.46107 0.0021,-0.0924 0.06059,-0.20589 0.129915,-0.25211 0.06933,-0.0462 0.09868,-0.0378 0.06522,0.0188 -0.03346,0.0566 0.06552,0.25511 0.219951,0.44119 0.154435,0.18608 0.238537,0.34701 0.186894,0.35762 -0.844181,0.17342 -0.959385,0.15823 -0.792257,-0.10445 z m 1.202578,-1.93171 c 0.25097,-0.27732 0.513035,-0.50422 0.582365,-0.50422 0.06933,0 -0.07929,0.2269 -0.330256,0.50422 -0.250971,0.27732 -0.513035,0.50422 -0.582365,0.50422 -0.06933,0 0.07928,-0.2269 0.330256,-0.50422 z m 1.134489,-0.17922 c 0,-0.14479 0.198536,-0.41896 0.44119,-0.60926 0.408102,-0.32006 0.413453,-0.30819 0.07134,0.15821 -0.203419,0.27732 -0.401954,0.55149 -0.44119,0.60926 -0.03924,0.0578 -0.07134,-0.0134 -0.07134,-0.15821 z m 1.471011,-0.40673 c 0.30276,-0.32227 0.492709,-0.66261 0.422111,-0.75632 -0.0706,-0.0937 -0.05248,-0.11341 0.04026,-0.0438 0.09274,0.0696 0.404728,-0.0693 0.693299,-0.30873 0.288571,-0.23943 0.07622,0.0439 -0.471897,0.62972 -0.548115,0.58579 -1.050048,1.06506 -1.115407,1.06506 -0.06536,0 0.128875,-0.26367 0.431632,-0.58595 z m 2.436674,-2.18724 c 0.250972,-0.27732 0.513036,-0.50422 0.582366,-0.50422 0.06933,0 -0.07929,0.2269 -0.330257,0.50422 -0.250972,0.27732 -0.513037,0.50421 -0.582366,0.50421 -0.06933,0 0.07928,-0.22689 0.330257,-0.50421 z m 0.597215,-2.35521 c 0.154434,-0.18608 0.196688,-0.44134 0.0939,-0.56724 -0.10279,-0.1259 -0.08265,-0.14358 0.04476,-0.0393 0.127409,0.1043 0.462789,-0.009 0.745294,-0.25211 0.395803,-0.34039 0.371576,-0.25696 -0.105595,0.36366 -0.340582,0.44298 -0.718218,0.81169 -0.83919,0.81936 -0.120974,0.008 -0.09359,-0.1383 0.06084,-0.32439 z m 2.806253,-3.03426 c 0,-0.0523 0.198535,-0.25089 0.44119,-0.44119 0.399859,-0.31359 0.408776,-0.30468 0.09519,0.0952 -0.329347,0.41995 -0.536376,0.5535 -0.536376,0.34601 z m 2.016869,-0.50422 c 0,-0.0524 0.198536,-0.25089 0.44119,-0.44119 0.39986,-0.31359 0.408777,-0.30467 0.09519,0.0952 -0.329348,0.41994 -0.536377,0.55349 -0.536377,0.346 z m 2.889431,-3.9277 c 0.549145,-0.6068 0.674985,-0.64724 0.486633,-0.1564 -0.0757,0.19727 -0.321038,0.42905 -0.545198,0.51507 -0.334831,0.12848 -0.324378,0.0645 0.05857,-0.35867 z m 1.144309,-3.38345 c 0,-0.0523 0.198535,-0.250889 0.44119,-0.441192 0.399859,-0.313591 0.408776,-0.304674 0.09519,0.09519 -0.329347,0.419952 -0.536376,0.553502 -0.536376,0.346012 z m 3.529521,-4.033741 c 0,-0.05235 0.198536,-0.250888 0.441191,-0.44119 0.399859,-0.313591 0.408776,-0.304674 0.09519,0.09518 -0.329347,0.41995 -0.536377,0.5535 -0.536377,0.346006 z"
         id="path823"
         inkscape:connector-curvature="0" />
      <path
         style="fill:#f2774b;stroke-width:0.25210872"
         d="m 48.612768,131.35448 -0.61119,-0.6933 0.648976,0.56955 c 0.356935,0.31326 0.743834,0.48343 0.859771,0.37817 0.11594,-0.10527 0.12919,-0.0496 0.0294,0.12374 -0.23871,0.4148 -0.221917,0.42165 -0.927007,-0.37816 z m -37.419061,-6.11363 c 0.25097,-0.27732 0.513035,-0.50422 0.582364,-0.50422 0.06933,0 -0.07928,0.2269 -0.330256,0.50422 -0.25097,0.27731 -0.513035,0.50421 -0.582365,0.50421 -0.06933,0 0.07929,-0.2269 0.330257,-0.50421 z m 5.441346,-3.59524 c 0.05778,-0.0361 0.388667,-0.2914 0.735317,-0.56725 l 0.630272,-0.50153 -0.480264,0.56725 c -0.264145,0.31198 -0.595038,0.56724 -0.735317,0.56724 -0.14028,0 -0.207783,-0.0296 -0.150008,-0.0657 z m 5.654281,-6.33202 c 0.23832,-0.36372 0.480978,-0.66131 0.539237,-0.66131 0.182371,0 -0.404609,0.97162 -0.695642,1.15149 -0.152297,0.0941 -0.08191,-0.12646 0.156405,-0.49018 z m 9.451232,-9.73722 c 0,-0.13866 0.120145,-0.25211 0.266988,-0.25211 0.146844,0 0.196872,0.11345 0.111175,0.25211 -0.0857,0.13866 -0.205841,0.2521 -0.266988,0.2521 -0.06115,0 -0.111175,-0.11344 -0.111175,-0.2521 z"
         id="path821"
         inkscape:connector-curvature="0" />
      <path
         style="fill:#f16837;stroke-width:0.25210872"
         d="m 49.860235,131.35448 c -0.30614,-0.39036 -0.29976,-0.40513 0.0554,-0.12824 0.22075,0.17212 0.4942,0.22885 0.60767,0.12605 0.11347,-0.10279 0.1247,-0.0451 0.025,0.12825 -0.23441,0.40733 -0.27558,0.39978 -0.68798,-0.12606 z m -34.233617,-8.95817 c 0.05777,-0.0392 0.293481,-0.21492 0.523791,-0.39041 0.324016,-0.24688 0.461151,-0.25045 0.606198,-0.0157 0.11458,0.18539 0.08107,0.23756 -0.08619,0.13418 -0.150503,-0.093 -0.3449,-0.0538 -0.431995,0.0871 -0.08709,0.14092 -0.284015,0.25622 -0.437601,0.25622 -0.153587,0 -0.231978,-0.0321 -0.174203,-0.0713 z m 2.604964,-1.89621 c -0.162725,-0.11032 -0.09057,-0.33833 0.194516,-0.6147 0.431587,-0.41838 0.449583,-0.41568 0.377518,0.0565 -0.09631,0.6311 -0.247241,0.77837 -0.572034,0.55817 z m -0.987266,-1.05776 c 0.25097,-0.27731 0.513035,-0.50421 0.582364,-0.50421 0.06933,0 -0.07928,0.2269 -0.330256,0.50421 -0.25097,0.27732 -0.513035,0.50422 -0.582365,0.50422 -0.06933,0 0.07929,-0.2269 0.330257,-0.50422 z m 3.81282,-1.71429 c -0.07994,-0.12935 0.105276,-0.44889 0.411601,-0.71007 0.546398,-0.46588 0.549869,-0.46579 0.183136,0.005 -0.2056,0.26397 -0.336002,0.52868 -0.289782,0.58826 0.04622,0.0596 0.02922,0.16313 -0.03778,0.23013 -0.067,0.067 -0.187228,0.016 -0.267173,-0.11337 z m 0.851191,-1.3899 c 0,-0.0434 0.368709,-0.41209 0.819353,-0.81935 l 0.819353,-0.74047 -0.740466,0.81936 c -0.690218,0.76375 -0.89824,0.93523 -0.89824,0.74046 z m 1.008435,-1.78106 c 0,-0.0524 0.198535,-0.25088 0.44119,-0.44119 0.399859,-0.31359 0.408776,-0.30467 0.09519,0.0952 -0.329347,0.41995 -0.536376,0.5535 -0.536376,0.346 z m 2.268978,-2.26898 c 0,-0.0524 0.198536,-0.25088 0.44119,-0.44119 0.39986,-0.31359 0.408777,-0.30467 0.09519,0.0952 -0.329347,0.41995 -0.536376,0.5535 -0.536376,0.346 z m 1.09365,-0.28429 c 0.226142,-0.16535 0.384567,-0.34804 0.352057,-0.40597 -0.03251,-0.0579 0.04712,-0.0199 0.176953,0.0845 0.129833,0.10441 0.47018,-0.003 0.756326,-0.23855 0.447463,-0.36845 0.442284,-0.34388 -0.037,0.17554 -0.306494,0.33215 -0.805266,0.62219 -1.108383,0.64452 -0.486162,0.0358 -0.502657,0.005 -0.139956,-0.26005 z m 2.59681,-2.77188 c 0.07982,-0.20799 0.260318,-0.37816 0.401121,-0.37816 0.147561,0 0.123059,0.16019 -0.05784,0.37816 -0.172616,0.20799 -0.353121,0.37817 -0.40112,0.37817 -0.048,0 -0.02198,-0.17018 0.05784,-0.37817 z m 1.580026,-1.84635 c 0.153239,-0.28633 0.402774,-0.59733 0.554523,-0.69112 0.197684,-0.12217 0.196915,-0.0229 -0.0027,0.35008 -0.15324,0.28633 -0.402774,0.59734 -0.554524,0.69112 -0.197683,0.12218 -0.196914,0.0229 0.0027,-0.35008 z m 1.788558,-1.14808 c 0,-0.0524 0.198535,-0.25089 0.44119,-0.44119 0.399859,-0.31359 0.408777,-0.30468 0.09519,0.0952 -0.329347,0.41995 -0.536376,0.5535 -0.536376,0.34601 z m 0.504217,-1.26055 c 0,-0.0524 0.198536,-0.25088 0.44119,-0.44119 0.39986,-0.31359 0.408777,-0.30467 0.09519,0.0952 -0.329348,0.41995 -0.536377,0.5535 -0.536377,0.346 z m 2.89925,-2.4259 c 0.54159,-0.55464 1.041436,-1.00843 1.110766,-1.00843 0.06933,0 -0.317067,0.45379 -0.858657,1.00843 -0.54159,0.55464 -1.041436,1.00844 -1.110766,1.00844 -0.06933,0 0.317067,-0.4538 0.858657,-1.00844 z m -1.764761,-1.26054 c 0.250972,-0.27732 0.513037,-0.50422 0.582366,-0.50422 0.06933,0 -0.07928,0.2269 -0.330257,0.50422 -0.250972,0.27732 -0.513036,0.50422 -0.582366,0.50422 -0.06933,0 0.07929,-0.2269 0.330257,-0.50422 z m 8.193533,-9.423209 c 0,-0.05235 0.198536,-0.250888 0.441191,-0.441191 0.399859,-0.31359 0.408776,-0.304673 0.09519,0.09519 -0.329348,0.41995 -0.536377,0.5535 -0.536377,0.346006 z"
         id="path819"
         inkscape:connector-curvature="0" />
      <path
         style="fill:#ef5823;stroke-width:0.25210872"
         d="m 52.561885,145.54482 c -0.23086,-0.54956 -0.60317,-1.20189 -0.82737,-1.44962 -0.22419,-0.24773 -0.32706,-0.45042 -0.22861,-0.45042 0.34519,0 -1.90629,-2.22081 -2.376012,-2.34364 -0.45137,-0.11804 -0.454373,-0.0913 -0.06097,0.5425 0.227581,0.36666 0.580272,0.86519 0.783752,1.10784 0.66944,0.79832 -0.420688,0.41428 -2.355319,-0.82974 -0.41598,-0.26749 -0.987886,-0.58966 -1.270906,-0.71593 -0.283017,-0.12627 -0.665617,-0.41158 -0.850221,-0.63401 -0.184604,-0.22244 -0.474343,-0.40443 -0.643866,-0.40443 -0.16952,0 -0.513558,-0.2269 -0.764529,-0.50422 -0.250972,-0.27732 -0.615597,-0.50422 -0.810278,-0.50422 -0.194683,0 -0.283854,-0.11345 -0.198157,-0.25211 0.0857,-0.13866 0.0034,-0.2521 -0.182814,-0.2521 -0.186246,0 -0.954847,-0.62397 -1.708001,-1.3866 -0.753155,-0.76263 -1.27058,-1.3866 -1.14983,-1.3866 0.120747,0 0.04903,-0.19854 -0.159374,-0.44119 -0.316537,-0.36856 -0.605121,-0.91396 -0.833721,-1.57568 -0.02395,-0.0693 -0.126049,-0.31176 -0.226885,-0.53873 -0.332602,-0.74865 -0.330272,-2.84834 0.0042,-3.81365 0.18085,-0.52191 0.325318,-0.9757 0.32104,-1.00844 -0.09636,-0.73735 2.5095,-3.6193 3.431729,-3.79533 0.276994,-0.0529 0.719803,-0.1888 0.984023,-0.30207 1.011546,-0.43365 3.090245,-0.22264 4.473336,0.4541 1.179872,0.57731 3.660703,2.7014 3.155093,2.7014 -0.10287,0 0.0552,0.25526 0.35121,0.56725 0.44281,0.46667 0.86527,1.20316 1.12074,1.95384 0.0236,0.0693 0.12693,0.31573 0.22963,0.54756 0.1027,0.23182 0.22603,0.62889 0.27407,0.88238 0.048,0.25348 0.10471,0.46087 0.12593,0.46087 0.068,0 0.25991,0.97258 0.44768,2.26898 0.3929,2.71253 0.12666,10.06049 -0.41726,11.5162 -0.20812,0.55698 -0.23872,0.53712 -0.63834,-0.41419 z m -0.40437,-10.47574 c 0.003,-0.5786 -0.33488,-1.46605 -0.9717,-2.5558 -1.07543,-1.84034 -3.684996,-5.35009 -4.561187,-6.1346 -0.551593,-0.49388 -0.564368,-0.49408 -0.914799,-0.0149 -0.644838,0.88187 -0.368235,1.48902 1.670667,3.66708 1.89888,2.02848 3.736589,4.69722 4.146019,6.02089 0.25052,0.80991 0.62573,0.22554 0.631,-0.98272 z m -1.87075,-2.9474 c -0.13681,-0.3593 -0.10786,-0.38826 0.14113,-0.14113 0.1723,0.17102 0.24976,0.37444 0.17213,0.45206 -0.0776,0.0776 -0.21859,-0.0623 -0.31326,-0.31093 z m -52.580874,11.62269 c 0,-0.0839 0.340346,-0.65682 0.756326,-1.27318 0.415979,-0.61637 0.756326,-1.18361 0.756326,-1.26055 0,-0.0769 0.340347,-0.64417 0.756326,-1.26054 0.415979,-0.61636 0.756326,-1.17395 0.756326,-1.23909 0,-0.0651 0.308218,-0.59833 0.684928,-1.18487 0.376711,-0.58655 0.692462,-1.12318 0.70167,-1.19251 0.0092,-0.0693 0.349555,-0.63658 0.756326,-1.26055 0.406772,-0.62396 0.743352,-1.2139 0.747956,-1.31096 0.0046,-0.0971 0.150181,-0.31829 0.323506,-0.49161 0.173325,-0.17333 0.315136,-0.42533 0.315136,-0.56 0,-0.13468 0.183421,-0.44754 0.407602,-0.69526 0.427937,-0.47286 0.647975,-0.31744 3.526043,2.49059 0.319766,0.31198 0.699998,0.56724 0.844961,0.56724 0.600411,0 0.198415,0.79113 -0.68554,1.34915 -0.52201,0.32953 -1.103146,0.78475 -1.291413,1.0116 -0.188268,0.22685 -0.481004,0.41245 -0.650524,0.41245 -0.169521,0 -0.51356,0.2269 -0.764531,0.50422 -0.250971,0.27732 -0.615596,0.50422 -0.810279,0.50422 -0.194682,0 -0.283852,0.11344 -0.198156,0.2521 0.0857,0.13866 -0.0035,0.25211 -0.198156,0.25211 -0.194683,0 -0.559308,0.2269 -0.810279,0.50422 -0.25097,0.27732 -0.591317,0.50422 -0.756326,0.50422 -0.165008,0 -0.505355,0.2269 -0.756326,0.50422 -0.250971,0.27731 -0.565561,0.50421 -0.699091,0.50421 -0.133528,0 -0.622294,0.31199 -1.086146,0.6933 -2.045683,1.68168 -2.626665,2.05222 -2.626665,1.67527 z m 11.32487,-10.0007 C 8.39578,133.15758 7.338347,132.23595 6.68091,131.69561 l -1.19534,-0.98243 1.33278,-1.34955 1.332781,-1.34954 1.206152,1.18801 c 0.663383,0.65341 1.206152,1.11001 1.206152,1.01466 0,-0.0953 0.504009,0.29306 1.12002,0.86313 l 1.12002,1.03649 -1.183047,1.34912 c -0.650676,0.74201 -1.239772,1.34792 -1.309102,1.34645 -0.06933,-0.002 -0.645584,-0.48219 -1.280565,-1.06828 z m 3.927707,-3.02237 c -0.41598,-0.30266 -1.266847,-1.02677 -1.890816,-1.60915 -0.623969,-0.58238 -1.375322,-1.26702 -1.669674,-1.52144 -0.607162,-0.52479 -0.308824,-1.04591 0.505294,-0.88262 0.623276,0.12502 1.420911,-0.29778 3.559413,-1.88671 2.313107,-1.71867 6.989997,-5.9053 7.135451,-6.38747 0.06274,-0.20799 -0.31172,0.0189 -0.83214,0.50422 -0.563578,0.52555 -0.837873,0.67848 -0.678294,0.37816 0.370443,-0.69715 1.860369,-2.0576 1.64836,-1.50512 -0.137558,0.35847 -0.08565,0.38615 0.314684,0.16776 1.730023,-0.94373 24.874797,-26.225158 24.740872,-27.024869 -0.03483,-0.20799 -0.345981,-0.410129 -0.691446,-0.449197 -1.042898,-0.117942 -2.803295,0.973145 -3.978835,2.466066 -0.6005,0.762629 -2.417952,2.908104 -4.038779,4.767722 -5.557527,6.376298 -7.235288,8.316758 -8.871514,10.260588 -0.901288,1.07073 -1.922329,2.28193 -2.268978,2.69156 -1.117853,1.32094 -13.036318,13.12385 -14.501562,14.36096 -0.780092,0.65864 -1.531121,1.19752 -1.668954,1.19752 -0.211438,0 1.480268,-1.83288 5.212191,-5.64717 0.420601,-0.42988 0.798905,-0.89505 0.840674,-1.03371 0.04177,-0.13866 1.115752,-1.34881 2.386629,-2.68922 1.270877,-1.34042 2.748745,-2.9287 3.284151,-3.52953 0.535407,-0.60082 1.961011,-2.11344 3.168009,-3.36138 1.207001,-1.24794 2.3005,-2.45712 2.430003,-2.68706 0.129501,-0.22994 1.199773,-1.4411 2.378381,-2.69145 1.178608,-1.25036 2.582365,-2.76396 3.119457,-3.36356 0.537092,-0.59959 2.011928,-2.182743 3.277413,-3.518108 1.265485,-1.335365 2.482537,-2.670663 2.704564,-2.967328 0.222025,-0.296666 1.321879,-1.488799 2.444121,-2.649184 1.122242,-1.160386 2.006107,-2.150792 1.964146,-2.200901 -0.04196,-0.05011 1.070439,-1.254278 2.471999,-2.675931 l 2.54829,-2.584823 1.567977,1.513361 c 0.86239,0.832349 1.66041,1.513362 1.77337,1.513362 0.11297,0 0.7966,0.598638 1.51918,1.330307 l 1.31378,1.330307 -2.12897,2.11791 c -1.17093,1.16485 -2.0713,2.211221 -2.00081,2.325269 0.0705,0.114047 -0.0554,0.207359 -0.27977,0.207359 -0.22435,0 -0.337802,0.113449 -0.2521,0.252109 0.0857,0.13866 -0.04,0.252109 -0.279253,0.252109 -0.239284,0 -0.366652,0.06841 -0.283045,0.152016 0.129886,0.129884 -0.584121,0.935066 -3.978109,4.486106 -0.278666,0.29156 -0.76901,0.87045 -1.089652,1.28643 -0.320642,0.41598 -1.708439,1.90112 -3.083998,3.30031 -1.375555,1.39919 -2.426226,2.61877 -2.334826,2.71017 0.0914,0.0914 -0.04181,0.16619 -0.296014,0.16619 -0.254208,0 -0.392838,0.0694 -0.308064,0.15413 0.08477,0.0848 -0.759581,1.09891 -1.876344,2.25363 -1.116761,1.15472 -2.330067,2.46162 -2.69623,2.90423 -0.366165,0.44261 -0.901261,1.0793 -1.189106,1.41488 l -0.52335,0.61013 -0.611139,-0.50876 c -0.336124,-0.27981 -0.476969,-0.51253 -0.31299,-0.51714 0.163981,-0.005 0.370161,-0.23528 0.45818,-0.5126 0.08802,-0.27732 0.32256,-0.50422 0.521207,-0.50422 0.198644,0 0.332811,-0.101 0.298146,-0.22445 -0.03466,-0.12344 0.994037,-1.31466 2.286006,-2.64714 1.291969,-1.33248 2.280865,-2.42269 2.197548,-2.42269 -0.08332,0 0.221004,-0.38009 0.676272,-0.84464 3.817762,-3.8956 5.444297,-5.67362 5.31161,-5.80631 -0.08579,-0.0858 0.03309,-0.15599 0.264192,-0.15599 0.231101,0 0.39182,-0.10005 0.357155,-0.22234 -0.03467,-0.12229 0.993858,-1.341866 2.285605,-2.710171 6.329039,-6.704134 6.816929,-7.2701 6.547269,-7.59502 -0.19818,-0.238793 -0.35131,-0.247768 -0.60699,-0.03558 -0.18806,0.15608 -0.27977,0.384377 -0.20378,0.507326 0.076,0.122948 -0.0454,0.223543 -0.26976,0.223543 -0.22436,0 -0.33781,0.113449 -0.25211,0.252108 0.0857,0.13866 -0.04,0.252109 -0.27925,0.252109 -0.23928,0 -0.3657,0.06936 -0.28092,0.154135 0.0848,0.08477 -0.759584,1.098907 -1.876347,2.253628 -1.116761,1.154721 -2.330067,2.472977 -2.69623,2.929459 -0.366165,0.456482 -1.743518,1.951937 -3.060786,3.323233 -1.317268,1.3713 -2.36667,2.59301 -2.332006,2.71491 0.03466,0.1219 -0.05852,0.22164 -0.207089,0.22164 -0.148563,0 -0.44029,0.17017 -0.64828,0.37816 -0.20799,0.20799 -0.305672,0.37816 -0.217073,0.37816 0.0886,0 -0.852511,1.04941 -2.091355,2.33201 -1.238845,1.2826 -2.633346,2.7858 -3.098893,3.34044 -0.710712,0.84672 -2.966735,3.25146 -5.471823,5.83252 -0.318287,0.32794 -0.50872,0.59625 -0.423184,0.59625 0.08554,0 -0.01465,0.17018 -0.22264,0.37817 -0.20799,0.20799 -0.499717,0.37816 -0.64828,0.37816 -0.148565,0 -0.241755,0.0944 -0.20709,0.20987 0.0626,0.20844 -2.975298,3.55605 -7.692605,8.47687 -1.353742,1.41214 -2.384236,2.64465 -2.289987,2.7389 0.09425,0.0943 -0.02442,0.17136 -0.263698,0.17136 -0.239283,0 -0.364945,0.11345 -0.279248,0.25211 0.0857,0.13866 -0.02775,0.25211 -0.252109,0.25211 -0.224356,0 -0.357116,0.0851 -0.295021,0.18908 0.06209,0.10399 -0.356644,0.66677 -0.930529,1.2506 l -1.043428,1.06153 z m 23.320055,-4.89625 c -0.623969,-0.48926 -1.990791,-1.71135 -3.037383,-2.71576 -1.046591,-1.00441 -2.050927,-1.87554 -2.231855,-1.93585 -0.224294,-0.0748 -0.08007,-0.37609 0.453268,-0.94704 0.430226,-0.46056 0.782231,-0.93883 0.782231,-1.06283 0,-0.12399 0.162529,-0.22544 0.361173,-0.22544 0.198647,0 0.433188,-0.2269 0.521207,-0.50422 0.08802,-0.27732 0.314917,-0.50422 0.504218,-0.50422 0.1893,0 0.416198,-0.2269 0.504217,-0.50421 0.08802,-0.27732 0.35424,-0.50422 0.591606,-0.50422 0.237365,0 0.59511,0.2269 0.794992,0.50422 0.199882,0.27731 0.462544,0.50421 0.583695,0.50421 0.121153,0 0.897829,0.65233 1.725948,1.44963 0.828122,0.79729 1.628998,1.49326 1.779727,1.54659 0.512206,0.18123 2.845399,2.54498 2.514653,2.54758 -1.144964,0.009 -3.524152,1.73552 -3.912011,2.83882 -0.221682,0.63058 -0.646407,0.52367 -1.935686,-0.48726 z m -13.61387,-10.03828 c 0.470379,-0.48531 0.91196,-0.88238 0.98129,-0.88238 0.06933,0 -0.258802,0.39707 -0.729181,0.88238 -0.470381,0.48531 -0.911962,0.88238 -0.981292,0.88238 -0.06933,0 0.258803,-0.39707 0.729183,-0.88238 z m 1.784471,-1.86356 c 0.296464,-0.40099 0.895467,-0.98393 1.331118,-1.29544 0.558043,-0.39902 0.422424,-0.18359 -0.458971,0.72907 -1.418936,1.46926 -1.651196,1.6201 -0.872147,0.56637 z m 2.3825,-2.54775 c 0.694514,-0.87984 1.669645,-1.81127 1.780354,-1.70057 0.05099,0.051 -0.440563,0.59616 -1.092342,1.21148 -0.651779,0.61532 -0.961384,0.83542 -0.688012,0.48909 z m -8.452819,-3.58953 c -0.901289,-0.98168 -1.610345,-1.88044 -1.57568,-1.99722 0.03466,-0.11679 -0.113841,-0.21234 -0.330014,-0.21234 -0.216173,0 -0.322927,-0.11345 -0.23723,-0.25211 0.0857,-0.13866 -0.03997,-0.25211 -0.279248,-0.25211 -0.239283,0 -0.363498,-0.0716 -0.276033,-0.15903 0.08747,-0.0875 -1.076494,-1.42049 -2.586574,-2.96228 C 11.583945,100.40906 9.914643,98.642639 9.384467,98.025472 8.854291,97.408305 7.790267,96.217092 7.019968,95.378331 5.682804,93.922322 5.005633,93.037763 4.333764,91.869459 4.070347,91.411405 4.121883,91.241581 4.710866,90.626815 5.086086,90.23517 6.074255,89.586738 6.906797,89.185855 l 1.513714,-0.728878 0.07678,0.587243 c 0.04223,0.322984 0.335036,0.829864 0.650685,1.1264 l 0.573905,0.539156 0.459851,-0.508129 c 0.252918,-0.279471 0.674323,-0.50813 0.936454,-0.50813 0.475038,0 1.419526,0.789273 1.8603,1.554581 0.12765,0.221638 0.742611,0.973204 1.36658,1.670148 0.623969,0.696943 1.387067,1.589518 1.695773,1.983498 0.308706,0.39398 0.904313,1.10041 1.323571,1.569844 0.419258,0.469434 0.763271,0.92323 0.764474,1.008435 0.0012,0.08521 0.405419,0.580352 0.898258,1.100326 0.492839,0.519974 0.825955,0.945408 0.740259,0.945408 -0.0857,0 0.332592,0.520083 0.92953,1.155743 0.596938,0.63566 1.198791,1.36352 1.337451,1.61745 0.13866,0.25394 0.705904,0.95637 1.260544,1.56096 1.132033,1.23398 1.332818,1.71646 0.714307,1.71646 -0.231098,0 -0.34995,0.0702 -0.264114,0.15606 0.202571,0.20257 -0.447226,0.85237 -0.852367,0.85237 -0.171674,0 -0.241904,0.0702 -0.156068,0.15607 0.08584,0.0858 -5.04e-4,0.31273 -0.192082,0.50422 -0.191482,0.19148 -0.488611,0.34815 -0.660285,0.34815 -0.171674,0 -0.241904,0.0702 -0.156067,0.15606 0.08584,0.0858 -6.05e-4,0.31274 -0.192083,0.50422 -0.191482,0.19148 -0.488611,0.34815 -0.660284,0.34815 -0.171674,0 -0.241905,0.0702 -0.156068,0.15607 0.138444,0.13844 -0.416555,0.88234 -0.621268,0.83272 -0.04457,-0.0108 -0.818453,-0.82284 -1.719741,-1.80453 z M 11.615046,93.31002 c 0.578039,-0.523119 0.583584,-0.912564 0.01985,-1.394234 -0.861726,-0.736284 -2.039306,0.5709 -1.308049,1.452011 0.389097,0.468833 0.72284,0.453864 1.288198,-0.05778 z m 17.604433,15.30052 c 0,-0.13378 0.25526,-0.37719 0.567245,-0.5409 0.564204,-0.29607 0.56467,-0.29476 0.08698,0.24324 -0.533545,0.60091 -0.654225,0.65582 -0.654225,0.29766 z m 2.01687,-2.10463 c 0,-0.0434 0.368709,-0.41209 0.819353,-0.81935 l 0.819353,-0.74047 -0.740465,0.81936 c -0.690219,0.76375 -0.898241,0.93523 -0.898241,0.74046 z"
         id="path817"
         inkscape:connector-curvature="0" />
    </g>
  </g>
</svg>
