<?xml version="1.0" encoding="UTF-8" standalone="no"?>
<svg
   xmlns:dc="http://purl.org/dc/elements/1.1/"
   xmlns:cc="http://creativecommons.org/ns#"
   xmlns:rdf="http://www.w3.org/1999/02/22-rdf-syntax-ns#"
   xmlns:svg="http://www.w3.org/2000/svg"
   xmlns="http://www.w3.org/2000/svg"
   xmlns:sodipodi="http://sodipodi.sourceforge.net/DTD/sodipodi-0.dtd"
   xmlns:inkscape="http://www.inkscape.org/namespaces/inkscape"
   width="51.59375mm"
   height="51.59375mm"
   viewBox="0 0 51.593754 51.593752"
   version="1.1"
   id="svg8"
   inkscape:version="1.0.1 (3bc2e813f5, 2020-09-07)"
   sodipodi:docname="color_picker.svg">
  <defs
     id="defs2" />
  <sodipodi:namedview
     id="base"
     pagecolor="#ffffff"
     bordercolor="#666666"
     borderopacity="1.0"
     inkscape:pageopacity="0.0"
     inkscape:pageshadow="2"
     inkscape:zoom="2"
     inkscape:cx="44.328294"
     inkscape:cy="86.951492"
     inkscape:document-units="mm"
     inkscape:current-layer="layer1"
     inkscape:document-rotation="0"
     showgrid="false"
     inkscape:window-width="1680"
     inkscape:window-height="997"
     inkscape:window-x="-8"
     inkscape:window-y="-8"
     inkscape:window-maximized="1"
     inkscape:snap-bbox="true"
     inkscape:snap-object-midpoints="true"
     inkscape:snap-intersection-paths="true"
     showguides="true"
     inkscape:guide-bbox="true"
     inkscape:snap-smooth-nodes="true"
     inkscape:object-paths="true"
     inkscape:snap-global="true" />
  <metadata
     id="metadata5">
    <rdf:RDF>
      <cc:Work
         rdf:about="">
        <dc:format>image/svg+xml</dc:format>
        <dc:type
           rdf:resource="http://purl.org/dc/dcmitype/StillImage" />
        <dc:title></dc:title>
      </cc:Work>
    </rdf:RDF>
  </metadata>
  <g
     inkscape:label="Layer 1"
     inkscape:groupmode="layer"
     id="layer1"
     transform="translate(193.75951,-66.338921)">
    <g
       id="g1135"
       transform="matrix(0.95386279,0,0,0.95386279,-7.7493156,4.2504357)">
      <path
         style="fill:#00aa44;fill-opacity:1;stroke:none;stroke-width:0.999999"
         d="M 98.001953,98.714844 V 194.99805 A 97.499997,97.499997 0 0 0 166.08594,166.79883 Z"
         transform="matrix(0.26458333,0,0,0.26458333,-193.75951,66.338921)"
         id="path1118" />
      <path
         style="fill:#2a7fff;fill-opacity:1;stroke:none;stroke-width:0.999999"
         d="M 96.998047,98.712891 28.914062,166.79688 a 97.499997,97.499997 0 0 0 68.083985,28.20117 z"
         transform="matrix(0.26458333,0,0,0.26458333,-193.75951,66.338921)"
         id="path1116" />
      <path
         style="fill:#003380;fill-opacity:1;stroke:none;stroke-width:0.999999"
         d="M 0.00195313,98.005859 A 97.499997,97.499997 0 0 0 28.205078,166.08789 L 96.287109,98.005859 Z"
         transform="matrix(0.26458333,0,0,0.26458333,-193.75951,66.338921)"
         id="path1114" />
      <path
         style="fill:#ffcc00;fill-opacity:1;stroke:none;stroke-width:0.999999"
         d="M 194.99805,98.005859 H 98.710938 l 68.082032,68.082031 a 97.499997,97.499997 0 0 0 28.20508,-68.082031 z"
         transform="matrix(0.26458333,0,0,0.26458333,-193.75951,66.338921)"
         id="path1112" />
      <path
         style="fill:#4d4d4d;fill-opacity:1;stroke:none;stroke-width:0.999999"
         d="m 194.99805,97.085938 v 0.919921 A 97.499997,97.499997 0 0 0 195,97.5 97.499997,97.499997 0 0 0 194.998,97.085938 Z"
         transform="matrix(0.26458333,0,0,0.26458333,-193.75951,66.338921)"
         id="path1110" />
      <path
         style="fill:#ff7f2a;fill-opacity:1;stroke:none;stroke-width:0.999999"
         d="M 166.79688,28.916016 98.710938,97.001953 H 194.99805 A 97.499997,97.499997 0 0 0 166.79688,28.916016 Z"
         transform="matrix(0.26458333,0,0,0.26458333,-193.75951,66.338921)"
         id="path1108" />
      <path
         style="fill:#7f2aff;fill-opacity:1;stroke:none;stroke-width:0.999999"
         d="M 28.201172,28.916016 A 97.499997,97.499997 0 0 0 0.00195313,97.001953 H 96.287109 Z"
         transform="matrix(0.26458333,0,0,0.26458333,-193.75951,66.338921)"
         id="path1106" />
      <path
         style="fill:#ff0000;fill-opacity:1;stroke:none;stroke-width:0.264583"
         d="M -167.82983,91.794736 V 66.319802 a 25.796874,25.796874 0 0 1 18.01389,7.461044 z"
         id="path1122" />
      <path
         style="fill:#aa0044;fill-opacity:1;stroke:none;stroke-width:0.264583"
         d="m -168.09544,91.795246 -18.01389,-18.013884 a 25.796874,25.796874 0 0 1 18.01389,-7.46156 z"
         id="path1124" />
    </g>
  </g>
</svg>
