<?xml version="1.0" encoding="UTF-8" standalone="no"?>
<svg
   xmlns:dc="http://purl.org/dc/elements/1.1/"
   xmlns:cc="http://creativecommons.org/ns#"
   xmlns:rdf="http://www.w3.org/1999/02/22-rdf-syntax-ns#"
   xmlns:svg="http://www.w3.org/2000/svg"
   xmlns="http://www.w3.org/2000/svg"
   xmlns:sodipodi="http://sodipodi.sourceforge.net/DTD/sodipodi-0.dtd"
   xmlns:inkscape="http://www.inkscape.org/namespaces/inkscape"
   width="55.211807mm"
   height="53.699162mm"
   viewBox="0 0 55.211807 53.699162"
   version="1.1"
   id="svg140"
   inkscape:version="0.92.5 (2060ec1f9f, 2020-04-08)"
   sodipodi:docname="dtemplates.svg">
  <defs
     id="defs134">
    <clipPath
       clipPathUnits="userSpaceOnUse"
       id="clipEmfPath1-1">
      <path
         d="M 0,0 H 208.67455 V 202.95744 H 0 Z"
         id="path31"
         inkscape:connector-curvature="0" />
    </clipPath>
  </defs>
  <sodipodi:namedview
     id="base"
     pagecolor="#ffffff"
     bordercolor="#666666"
     borderopacity="1.0"
     inkscape:pageopacity="0.0"
     inkscape:pageshadow="2"
     inkscape:zoom="3.959798"
     inkscape:cx="125.22011"
     inkscape:cy="57.580307"
     inkscape:document-units="mm"
     inkscape:current-layer="layer1"
     inkscape:document-rotation="0"
     showgrid="false"
     inkscape:window-width="1267"
     inkscape:window-height="729"
     inkscape:window-x="366"
     inkscape:window-y="140"
     inkscape:window-maximized="0" />
  <metadata
     id="metadata137">
    <rdf:RDF>
      <cc:Work
         rdf:about="">
        <dc:format>image/svg+xml</dc:format>
        <dc:type
           rdf:resource="http://purl.org/dc/dcmitype/StillImage" />
        <dc:title />
      </cc:Work>
    </rdf:RDF>
  </metadata>
  <g
     inkscape:label="Layer 1"
     inkscape:groupmode="layer"
     id="layer1"
     transform="translate(-10.325236,-120.23362)">
    <path
       inkscape:connector-curvature="0"
       id="path829"
       d="m 20.661693,169.64693 v -4.28585 h -5.168229 -5.168228 v -22.56373 -22.56373 h 22.563729 22.56373 v 4.28585 4.28585 h 5.042174 5.042174 v 22.56373 22.56373 H 43.099368 20.661693 Z M 62.763847,151.36905 V 131.57851 H 43.099368 23.434888 v 19.79054 19.79053 h 19.66448 19.664479 z m -21.249459,11.98242 c -0.792178,-1.38261 -1.440325,-2.57382 -1.440325,-2.64714 0,-0.0733 1.361387,-0.13331 3.025305,-0.13331 1.663917,0 3.025304,0.06 3.025304,0.13331 0,0.24848 -2.879646,5.16097 -3.025304,5.16097 -0.07956,0 -0.792799,-1.13122 -1.58498,-2.51383 z m -8.749993,-1.9611 c 0.0022,-0.28072 1.4726,-5.65489 1.575302,-5.75759 0.04848,-0.0485 1.096302,0.9247 2.328489,2.16262 1.52375,1.53084 2.124346,2.29046 1.8777,2.37486 -0.869944,0.29769 -5.181918,1.40885 -5.467839,1.40901 -0.173325,1e-4 -0.314468,-0.0849 -0.313652,-0.1889 z m 17.349782,-0.5313 c -1.341597,-0.36886 -2.500896,-0.73228 -2.576219,-0.8076 -0.07532,-0.0753 0.872216,-1.14145 2.105643,-2.36916 l 2.242597,-2.23221 0.396651,1.42597 c 1.381371,4.96606 1.343036,4.71409 0.711786,4.67852 -0.242655,-0.0137 -1.538862,-0.32666 -2.880458,-0.69552 z m -14.951396,-9.49002 c -16.558363,15.04249 -8.279182,7.52124 0,0 z m -3.912523,1.73263 c -1.317268,-0.76728 -2.490008,-1.48657 -2.606089,-1.59842 -0.173641,-0.16732 1.983436,-1.51411 4.812041,-3.00444 l 0.567244,-0.29887 v 3.16023 c 0,1.73813 -0.08509,3.1549 -0.189081,3.14839 -0.103995,-0.007 -1.266847,-0.63961 -2.584115,-1.40689 z m 20.925023,-1.73263 c 0,-1.73325 0.04545,-3.15136 0.100993,-3.15136 0.365096,0 5.423803,3.10839 5.323315,3.27099 -0.136219,0.22041 -5.025938,3.03173 -5.273073,3.03173 -0.08318,0 -0.151235,-1.41811 -0.151235,-3.15136 z m -17.994608,-4.60099 c -0.709048,-2.42747 -1.433852,-5.42525 -1.3355,-5.5236 0.136389,-0.13639 5.687939,1.3145 5.920842,1.54741 0.155074,0.15507 -3.97353,4.41739 -4.278816,4.41739 -0.09771,0 -0.235649,-0.19854 -0.306526,-0.4412 z m 15.230501,-1.69259 c -1.169013,-1.17512 -2.061321,-2.20074 -1.982908,-2.27915 0.23731,-0.23731 5.80505,-1.67211 5.945112,-1.53205 0.195449,0.19545 -1.326554,5.77771 -1.60016,5.86892 -0.130113,0.0434 -1.193034,-0.88261 -2.362044,-2.05772 z m -9.295092,-3.11129 c 0.255674,-0.6173 2.877244,-5.09125 2.983286,-5.09125 0.106042,0 2.727612,4.47395 2.983285,5.09125 0.04622,0.1116 -1.296257,0.2029 -2.983285,0.2029 -1.687028,0 -3.029507,-0.0913 -2.983286,-0.2029 z m -19.454389,3.73242 v -16.89128 h 16.008903 c 8.804896,0 16.018344,-0.0851 16.029886,-0.18908 0.01155,-0.104 0.0399,-1.40868 0.06303,-2.89929 l 0.04204,-2.71021 -19.853561,4e-5 c -13.05348,2e-5 -19.860819,0.0864 -19.874751,0.25215 -0.01165,0.13865 -0.02119,8.93095 -0.02119,19.53842 0,10.60748 0.0095,19.39977 0.02119,19.53843 0.01311,0.15592 1.463933,0.25211 3.802821,0.25211 h 3.781631 z"
       style="fill:#fdd4d4;stroke-width:0.25210872"
       sodipodi:nodetypes="cccccccccccccccccccccccccccsssscccscccscccscsccscccscssscsscccscccccccscscccscccscscscc" />
    <path
       inkscape:connector-curvature="0"
       id="path827"
       d="m 20.661693,169.64693 v -4.28585 h -5.168229 -5.168228 v -22.56373 -22.56373 h 22.563729 22.56373 v 4.28585 4.28585 h 5.042174 5.042174 v 22.56373 22.56373 H 43.099368 20.661693 Z M 62.763847,151.36905 V 131.57851 H 43.099368 23.434888 v 19.79054 19.79053 h 19.66448 19.664479 z m -21.229807,11.9074 -1.439276,-2.57938 2.922626,-0.0713 c 1.607442,-0.0392 2.966427,-0.0275 3.019962,0.026 0.116772,0.11677 -2.757048,5.20928 -2.937984,5.20621 -0.06933,-0.001 -0.773727,-1.16287 -1.565328,-2.58153 z m -8.708651,-2.13819 c 0.06671,-0.24265 0.438546,-1.61186 0.826307,-3.04269 l 0.705021,-2.60149 2.220508,2.21022 c 1.221277,1.21562 2.175468,2.25525 2.120423,2.3103 -0.1181,0.1181 -5.456049,1.5643 -5.775059,1.56463 -0.120168,1.2e-4 -0.163907,-0.19831 -0.0972,-0.44097 z m 18.341457,-0.0506 c -0.901288,-0.24542 -2.137934,-0.5845 -2.7481,-0.7535 l -1.109395,-0.30726 2.230769,-2.24115 c 1.226922,-1.23264 2.270436,-2.20149 2.318919,-2.15301 0.102701,0.1027 1.5731,5.47687 1.575301,5.75759 0.002,0.26232 -0.379958,0.21133 -2.267494,-0.30267 z m -19.960808,-8.04103 c -1.34159,-0.78645 -2.501105,-1.49177 -2.5767,-1.56736 -0.07559,-0.0756 0.624998,-0.5723 1.556873,-1.10379 0.931876,-0.53149 2.176477,-1.24521 2.765781,-1.58605 l 1.071462,-0.61969 v 3.17531 c 0,1.74643 -0.08509,3.16546 -0.189081,3.15341 -0.103995,-0.012 -1.286746,-0.66537 -2.628335,-1.45183 z m 20.969243,-1.70158 v -3.17531 l 1.071462,0.61716 c 0.589304,0.33943 1.837243,1.04067 2.773196,1.5583 0.935954,0.51763 1.701734,0.97883 1.701734,1.02488 0,0.0929 -5.284826,3.15029 -5.445399,3.15029 -0.05555,0 -0.100993,-1.42889 -0.100993,-3.17532 z m -18.635801,-7.0394 c -0.445723,-1.61983 -0.767255,-2.98829 -0.714517,-3.04102 0.08418,-0.0842 5.775537,1.36224 5.917636,1.50394 0.03032,0.0302 -0.945635,1.0511 -2.16879,2.26859 l -2.223923,2.21362 z m 16.029247,0.67536 -2.21178,-2.22207 2.965343,-0.79023 c 1.630937,-0.43462 3.006626,-0.74894 3.057088,-0.69848 0.104274,0.10428 -1.181034,5.14295 -1.433795,5.62078 -0.107585,0.20339 -0.935407,-0.46184 -2.376856,-1.91 z m -9.419669,-3.00305 c 0.593993,-1.07219 2.336828,-4.10119 2.628483,-4.56824 l 0.373133,-0.59753 0.626667,1.10175 c 0.344668,0.60596 1.023582,1.8108 1.508697,2.67742 l 0.88203,1.57568 h -3.061881 c -1.684035,0 -3.014743,-0.0851 -2.957129,-0.18908 z m -19.487365,3.7186 v -16.89124 h 16.008903 c 8.804896,0 16.018344,-0.0851 16.029886,-0.18908 0.01155,-0.104 0.0399,-1.40868 0.06303,-2.89929 l 0.04204,-2.71021 -19.853561,4e-5 c -13.05348,2e-5 -19.860819,0.0864 -19.874751,0.25215 -0.01165,0.13865 -0.02119,8.93095 -0.02119,19.53842 0,10.60748 0.0095,19.39977 0.02119,19.53843 0.01311,0.15592 1.463933,0.25211 3.802821,0.25211 h 3.781631 z"
       style="fill:#fdb4b4;stroke-width:0.25210872"
       sodipodi:nodetypes="ccccccccccccccccccccccccccsccccscccsccccccccccccsccsccsccsssscccsccccccccccccscscccscccscscscc" />
    <path
       inkscape:connector-curvature="0"
       id="path825"
       d="m 20.661693,169.64693 v -4.28585 h -5.168229 -5.168228 v -22.56373 -22.56373 h 22.563729 22.56373 v 4.28585 4.28585 h 5.042174 5.042174 v 22.56373 22.56373 H 43.099368 20.661693 Z M 62.763847,151.36905 V 131.57851 H 43.099368 23.434888 v 19.79054 19.79053 h 19.66448 19.664479 z m -19.987236,13.96003 c -0.206276,-0.32905 -0.894507,-1.50586 -1.529408,-2.61514 l -1.154363,-2.01687 1.503264,-0.0751 c 0.826796,-0.0413 2.180887,-0.0413 3.009094,0 l 1.505833,0.0751 -1.479689,2.61514 c -1.456937,2.57494 -1.485455,2.60595 -1.854731,2.01687 z m -9.916934,-4.19082 c 0.07191,-0.24265 0.440083,-1.60995 0.818165,-3.03843 l 0.687421,-2.59724 2.216232,2.20596 c 1.218931,1.21328 2.178222,2.24398 2.131759,2.29044 -0.10038,0.10038 -5.479828,1.56642 -5.778251,1.57473 -0.113339,0.003 -0.147236,-0.1928 -0.07533,-0.43546 z m 18.307169,-0.0671 c -0.901288,-0.25753 -2.137934,-0.59783 -2.7481,-0.75623 l -1.109395,-0.28798 2.230769,-2.24115 c 1.226922,-1.23264 2.25868,-2.21325 2.29279,-2.17914 0.07055,0.0705 1.602915,5.66399 1.602915,5.85095 0,0.19964 -0.539228,0.1078 -2.268979,-0.38645 z m -11.218837,-2.37142 c -19.748515,10.15536 -9.874258,5.07768 0,0 z m -8.780499,-5.73167 -2.72989,-1.54405 1.721455,-0.99229 c 0.946801,-0.54576 2.203613,-1.27197 2.792917,-1.61379 l 1.071462,-0.6215 v 3.16199 c 0,1.73909 -0.02836,3.16012 -0.06303,3.15784 -0.03467,-0.002 -1.291477,-0.69897 -2.792917,-1.5482 z m 21.007771,-1.60469 v -3.1868 l 0.819354,0.48793 c 0.450644,0.26837 1.500046,0.86418 2.332005,1.32403 2.717223,1.5019 2.731911,1.26418 -0.17906,2.8982 -1.426774,0.8009 -2.679222,1.50281 -2.783217,1.5598 -0.103995,0.057 -0.189082,-1.33043 -0.189082,-3.08316 z m -18.610685,-7.08279 c -0.433241,-1.63231 -0.759255,-2.99629 -0.724475,-3.03107 0.05012,-0.0501 4.959763,1.20996 5.781163,1.48376 0.110081,0.0367 -0.805406,1.06761 -2.034414,2.29093 l -2.234562,2.22421 z m 16.000548,0.69687 -2.205744,-2.21601 2.971262,-0.78431 c 1.634197,-0.43137 3.006936,-0.74864 3.050533,-0.70504 0.0843,0.0843 -1.381432,5.6925 -1.525391,5.83646 -0.0467,0.0467 -1.0775,-0.91229 -2.29066,-2.1311 z m -9.186521,-3.37761 c 0.199403,-0.31199 0.85899,-1.44648 1.465753,-2.52109 0.606762,-1.07461 1.183252,-1.95384 1.281085,-1.95384 0.09784,0 0.543491,0.65233 0.990346,1.44962 0.446855,0.7973 1.092435,1.93178 1.43462,2.52109 l 0.622156,1.07146 h -3.078255 -3.078255 z m -19.71693,4.09676 v -16.89129 h 16.008903 c 8.804896,0 16.018344,-0.0851 16.029886,-0.18908 0.01155,-0.104 0.0399,-1.40868 0.06303,-2.89929 l 0.04204,-2.71021 -19.853561,4e-5 c -13.05348,2e-5 -19.860819,0.0864 -19.874751,0.25215 -0.01165,0.13865 -0.02119,8.93095 -0.02119,19.53842 0,10.60748 0.0095,19.39977 0.02119,19.53843 0.01311,0.15592 1.463933,0.25211 3.802821,0.25211 h 3.781631 z"
       style="fill:#fc8d8d;stroke-width:0.25210872"
       sodipodi:nodetypes="cccccccccccccccccccccccccccscccccccscsccccsccccssccccsccscccscccccssccccsccsccccssccccccccscccscscscc" />
    <path
       inkscape:connector-curvature="0"
       id="path823"
       d="m 20.661693,169.64693 v -4.28585 h -5.168229 -5.168228 v -22.56373 -22.56373 h 22.563729 22.56373 v 4.28585 4.28585 h 5.042174 5.042174 v 22.56373 22.56373 H 43.099368 20.661693 Z M 62.763847,151.36905 V 131.57851 H 43.099368 23.434888 v 19.79054 19.79053 h 19.66448 19.664479 z m -21.217582,11.7886 -1.411905,-2.46058 1.482503,-0.0751 c 0.815377,-0.0413 2.155832,-0.0413 2.978785,0 l 1.496278,0.0751 -1.36476,2.39321 c -0.750621,1.31627 -1.455716,2.42353 -1.566879,2.46059 -0.111162,0.0371 -0.837472,-1.03989 -1.614022,-2.39322 z m -7.991512,-4.40199 c 0.419728,-1.56676 0.814664,-2.90025 0.877635,-2.9633 0.06297,-0.0631 1.083467,0.85432 2.26777,2.03862 l 2.153276,2.15328 -2.604072,0.68734 c -1.432239,0.37803 -2.796149,0.74254 -3.030912,0.81002 -0.373372,0.10733 -0.331244,-0.23414 0.336303,-2.72596 z m 16.643381,2.01046 -2.859528,-0.77517 2.156626,-2.15662 c 1.186144,-1.18614 2.221935,-2.09131 2.301758,-2.01149 0.07982,0.0798 0.427896,1.20918 0.773497,2.50968 0.345601,1.3005 0.689328,2.56309 0.763839,2.80574 0.16741,0.54518 0.310298,0.56214 -3.136192,-0.37214 z m -18.656183,-7.61291 c -1.295497,-0.74362 -2.466868,-1.46346 -2.603046,-1.59964 -0.162056,-0.16206 0.673486,-0.7761 2.418476,-1.77736 l 2.666073,-1.52976 v 3.13698 c 0,1.72534 -0.02836,3.13357 -0.06303,3.1294 -0.03467,-0.004 -1.122979,-0.616 -2.418476,-1.35962 z m 20.63333,-1.74219 v -3.15729 l 2.710169,1.52763 c 1.490593,0.8402 2.735193,1.54727 2.765781,1.57126 0.03059,0.024 -0.706832,0.47847 -1.638706,1.00996 -0.931877,0.53149 -2.176478,1.24521 -2.765782,1.58604 l -1.071462,0.6197 z M 33.59772,144.24991 c -0.433423,-1.63087 -0.770202,-2.97867 -0.748398,-2.99511 0.02181,-0.0165 1.373954,0.32498 3.004779,0.75874 l 2.965137,0.78863 -2.216739,2.20647 -2.216739,2.20647 z m 16.056474,0.81642 c -1.164013,-1.17009 -2.065635,-2.17582 -2.003601,-2.23495 0.06203,-0.0591 1.394169,-0.45162 2.960303,-0.87218 2.476058,-0.66492 2.831448,-0.70945 2.724343,-0.34142 -0.06774,0.23279 -0.425694,1.55774 -0.795441,2.94433 -0.369748,1.3866 -0.694083,2.54597 -0.720741,2.57638 -0.02666,0.0304 -1.000849,-0.90207 -2.164863,-2.07216 z m -8.114358,-5.41774 c 0.788412,-1.38518 1.495993,-2.51967 1.572399,-2.52109 0.07641,-0.001 0.635362,0.87664 1.242125,1.95125 0.606763,1.07461 1.26635,2.2091 1.465752,2.52109 l 0.36255,0.56724 H 43.14451 40.106356 Z m -20.878143,6.04801 v -16.89128 h 16.008903 c 8.804896,0 16.018344,-0.0851 16.029886,-0.18908 0.01155,-0.104 0.0399,-1.40868 0.06303,-2.89929 l 0.04204,-2.71021 -19.853561,4e-5 c -13.05348,2e-5 -19.860819,0.0864 -19.874751,0.25215 -0.01165,0.13865 -0.02119,8.93095 -0.02119,19.53842 0,10.60748 0.0095,19.39977 0.02119,19.53843 0.01311,0.15592 1.463933,0.25211 3.802821,0.25211 h 3.781631 z"
       style="fill:#fd6c6c;stroke-width:0.25210872"
       sodipodi:nodetypes="cccccccccccccccccccccccccccccccsccscccccsccscsscccccscccccccccccscccccsscccccsccscccccccscccscscscc" />
    <path
       inkscape:connector-curvature="0"
       id="path821"
       d="m 20.661693,169.64693 v -4.28585 h -5.168229 -5.168228 v -22.56373 -22.56373 h 22.563729 22.56373 v 4.28585 4.28585 h 5.042174 5.042174 v 22.56373 22.56373 H 43.099368 20.661693 Z M 62.763847,151.36905 V 131.57851 H 43.099368 23.434888 v 19.79054 19.79053 h 19.66448 19.664479 z m -21.224011,11.72046 -1.43348,-2.51849 h 3.038154 3.038152 l -0.36255,0.56724 c -0.199402,0.31199 -0.858989,1.44647 -1.465752,2.52109 -0.606763,1.07461 -1.165718,1.95267 -1.242125,1.95125 -0.07641,-0.002 -0.783987,-1.13591 -1.572399,-2.52109 z m -7.967845,-4.32897 c 0.417303,-1.56944 0.807367,-2.90513 0.86681,-2.96818 0.05944,-0.0631 1.076354,0.85362 2.259801,2.03707 l 2.151723,2.15172 -2.728572,0.70762 c -1.500714,0.38919 -2.859053,0.7566 -3.018532,0.81647 -0.176359,0.0662 0.0073,-1.00914 0.46877,-2.7447 z m 16.849297,2.02438 c -1.450003,-0.40623 -2.692786,-0.79502 -2.761735,-0.86397 -0.06895,-0.0689 0.801136,-1.05186 1.933525,-2.18425 1.132387,-1.13238 2.110384,-2.00732 2.173323,-1.94429 0.218896,0.2192 1.632941,5.78686 1.462662,5.75908 -0.09427,-0.0154 -1.357769,-0.36034 -2.807775,-0.76657 z m -18.918921,-7.69849 c -1.317268,-0.75889 -2.486965,-1.46828 -2.599326,-1.57641 -0.112362,-0.10813 0.945017,-0.84735 2.34973,-1.64271 1.404713,-0.79535 2.606504,-1.39362 2.670646,-1.32947 0.06414,0.0641 0.08453,1.42426 0.0453,3.0225 l -0.07132,2.90588 z m 20.672914,-1.57076 c 0,-1.67523 0.0681,-3.04587 0.151344,-3.04587 0.215442,0 5.142939,2.78074 5.142939,2.90232 0,0.0554 -0.822504,0.57457 -1.827788,1.15368 -1.005283,0.57912 -2.196497,1.27407 -2.647141,1.54433 l -0.819354,0.4914 z m -2.509217,-6.43741 c -1.170541,-1.17665 -2.077505,-2.18453 -2.015471,-2.23972 0.143982,-0.1281 5.10955,-1.42779 5.454995,-1.42779 0.202677,0 -0.38527,2.63005 -1.254927,5.61361 -0.03099,0.10631 -1.014054,-0.76944 -2.184597,-1.9461 z m -16.016813,-0.7756 c -0.386971,-1.45996 -0.635296,-2.72277 -0.551832,-2.80623 0.134895,-0.1349 5.169131,1.10919 5.450552,1.34697 0.129438,0.10936 -3.801967,4.11375 -4.038775,4.11375 -0.086,0 -0.472973,-1.19452 -0.859945,-2.65449 z m 6.676921,-2.28508 c 0,-0.24081 2.634662,-4.88137 2.773196,-4.88458 0.06933,-0.002 0.77112,1.13041 1.559532,2.51559 l 1.43348,2.51849 h -2.883105 c -1.585706,0 -2.883103,-0.0673 -2.883103,-0.1495 z m -19.664479,3.67902 v -16.89128 h 16.008903 c 8.804896,0 16.018344,-0.0851 16.029886,-0.18908 0.01155,-0.104 0.0399,-1.40868 0.06303,-2.89929 l 0.04204,-2.71021 -19.853561,4e-5 c -13.05348,2e-5 -19.860819,0.0864 -19.874751,0.25215 -0.01165,0.13865 -0.02119,8.93095 -0.02119,19.53842 0,10.60748 0.0095,19.39977 0.02119,19.53843 0.01311,0.15592 1.463933,0.25211 3.802821,0.25211 h 3.781631 z"
       style="fill:#fc4343;stroke-width:0.25210872"
       sodipodi:nodetypes="ccccccccccccccccccccccccccccccccccccccsccsccccscccccccssscccsccscccccscscccssccscccscscscc" />
    <path
       inkscape:connector-curvature="0"
       id="path819"
       d="m 20.661693,169.64693 v -4.28585 h -5.168229 -5.168228 v -22.56373 -22.56373 h 22.563729 22.56373 v 4.28585 4.28585 h 5.042174 5.042174 v 22.56373 22.56373 H 43.099368 20.661693 Z m 42.292763,-18.21485 0.06456,-19.85357 H 43.22695 23.434888 v 19.91813 19.91812 l 19.727507,-0.0646 19.727506,-0.0646 z M 41.649743,163.2361 c -0.727964,-1.30134 -1.323571,-2.43335 -1.323571,-2.51558 0,-0.0822 1.297397,-0.1495 2.883103,-0.1495 h 2.883105 l -1.43348,2.51849 c -0.788412,1.38518 -1.490202,2.51719 -1.559532,2.51558 -0.06933,-0.002 -0.721661,-1.06765 -1.449625,-2.36899 z m 8.808554,-2.4766 -2.85147,-0.77757 2.093748,-2.10468 c 1.151562,-1.15757 2.123806,-2.01451 2.160544,-1.9043 0.135669,0.40701 1.515927,5.60576 1.482888,5.58531 -0.01883,-0.0117 -1.317399,-0.3711 -2.88571,-0.79876 z m -17.443278,0.39973 c 0,-0.26037 1.332197,-5.23775 1.435901,-5.36484 0.107112,-0.13127 4.110491,3.80492 4.110491,4.04151 0,0.15863 -4.693596,1.49144 -5.252225,1.49144 -0.161792,0 -0.294167,-0.0756 -0.294167,-0.16811 z m -1.556873,-8.14116 c -1.341589,-0.77072 -2.501091,-1.46315 -2.576669,-1.53873 -0.07558,-0.0756 1.004554,-0.79172 2.400295,-1.59143 1.395741,-0.79971 2.587337,-1.40438 2.64799,-1.34373 0.06065,0.0606 0.07818,1.40739 0.03896,2.99275 l -0.07132,2.88247 z m 20.717135,-1.53735 c 0,-1.65601 0.05553,-3.01092 0.123392,-3.01092 0.176484,0 5.170891,2.80266 5.170891,2.90169 0,0.0453 -1.191213,0.76586 -2.647141,1.60126 l -2.647142,1.51889 z m -18.495985,-7.19829 c -0.381244,-1.47109 -0.64084,-2.72704 -0.57688,-2.791 0.109581,-0.10958 5.204239,1.15832 5.445555,1.35522 0.126808,0.10348 -3.800734,4.1105 -4.028959,4.1105 -0.0806,0 -0.458471,-1.20362 -0.839716,-2.67472 z m 15.856369,0.66542 c -1.098634,-1.10512 -1.946839,-2.04908 -1.884901,-2.09769 0.271232,-0.21286 5.353186,-1.4511 5.471206,-1.33308 0.166507,0.16651 -1.222082,5.44007 -1.432429,5.44007 -0.086,0 -1.055241,-0.90419 -2.153876,-2.0093 z m -9.209493,-2.92586 c 0,-0.13854 1.66786,-3.10531 2.449995,-4.35802 0.366142,-0.58644 0.392213,-0.55979 1.726498,1.76476 0.745108,1.2981 1.358153,2.44527 1.36232,2.54927 0.0042,0.10399 -1.24036,0.18908 -2.765617,0.18908 -1.525258,0 -2.773196,-0.0653 -2.773196,-0.14509 z m -19.664479,3.67461 v -16.89128 h 16.008903 c 8.804896,0 16.018344,-0.0851 16.029886,-0.18908 0.01155,-0.104 0.0399,-1.40868 0.06303,-2.89929 l 0.04204,-2.71021 -19.853561,4e-5 c -13.05348,2e-5 -19.860819,0.0864 -19.874751,0.25215 -0.01165,0.13865 -0.02119,8.93095 -0.02119,19.53842 0,10.60748 0.0095,19.39977 0.02119,19.53843 0.01311,0.15592 1.463933,0.25211 3.802821,0.25211 h 3.781631 z"
       style="fill:#fc2525;stroke-width:0.25210872"
       sodipodi:nodetypes="ccccccccccccccccccccccccccssscccsccccccscsssccsccccsssccscccsccccscscccssccscccscscscc" />
    <path
       inkscape:connector-curvature="0"
       id="path817"
       d="m 20.661693,169.64693 v -4.28585 h -5.168229 -5.168228 v -22.56373 -22.56373 h 22.563729 22.56373 v 4.28585 4.28585 h 5.042174 5.042174 v 22.56373 22.56373 H 43.099368 20.661693 Z m 42.292763,-18.21485 0.06456,-19.85357 H 43.100896 23.18278 v 19.74852 c 0,10.86169 0.07632,19.82484 0.169599,19.91812 0.09328,0.0933 9.027381,0.14054 19.85356,0.10504 l 19.683962,-0.0646 z m -21.339338,11.66201 c -0.708919,-1.24685 -1.288946,-2.32461 -1.288946,-2.39503 0,-0.0704 1.247938,-0.12804 2.773196,-0.12804 1.525257,0 2.773196,0.0576 2.773196,0.12804 0,0.29891 -2.595389,4.66202 -2.773196,4.66202 -0.107419,0 -0.77533,-1.02015 -1.48425,-2.26699 z m -8.500222,-2.33399 c 0.08728,-0.31199 0.39806,-1.5032 0.690631,-2.64714 0.292571,-1.14395 0.605765,-2.0799 0.695987,-2.0799 0.09022,0 1.047508,0.88868 2.127302,1.97484 l 1.963262,1.97485 -2.599448,0.67423 c -1.429696,0.37082 -2.697766,0.67335 -2.817933,0.67229 -0.120167,-0.001 -0.147077,-0.25719 -0.0598,-0.56917 z m 16.957448,-0.12182 -2.4811,-0.64068 2.097101,-2.10805 2.097101,-2.10805 0.696899,2.58384 c 0.383293,1.42111 0.697905,2.66893 0.699135,2.77292 0.0032,0.27083 -0.334231,0.21657 -3.109136,-0.49998 z m -8.481826,-2.39243 c -3.170228,-0.64919 -5.290848,-3.20458 -5.452303,-6.57012 -0.07161,-1.49264 -0.0014,-1.9063 0.522091,-3.07261 0.748098,-1.66698 1.86256,-2.77723 3.570708,-3.55724 1.137582,-0.51945 1.540639,-0.58752 3.044165,-0.51411 3.958338,0.19326 6.694204,3.12909 6.635536,7.12048 -0.06181,4.20524 -4.152521,7.44706 -8.320197,6.5936 z m -10.415508,-5.4099 c -1.358654,-0.77024 -2.436419,-1.42807 -2.395032,-1.46183 0.206339,-0.16834 5.045952,-2.90432 5.137384,-2.90432 0.05835,0 0.106092,1.30466 0.106092,2.89925 0,1.59459 -0.08509,2.89207 -0.189081,2.88329 -0.103995,-0.009 -1.300708,-0.64615 -2.659363,-1.41639 z m 21.000271,-1.4669 c 0,-1.59459 0.04774,-2.89925 0.106093,-2.89925 0.09029,0 4.926489,2.73308 5.13501,2.90194 0.0884,0.0716 -4.875666,2.89656 -5.089868,2.89656 -0.08318,0 -0.151235,-1.30466 -0.151235,-2.89925 z m -18.47508,-7.09318 c -0.385778,-1.47445 -0.658097,-2.72413 -0.605153,-2.77707 0.101701,-0.1017 4.935195,1.13505 5.303496,1.35702 0.196042,0.11814 -3.558084,4.10164 -3.864958,4.10109 -0.07258,-1.3e-4 -0.447606,-1.2066 -0.833385,-2.68104 z m 16.080048,0.66441 c -1.094495,-1.10096 -1.939314,-2.04652 -1.877376,-2.10126 0.189172,-0.16718 5.121016,-1.42002 5.216008,-1.32503 0.08071,0.0807 -1.160474,5.23985 -1.292332,5.37171 -0.03097,0.031 -0.951806,-0.84447 -2.0463,-1.94542 z m -9.412058,-2.9753 c 0.304502,-0.7323 2.599745,-4.58796 2.731177,-4.58796 0.131432,0 2.426675,3.85566 2.731177,4.58796 0.04622,0.11116 -1.182809,0.2021 -2.731177,0.2021 -1.548369,0 -2.777399,-0.0909 -2.731177,-0.2021 z m -19.706498,3.73162 v -16.89128 h 16.008903 c 8.804896,0 16.018344,-0.0851 16.029886,-0.18908 0.01155,-0.104 0.0399,-1.40868 0.06303,-2.89929 l 0.04204,-2.71021 -19.853561,4e-5 c -13.05348,2e-5 -19.860819,0.0864 -19.874751,0.25215 -0.01165,0.13865 -0.02119,8.93095 -0.02119,19.53842 0,10.60748 0.0095,19.39977 0.02119,19.53843 0.01311,0.15592 1.463933,0.25211 3.802821,0.25211 h 3.781631 z"
       style="fill:#fa0202;stroke-width:0.25210872"
       sodipodi:nodetypes="cccccccccccccccccccccscccccsssscccscccccscccscscccscscscsscssscsscccccccccccscscccscccscscscc" />
  </g>
</svg>
