<?xml version="1.0" encoding="UTF-8" standalone="no"?>
<svg
   xmlns:dc="http://purl.org/dc/elements/1.1/"
   xmlns:cc="http://creativecommons.org/ns#"
   xmlns:rdf="http://www.w3.org/1999/02/22-rdf-syntax-ns#"
   xmlns:svg="http://www.w3.org/2000/svg"
   xmlns="http://www.w3.org/2000/svg"
   xmlns:sodipodi="http://sodipodi.sourceforge.net/DTD/sodipodi-0.dtd"
   xmlns:inkscape="http://www.inkscape.org/namespaces/inkscape"
   width="64.50386mm"
   height="61.136909mm"
   viewBox="0 0 64.503861 61.13691"
   version="1.1"
   id="svg169"
   inkscape:version="0.92.5 (2060ec1f9f, 2020-04-08)"
   sodipodi:docname="eraser.svg">
  <defs
     id="defs163">
    <clipPath
       clipPathUnits="userSpaceOnUse"
       id="clipEmfPath1-9">
      <path
         d="M 0,0 H 244.88292 V 231.543 H 0 Z"
         id="path73"
         inkscape:connector-curvature="0" />
    </clipPath>
  </defs>
  <sodipodi:namedview
     id="base"
     pagecolor="#ffffff"
     bordercolor="#666666"
     borderopacity="1.0"
     inkscape:pageopacity="0.0"
     inkscape:pageshadow="2"
     inkscape:zoom="0.7"
     inkscape:cx="304.96246"
     inkscape:cy="121.75094"
     inkscape:document-units="mm"
     inkscape:current-layer="layer1"
     inkscape:document-rotation="0"
     showgrid="false"
     inkscape:window-width="1267"
     inkscape:window-height="729"
     inkscape:window-x="576"
     inkscape:window-y="179"
     inkscape:window-maximized="0" />
  <metadata
     id="metadata166">
    <rdf:RDF>
      <cc:Work
         rdf:about="">
        <dc:format>image/svg+xml</dc:format>
        <dc:type
           rdf:resource="http://purl.org/dc/dcmitype/StillImage" />
        <dc:title />
      </cc:Work>
    </rdf:RDF>
  </metadata>
  <g
     inkscape:label="Layer 1"
     inkscape:groupmode="layer"
     id="layer1"
     transform="translate(-23.362274,-121.44073)">
    <g
       id="g866">
      <path
         style="fill:#ccebd0;stroke-width:0.25210872"
         d="m 41.203618,178.41784 -4.17579,-4.15979 h 24.40743 24.40743 l 0.76931,0.81935 c 1.00852,1.07412 1.17165,1.52065 1.24253,3.40117 0.0491,1.30242 -0.0441,1.72575 -0.54105,2.45806 -0.3302,0.48658 -0.51869,0.88538 -0.41887,0.88623 0.0998,7.6e-4 -0.14347,0.17103 -0.54064,0.37817 -0.62296,0.3249 -3.48559,0.37661 -20.84834,0.37661 h -20.12623 z m -12.05183,-13.67917 c -3.64951,-3.65234 -5.55523,-5.74312 -5.70235,-6.25607 -0.15201,-0.53005 -0.10639,-1.11926 0.14625,-1.88853 0.31752,-0.96682 2.62453,-3.38079 17.04939,-17.83979 9.1752,-9.19692 16.9658,-16.83681 17.31245,-16.97753 1.15648,-0.46947 2.70955,-0.43226 3.25729,0.078 0.2768,0.25787 0.55641,0.46885 0.62136,0.46885 0.065,0 3.9547,3.80054 8.64389,8.44565 4.68919,4.6451 8.43322,8.44564 8.32008,8.44564 -0.11314,0 -0.0199,0.18585 0.20729,0.41301 0.52085,0.52085 0.46953,2.79249 -0.0775,3.43165 -0.20768,0.24265 -0.29952,0.44119 -0.20408,0.44119 0.0954,0 -0.22354,0.39707 -0.70885,0.88238 -0.48531,0.48531 -1.01852,0.88238 -1.18491,0.88238 -0.16639,0 -0.23512,0.0674 -0.15273,0.1498 0.19552,0.19552 -2.48446,2.8755 -2.8755,2.8755 -0.16478,0 -0.22937,0.0702 -0.14354,0.15607 0.20257,0.20257 -0.44723,0.85237 -0.85237,0.85237 -0.17167,0 -0.2419,0.0702 -0.15606,0.15607 0.20257,0.20256 -0.44723,0.85236 -0.85237,0.85236 -0.17167,0 -0.2419,0.0702 -0.15607,0.15607 0.20257,0.20257 -0.44722,0.85237 -0.85237,0.85237 -0.17167,0 -0.2419,0.0702 -0.15606,0.15607 0.20257,0.20256 -0.44723,0.85236 -0.85237,0.85236 -0.17167,0 -0.2419,0.0702 -0.15607,0.15607 0.20257,0.20257 -0.44722,0.85237 -0.85237,0.85237 -0.17167,0 -0.2419,0.0702 -0.15606,0.15606 0.20257,0.20257 -0.44723,0.85237 -0.85237,0.85237 -0.17167,0 -0.2419,0.0702 -0.15607,0.15607 0.19534,0.19534 -0.44077,0.85237 -0.82523,0.85237 -0.15674,0 -0.21488,0.11345 -0.12918,0.25211 0.0857,0.13866 -0.0277,0.2521 -0.25211,0.2521 -0.22435,0 -0.3378,0.11345 -0.25211,0.25211 0.0857,0.13866 -0.0278,0.25211 -0.25211,0.25211 -0.22435,0 -0.3378,0.11345 -0.2521,0.25211 0.0857,0.13866 -0.0278,0.25211 -0.25211,0.25211 -0.22436,0 -0.33781,0.11345 -0.25211,0.25211 0.0857,0.13866 -0.0277,0.25211 -0.25211,0.25211 -0.22436,0 -0.33781,0.11345 -0.25211,0.25211 0.0857,0.13865 -0.0277,0.2521 -0.25211,0.2521 -0.22435,0 -0.3378,0.11345 -0.25211,0.25211 0.0857,0.13866 -0.0277,0.25211 -0.2521,0.25211 -0.22436,0 -0.33781,0.11345 -0.25211,0.25211 0.0857,0.13866 -0.0211,0.25211 -0.23723,0.25211 -0.21618,0 -0.39305,0.10419 -0.39305,0.23154 0,0.35521 -1.93575,2.28955 -2.29123,2.28955 -0.17264,0 -0.24652,0.0674 -0.16419,0.1497 0.0823,0.0823 -1.77306,2.06769 -4.12311,4.4119 l -4.27281,4.2622 h -8.75759 -8.75759 z m 32.5191,-7.27211 c -0.0838,-0.0838 -0.30122,-0.0927 -0.48321,-0.0199 -0.20112,0.0805 -0.14138,0.14022 0.15231,0.15231 0.26577,0.0109 0.41467,-0.0486 0.3309,-0.13241 z m -12.10499,-15.54983 c 0.51785,-0.22618 0.71719,-0.50542 0.75893,-1.06308 0.0311,-0.41598 0.2864,-1.20575 0.56725,-1.75504 0.54479,-1.06553 0.72186,-3.6653 0.24965,-3.6653 -0.1799,0 -0.1799,-0.1515 0,-0.48765 0.43177,-0.80677 0.32524,-1.24671 -0.26455,-1.09248 -0.38735,0.10129 -0.43931,0.19072 -0.19763,0.34009 0.23677,0.14632 0.14438,0.27243 -0.33236,0.45369 -0.36314,0.13806 -0.74554,0.389 -0.84976,0.55764 -0.11653,0.18855 -0.0841,0.24149 0.0841,0.13749 0.1505,-0.093 0.3449,-0.0538 0.43199,0.0871 0.0904,0.14619 -0.0998,0.25622 -0.44285,0.25622 -0.33066,0 -0.86765,0.28362 -1.19331,0.63027 -0.6345,0.6754 -1.00844,0.80412 -1.00844,0.34715 0,-0.32697 1.98064,-3.15284 3.24724,-4.633 0.47462,-0.55464 0.13668,-0.27102 -0.75096,0.63027 -0.88764,0.90129 -2.18114,2.36355 -2.87444,3.24947 -1.23247,1.57489 -3.90768,5.76354 -3.90768,6.11836 0,0.52092 5.24138,0.431 6.48278,-0.11121 z m 2.65616,-5.31514 c 0,-0.34887 0.15599,-0.69416 0.34665,-0.76733 0.19066,-0.0732 0.34665,-0.36348 0.34665,-0.64515 0,-0.28167 0.12559,-0.51213 0.27908,-0.51213 0.1535,0 0.21739,-0.16078 0.14197,-0.3573 -0.0754,-0.19651 0.0259,-0.41985 0.22514,-0.4963 0.19923,-0.0765 0.36225,-0.32478 0.36225,-0.55183 0,-0.22705 0.2847,-0.63676 0.63267,-0.91048 0.34797,-0.27371 0.57565,-0.58992 0.50596,-0.70269 -0.0697,-0.11276 0.15612,-0.27601 0.50181,-0.36278 0.3457,-0.0868 0.62853,-0.32576 0.62853,-0.53111 0,-0.20534 0.12015,-0.37336 0.26699,-0.37336 0.14684,0 0.18604,0.13098 0.0871,0.29107 -0.10893,0.17624 -0.0694,0.22278 0.10017,0.11798 0.15403,-0.0952 0.21614,-0.33963 0.13803,-0.54317 -0.0955,-0.24877 0.022,-0.37009 0.35831,-0.37009 0.27517,0 0.64776,-0.17766 0.82796,-0.39479 0.1802,-0.21713 0.64789,-0.56039 1.0393,-0.7628 0.39142,-0.20241 0.71167,-0.52704 0.71167,-0.72139 0,-0.19436 0.63454,-0.65357 1.4101,-1.02047 0.77556,-0.3669 1.35007,-0.72713 1.27669,-0.80052 -0.25572,-0.25571 -2.66369,0.21699 -2.96699,0.58245 -0.24602,0.29644 -0.346,0.30445 -0.51305,0.0411 -0.15433,-0.2433 -0.20846,-0.21407 -0.21133,0.11412 -0.002,0.24265 -0.17403,0.44119 -0.38202,0.44119 -0.20799,0 -0.37817,0.11129 -0.37817,0.2473 0,0.13602 -0.28283,0.3183 -0.62853,0.40506 -0.34569,0.0868 -0.57094,0.25093 -0.50055,0.36482 0.0704,0.11388 -0.12894,0.28497 -0.44294,0.3802 -0.31399,0.0952 -0.87173,0.4721 -1.2394,0.8375 -0.36768,0.3654 -0.82147,0.79279 -1.00844,0.94975 -0.75008,0.6297 -1.97864,2.08266 -1.97864,2.34005 0,0.1506 -0.11345,0.27382 -0.2521,0.27382 -0.13867,0 -0.24953,0.25526 -0.24637,0.56724 0.005,0.47278 0.0772,0.42218 0.43471,-0.30385 0.23594,-0.47911 0.88292,-1.27325 1.43774,-1.76476 0.55482,-0.49152 1.27195,-1.14892 1.59361,-1.46091 0.32167,-0.31198 0.64981,-0.56724 0.7292,-0.56724 0.0794,0 0.53993,-0.34734 1.02345,-0.77187 0.48351,-0.42453 0.95228,-0.69839 1.04171,-0.60857 0.0894,0.0898 -0.12101,0.38039 -0.46766,0.64572 -0.94471,0.72311 -0.99653,0.77268 -2.90612,2.78006 -2.59565,2.72858 -2.89238,3.21977 -2.89238,4.78791 0,0.98894 0.0735,1.26154 0.28362,1.05145 0.15599,-0.15599 0.28362,-0.56906 0.28362,-0.91792 z m 0.18908,-6.33651 c 0.32566,-0.34665 0.53539,-0.63027 0.46606,-0.63027 -0.0693,0 -0.3925,0.28362 -0.71817,0.63027 -0.32566,0.34665 -0.53538,0.63027 -0.46605,0.63027 0.0693,0 0.3925,-0.28362 0.71816,-0.63027 z"
         id="path847"
         inkscape:connector-curvature="0" />
      <path
         style="fill:#9edaa6;stroke-width:0.25210872"
         d="m 41.203618,178.41784 -4.17579,-4.15979 h 24.40743 24.40743 l 0.76931,0.81935 c 1.00852,1.07412 1.17165,1.52065 1.24253,3.40117 0.0491,1.30242 -0.0441,1.72575 -0.54105,2.45806 -0.3302,0.48658 -0.51869,0.88538 -0.41887,0.88623 0.0998,7.6e-4 -0.14347,0.17103 -0.54064,0.37817 -0.62296,0.3249 -3.48559,0.37661 -20.84834,0.37661 h -20.12623 z m -12.05183,-13.67917 c -3.64951,-3.65234 -5.55523,-5.74312 -5.70235,-6.25607 -0.15201,-0.53005 -0.10639,-1.11926 0.14625,-1.88853 0.31752,-0.96682 2.62453,-3.38079 17.04939,-17.83979 9.1752,-9.19692 16.9658,-16.83681 17.31245,-16.97753 1.15648,-0.46947 2.70955,-0.43226 3.25729,0.078 0.2768,0.25787 0.55641,0.46885 0.62136,0.46885 0.065,0 3.9547,3.80054 8.64389,8.44565 4.68919,4.6451 8.43322,8.44564 8.32008,8.44564 -0.11314,0 -0.0199,0.18585 0.20729,0.41301 0.52085,0.52085 0.46953,2.79249 -0.0775,3.43165 -0.20768,0.24265 -0.29952,0.44119 -0.20408,0.44119 0.0954,0 -0.22354,0.39707 -0.70885,0.88238 -0.48531,0.48531 -1.01852,0.88238 -1.18491,0.88238 -0.16639,0 -0.23512,0.0674 -0.15273,0.1498 0.19552,0.19552 -2.48446,2.8755 -2.8755,2.8755 -0.16478,0 -0.22937,0.0702 -0.14354,0.15607 0.20257,0.20257 -0.44723,0.85237 -0.85237,0.85237 -0.17167,0 -0.2419,0.0702 -0.15606,0.15607 0.20257,0.20256 -0.44723,0.85236 -0.85237,0.85236 -0.17167,0 -0.2419,0.0702 -0.15607,0.15607 0.20257,0.20257 -0.44722,0.85237 -0.85237,0.85237 -0.17167,0 -0.2419,0.0702 -0.15606,0.15607 0.20257,0.20256 -0.44723,0.85236 -0.85237,0.85236 -0.17167,0 -0.2419,0.0702 -0.15607,0.15607 0.20257,0.20257 -0.44722,0.85237 -0.85237,0.85237 -0.17167,0 -0.2419,0.0702 -0.15606,0.15606 0.20257,0.20257 -0.44723,0.85237 -0.85237,0.85237 -0.17167,0 -0.2419,0.0702 -0.15607,0.15607 0.19534,0.19534 -0.44077,0.85237 -0.82523,0.85237 -0.15674,0 -0.21488,0.11345 -0.12918,0.25211 0.0857,0.13866 -0.0277,0.2521 -0.25211,0.2521 -0.22435,0 -0.3378,0.11345 -0.25211,0.25211 0.0857,0.13866 -0.0278,0.25211 -0.25211,0.25211 -0.22435,0 -0.3378,0.11345 -0.2521,0.25211 0.0857,0.13866 -0.0278,0.25211 -0.25211,0.25211 -0.22436,0 -0.33781,0.11345 -0.25211,0.25211 0.0857,0.13866 -0.0277,0.25211 -0.25211,0.25211 -0.22436,0 -0.33781,0.11345 -0.25211,0.25211 0.0857,0.13865 -0.0277,0.2521 -0.25211,0.2521 -0.22435,0 -0.3378,0.11345 -0.25211,0.25211 0.0857,0.13866 -0.0277,0.25211 -0.2521,0.25211 -0.22436,0 -0.33781,0.11345 -0.25211,0.25211 0.0857,0.13866 -0.0211,0.25211 -0.23723,0.25211 -0.21618,0 -0.39305,0.10419 -0.39305,0.23154 0,0.35521 -1.93575,2.28955 -2.29123,2.28955 -0.17264,0 -0.24652,0.0674 -0.16419,0.1497 0.0823,0.0823 -1.77306,2.06769 -4.12311,4.4119 l -4.27281,4.2622 h -8.75759 -8.75759 z m 32.5191,-7.27211 c -0.0838,-0.0838 -0.30122,-0.0927 -0.48321,-0.0199 -0.20112,0.0805 -0.14138,0.14022 0.15231,0.15231 0.26577,0.0109 0.41467,-0.0486 0.3309,-0.13241 z m -11.96992,-15.49012 c 0.53664,-0.24874 0.69368,-0.49735 0.69496,-1.10023 0.001,-0.42839 0.21007,-1.09495 0.46478,-1.48125 0.56511,-0.85704 0.76321,-3.96165 0.25279,-3.96165 -0.24566,0 -0.24862,-0.0672 -0.0133,-0.30253 0.16639,-0.16639 0.30253,-0.55284 0.30253,-0.85878 0,-0.43965 -0.11016,-0.52744 -0.52553,-0.41882 -0.35189,0.092 -0.42629,0.19876 -0.2252,0.32305 0.21558,0.13323 0.22159,0.23429 0.0213,0.35806 -0.15346,0.0949 -0.36976,0.11637 -0.48067,0.0478 -0.11091,-0.0685 -0.34618,0.10681 -0.52283,0.38967 -0.17728,0.28388 -0.19989,0.43933 -0.0505,0.34698 0.1489,-0.092 0.27072,-0.0472 0.27072,0.0997 0,0.14684 -0.20712,0.26699 -0.46027,0.26699 -0.25315,0 -0.72672,0.28362 -1.05238,0.63027 -0.62487,0.66515 -1.00844,0.80489 -1.00844,0.3674 0,-0.29344 1.57586,-2.50399 3.09974,-4.34821 0.54882,-0.66418 0.94251,-1.26295 0.87487,-1.33059 -0.14631,-0.14631 -3.05423,3.13683 -4.23668,4.78336 -0.45751,0.63707 -0.91961,1.15831 -1.02688,1.15831 -0.10728,0 -0.88257,1.16123 -1.72288,2.58051 -1.34636,2.27401 -1.47533,2.60335 -1.08579,2.77275 0.67152,0.29201 5.64152,0.0425 6.42963,-0.32278 z m 2.58013,-5.26442 c 0.0885,-0.4028 0.33586,-0.79953 0.54977,-0.88161 0.23507,-0.0902 0.32697,-0.31067 0.23232,-0.55731 -0.0927,-0.24168 0.0251,-0.54594 0.28898,-0.74619 0.27001,-0.20489 0.3214,-0.34127 0.13043,-0.34613 -0.19042,-0.005 -0.11195,-0.2112 0.19828,-0.52143 0.28238,-0.28238 0.4509,-0.61455 0.3745,-0.73817 -0.0764,-0.12362 0.0927,-0.29826 0.37569,-0.38809 0.28303,-0.0898 0.68772,-0.42755 0.89931,-0.75048 0.21159,-0.32293 0.66237,-0.65684 1.00172,-0.74201 0.35951,-0.0902 0.617,-0.33832 0.617,-0.59449 0,-0.24179 0.20544,-0.55162 0.45654,-0.68849 1.34115,-0.73108 2.31666,-1.4699 2.31666,-1.75457 0,-0.34072 3.00164,-1.88395 3.72992,-1.91767 0.27944,-0.0129 0.31589,-0.0656 0.10415,-0.15059 -0.49918,-0.20028 -4.60708,0.44377 -4.45013,0.69771 0.0759,0.12283 -0.038,0.15577 -0.25323,0.0732 -0.24271,-0.0931 -0.39126,-0.0114 -0.39126,0.21529 0,0.20099 -0.39707,0.57928 -0.88238,0.84063 -0.48531,0.26136 -0.88238,0.54908 -0.88238,0.63939 0,0.0903 -0.34035,0.30517 -0.75633,0.47747 -0.41597,0.17231 -0.75632,0.46018 -0.75632,0.63973 0,0.17954 -0.34035,0.4771 -0.75633,0.66123 -0.41598,0.18413 -0.75632,0.45809 -0.75632,0.6088 0,0.15071 -0.27975,0.42374 -0.62167,0.60672 -0.34192,0.18299 -0.57274,0.41188 -0.51294,0.50864 0.0598,0.0968 -0.11424,0.41527 -0.38676,0.70779 -0.5435,0.58337 -0.67439,1.81348 -0.19297,1.81348 0.2353,0 0.2353,0.0672 0,0.30253 -0.35216,0.35216 -0.41865,3.07641 -0.0698,2.86082 0.12799,-0.0791 0.3051,-0.47339 0.39357,-0.8762 z m -0.37417,-2.92283 c 0,-0.41756 2.00135,-2.49624 3.7571,-3.90227 0.60602,-0.48531 1.24842,-1.0242 1.42756,-1.19752 0.17914,-0.17332 0.40977,-0.31514 0.51251,-0.31514 0.10274,0 -0.99529,1.19438 -2.44005,2.65417 -1.44477,1.45979 -2.66467,2.76445 -2.71089,2.89925 -0.13338,0.38898 -0.54623,0.28431 -0.54623,-0.13849 z m 1.38659,-4.09735 c 0.55464,-0.43109 1.67229,-1.13079 2.48366,-1.5549 0.81138,-0.42411 1.31953,-0.77111 1.12922,-0.77111 -0.56665,0 -4.06681,2.15872 -4.74737,2.92794 -0.6673,0.75423 -0.48788,0.65904 1.13449,-0.60193 z"
         id="path845"
         inkscape:connector-curvature="0" />
      <path
         style="fill:#78cc84;stroke-width:0.25210872"
         d="m 41.203618,178.41784 -4.17579,-4.15979 h 24.40743 24.40743 l 0.76931,0.81935 c 1.00852,1.07412 1.17165,1.52065 1.24253,3.40117 0.0491,1.30242 -0.0441,1.72575 -0.54105,2.45806 -0.3302,0.48658 -0.51869,0.88538 -0.41887,0.88623 0.0998,7.6e-4 -0.14347,0.17103 -0.54064,0.37817 -0.62296,0.3249 -3.48559,0.37661 -20.84834,0.37661 h -20.12623 z m -12.05183,-13.67917 c -3.64951,-3.65234 -5.55523,-5.74312 -5.70235,-6.25607 -0.15201,-0.53005 -0.10639,-1.11926 0.14625,-1.88853 0.31752,-0.96682 2.62453,-3.38079 17.04939,-17.83979 9.1752,-9.19692 16.9658,-16.83681 17.31245,-16.97753 1.15648,-0.46947 2.70955,-0.43226 3.25729,0.078 0.2768,0.25787 0.55641,0.46885 0.62136,0.46885 0.065,0 3.9547,3.80054 8.64389,8.44565 4.68919,4.6451 8.43322,8.44564 8.32008,8.44564 -0.11314,0 -0.0199,0.18585 0.20729,0.41301 0.52085,0.52085 0.46953,2.79249 -0.0775,3.43165 -0.20768,0.24265 -0.29952,0.44119 -0.20408,0.44119 0.0954,0 -0.22354,0.39707 -0.70885,0.88238 -0.48531,0.48531 -1.01852,0.88238 -1.18491,0.88238 -0.16639,0 -0.23512,0.0674 -0.15273,0.1498 0.19552,0.19552 -2.48446,2.8755 -2.8755,2.8755 -0.16478,0 -0.22937,0.0702 -0.14354,0.15607 0.20257,0.20257 -0.44723,0.85237 -0.85237,0.85237 -0.17167,0 -0.2419,0.0702 -0.15606,0.15607 0.20257,0.20256 -0.44723,0.85236 -0.85237,0.85236 -0.17167,0 -0.2419,0.0702 -0.15607,0.15607 0.20257,0.20257 -0.44722,0.85237 -0.85237,0.85237 -0.17167,0 -0.2419,0.0702 -0.15606,0.15607 0.20257,0.20256 -0.44723,0.85236 -0.85237,0.85236 -0.17167,0 -0.2419,0.0702 -0.15607,0.15607 0.20257,0.20257 -0.44722,0.85237 -0.85237,0.85237 -0.17167,0 -0.2419,0.0702 -0.15606,0.15606 0.20257,0.20257 -0.44723,0.85237 -0.85237,0.85237 -0.17167,0 -0.2419,0.0702 -0.15607,0.15607 0.19534,0.19534 -0.44077,0.85237 -0.82523,0.85237 -0.15674,0 -0.21488,0.11345 -0.12918,0.25211 0.0857,0.13866 -0.0277,0.2521 -0.25211,0.2521 -0.22435,0 -0.3378,0.11345 -0.25211,0.25211 0.0857,0.13866 -0.0278,0.25211 -0.25211,0.25211 -0.22435,0 -0.3378,0.11345 -0.2521,0.25211 0.0857,0.13866 -0.0278,0.25211 -0.25211,0.25211 -0.22436,0 -0.33781,0.11345 -0.25211,0.25211 0.0857,0.13866 -0.0277,0.25211 -0.25211,0.25211 -0.22436,0 -0.33781,0.11345 -0.25211,0.25211 0.0857,0.13865 -0.0277,0.2521 -0.25211,0.2521 -0.22435,0 -0.3378,0.11345 -0.25211,0.25211 0.0857,0.13866 -0.0277,0.25211 -0.2521,0.25211 -0.22436,0 -0.33781,0.11345 -0.25211,0.25211 0.0857,0.13866 -0.0211,0.25211 -0.23723,0.25211 -0.21618,0 -0.39305,0.10419 -0.39305,0.23154 0,0.35521 -1.93575,2.28955 -2.29123,2.28955 -0.17264,0 -0.24652,0.0674 -0.16419,0.1497 0.0823,0.0823 -1.77306,2.06769 -4.12311,4.4119 l -4.27281,4.2622 h -8.75759 -8.75759 z m 32.5191,-7.27211 c -0.0838,-0.0838 -0.30122,-0.0927 -0.48321,-0.0199 -0.20112,0.0805 -0.14138,0.14022 0.15231,0.15231 0.26577,0.0109 0.41467,-0.0486 0.3309,-0.13241 z m -11.84386,-15.49049 c 0.34204,-0.21788 0.56697,-0.6125 0.56654,-0.99399 -7.5e-4,-0.59876 0.92913,-2.74661 1.31449,-3.03652 0.0986,-0.0742 0.35557,-0.52798 0.57101,-1.00843 0.21544,-0.48045 0.49402,-1.04372 0.61907,-1.25171 0.12505,-0.20799 0.4123,-0.8036 0.63834,-1.32357 0.22603,-0.51998 0.53299,-0.94541 0.68212,-0.94541 0.17449,0 0.15926,-0.13482 -0.0427,-0.37816 -0.2544,-0.30654 -0.2447,-0.37817 0.0512,-0.37817 0.2008,0 0.64012,-0.2944 0.97628,-0.65422 0.33615,-0.35983 0.92688,-0.81845 1.31273,-1.01918 0.38585,-0.20072 0.6447,-0.45691 0.57523,-0.56931 -0.0695,-0.11241 0.40898,-0.58328 1.06322,-1.04638 0.65424,-0.46311 1.43786,-1.10209 1.74138,-1.41997 0.46601,-0.48808 2.16439,-1.39176 3.60794,-1.91975 0.20799,-0.0761 -0.0189,-0.14714 -0.50421,-0.15792 -1.26442,-0.0281 -4.63599,0.65204 -4.73718,0.95562 -0.047,0.14102 -0.23683,0.19831 -0.42184,0.12732 -0.185,-0.071 -0.41127,-0.008 -0.50281,0.14021 -0.0915,0.14812 -0.32155,0.2693 -0.51115,0.2693 -0.6482,0 -3.59736,1.88923 -5.30264,3.39687 -0.93693,0.82834 -2.33331,2.30317 -3.10309,3.27742 -0.76977,0.97424 -1.75406,2.16842 -2.1873,2.65373 -1.15705,1.29613 -3.46554,5.24074 -3.26084,5.57195 0.26379,0.42682 6.11773,0.17937 6.85417,-0.28973 z m -2.0681,-5.97552 c 2.11044,-3.26633 5.52172,-6.59123 8.15818,-7.95161 1.01859,-0.52557 1.92257,-0.88501 2.00883,-0.79874 0.23347,0.23347 -0.74265,0.87137 -1.34016,0.87582 -0.39106,0.003 -0.43391,0.0578 -0.17376,0.2226 0.25252,0.15997 0.0995,0.29986 -0.56957,0.52067 -0.50317,0.16607 -0.85807,0.39383 -0.78865,0.50615 0.0694,0.11232 -0.1848,0.40784 -0.56493,0.65672 -0.38012,0.24887 -0.89875,0.71616 -1.15251,1.03841 -0.25376,0.32225 -0.56574,0.52141 -0.69329,0.44258 -0.12756,-0.0788 -0.23193,-0.007 -0.23193,0.15888 0,0.16622 -0.19853,0.46496 -0.44119,0.66385 -0.24265,0.19889 -0.29938,0.28979 -0.12605,0.20199 0.17332,-0.0878 0.31513,-0.0395 0.31513,0.10736 0,0.14685 -0.17017,0.26699 -0.37816,0.26699 -0.20799,0 -0.3498,0.12763 -0.31513,0.28362 0.0347,0.156 -0.0946,0.34089 -0.28721,0.41087 -0.21449,0.0779 -0.28201,0.0169 -0.1742,-0.15757 0.0968,-0.15664 0.0599,-0.28481 -0.0821,-0.28481 -0.42917,0 -0.82946,0.94618 -0.46292,1.09425 0.18804,0.076 0.14043,0.13444 -0.1192,0.14639 -0.56121,0.0258 -1.08102,0.93484 -0.63713,1.11415 0.17222,0.0696 0.0754,0.13545 -0.21505,0.14639 -0.29049,0.0109 -0.73351,0.2468 -0.98448,0.52412 -0.25097,0.27732 -0.62195,0.50422 -0.8244,0.50422 -0.30334,0 -0.28929,-0.12194 0.0799,-0.6933 z m 3.40355,-0.6933 c -0.006,-0.37462 0.44383,-1.01492 0.60208,-0.85667 0.0754,0.0754 -0.0282,0.35577 -0.23038,0.62297 -0.20215,0.2672 -0.36941,0.37236 -0.3717,0.2337 z m 0.74445,-1.49782 c 0,-0.42317 1.97092,-2.48908 3.34044,-3.50143 0.51997,-0.38437 0.9454,-0.64147 0.9454,-0.57133 0,0.0701 -0.85086,0.9923 -1.89081,2.04926 -1.03995,1.05696 -1.89082,2.02639 -1.89082,2.15429 0,0.1279 -0.11345,0.23254 -0.25211,0.23254 -0.13866,0 -0.2521,-0.1635 -0.2521,-0.36333 z m 4.53795,-4.51492 c 0,-0.0583 0.29759,-0.30092 0.66131,-0.53924 0.36373,-0.23832 0.58431,-0.3087 0.49018,-0.1564 -0.17987,0.29103 -1.15149,0.87801 -1.15149,0.69564 z"
         id="path843"
         inkscape:connector-curvature="0" />
      <path
         style="fill:#62c46f;stroke-width:0.25210872"
         d="m 41.203618,178.41784 -4.17579,-4.15979 h 24.40743 24.40743 l 0.76931,0.81935 c 1.00852,1.07412 1.17165,1.52065 1.24253,3.40117 0.0491,1.30242 -0.0441,1.72575 -0.54105,2.45806 -0.3302,0.48658 -0.51869,0.88538 -0.41887,0.88623 0.0998,7.6e-4 -0.14347,0.17103 -0.54064,0.37817 -0.62296,0.3249 -3.48559,0.37661 -20.84834,0.37661 h -20.12623 z m -12.05183,-13.67917 c -3.64951,-3.65234 -5.55523,-5.74312 -5.70235,-6.25607 -0.15201,-0.53005 -0.10639,-1.11926 0.14625,-1.88853 0.31752,-0.96682 2.62453,-3.38079 17.04939,-17.83979 9.1752,-9.19692 16.9658,-16.83681 17.31245,-16.97753 1.15648,-0.46947 2.70955,-0.43226 3.25729,0.078 0.2768,0.25787 0.55641,0.46885 0.62136,0.46885 0.065,0 3.9547,3.80054 8.64389,8.44565 4.68919,4.6451 8.43322,8.44564 8.32008,8.44564 -0.11314,0 -0.0199,0.18585 0.20729,0.41301 0.52085,0.52085 0.46953,2.79249 -0.0775,3.43165 -0.20768,0.24265 -0.29952,0.44119 -0.20408,0.44119 0.0954,0 -0.22354,0.39707 -0.70885,0.88238 -0.48531,0.48531 -1.01852,0.88238 -1.18491,0.88238 -0.16639,0 -0.23512,0.0674 -0.15273,0.1498 0.19552,0.19552 -2.48446,2.8755 -2.8755,2.8755 -0.16478,0 -0.22937,0.0702 -0.14354,0.15607 0.20257,0.20257 -0.44723,0.85237 -0.85237,0.85237 -0.17167,0 -0.2419,0.0702 -0.15606,0.15607 0.20257,0.20256 -0.44723,0.85236 -0.85237,0.85236 -0.17167,0 -0.2419,0.0702 -0.15607,0.15607 0.20257,0.20257 -0.44722,0.85237 -0.85237,0.85237 -0.17167,0 -0.2419,0.0702 -0.15606,0.15607 0.20257,0.20256 -0.44723,0.85236 -0.85237,0.85236 -0.17167,0 -0.2419,0.0702 -0.15607,0.15607 0.20257,0.20257 -0.44722,0.85237 -0.85237,0.85237 -0.17167,0 -0.2419,0.0702 -0.15606,0.15606 0.20257,0.20257 -0.44723,0.85237 -0.85237,0.85237 -0.17167,0 -0.2419,0.0702 -0.15607,0.15607 0.19534,0.19534 -0.44077,0.85237 -0.82523,0.85237 -0.15674,0 -0.21488,0.11345 -0.12918,0.25211 0.0857,0.13866 -0.0277,0.2521 -0.25211,0.2521 -0.22435,0 -0.3378,0.11345 -0.25211,0.25211 0.0857,0.13866 -0.0278,0.25211 -0.25211,0.25211 -0.22435,0 -0.3378,0.11345 -0.2521,0.25211 0.0857,0.13866 -0.0278,0.25211 -0.25211,0.25211 -0.22436,0 -0.33781,0.11345 -0.25211,0.25211 0.0857,0.13866 -0.0277,0.25211 -0.25211,0.25211 -0.22436,0 -0.33781,0.11345 -0.25211,0.25211 0.0857,0.13865 -0.0277,0.2521 -0.25211,0.2521 -0.22435,0 -0.3378,0.11345 -0.25211,0.25211 0.0857,0.13866 -0.0277,0.25211 -0.2521,0.25211 -0.22436,0 -0.33781,0.11345 -0.25211,0.25211 0.0857,0.13866 -0.0211,0.25211 -0.23723,0.25211 -0.21618,0 -0.39305,0.10419 -0.39305,0.23154 0,0.35521 -1.93575,2.28955 -2.29123,2.28955 -0.17264,0 -0.24652,0.0674 -0.16419,0.1497 0.0823,0.0823 -1.77306,2.06769 -4.12311,4.4119 l -4.27281,4.2622 h -8.75759 -8.75759 z m 32.5191,-7.27211 c -0.0838,-0.0838 -0.30122,-0.0927 -0.48321,-0.0199 -0.20112,0.0805 -0.14138,0.14022 0.15231,0.15231 0.26577,0.0109 0.41467,-0.0486 0.3309,-0.13241 z m -11.7643,-15.4578 c 0.52064,-0.25058 0.62609,-0.45247 0.54059,-1.03501 -0.0687,-0.46782 0.0815,-0.98734 0.42465,-1.46926 0.29198,-0.41005 0.53088,-0.81538 0.53088,-0.90072 0,-0.0854 0.27718,-0.59425 0.61595,-1.13091 0.33877,-0.53665 0.56293,-1.02875 0.49812,-1.09355 -0.0648,-0.0648 0.0551,-0.26133 0.26643,-0.43673 0.21135,-0.1754 0.38426,-0.53191 0.38426,-0.79225 0,-0.26034 0.11345,-0.47335 0.25211,-0.47335 0.13866,0 0.25211,-0.21476 0.25211,-0.47724 0,-0.26249 0.1796,-0.54617 0.39912,-0.63041 0.21952,-0.0842 0.3547,-0.28647 0.30038,-0.4494 -0.10594,-0.31785 1.32525,-1.70554 2.26984,-2.20084 0.31586,-0.16563 0.51354,-0.39946 0.43928,-0.51962 -0.0743,-0.12016 0.57489,-0.68233 1.44256,-1.24927 0.86767,-0.56693 1.53551,-1.11441 1.48407,-1.21661 -0.10006,-0.19883 1.79138,-1.21233 3.24488,-1.73872 l 0.88238,-0.31956 -1.18104,-0.0111 c -4.05149,-0.038 -9.06641,2.30169 -12.47597,5.8205 -3.40661,3.51579 -7.92711,9.89698 -7.50032,10.58755 0.23219,0.37568 6.06227,0.15397 6.92972,-0.26353 z m -1.48226,-6.88364 c 2.54848,-3.67601 6.87631,-7.3862 7.92876,-6.79722 0.37323,0.20888 0.27416,0.29913 -0.62361,0.5681 -0.58703,0.17588 -0.94306,0.39658 -0.79119,0.49044 0.1692,0.10457 0.002,0.34877 -0.43221,0.63056 -0.38959,0.25294 -0.85658,0.66749 -1.03777,0.92123 -0.18119,0.25374 -0.49317,0.46134 -0.6933,0.46134 -0.20013,0 -0.36387,0.15284 -0.36387,0.33964 0,0.1868 -0.25526,0.47393 -0.56724,0.63807 -0.46466,0.24446 -0.47606,0.27411 -0.063,0.16396 0.46739,-0.12465 0.47228,-0.10959 0.0669,0.20621 -0.2405,0.18737 -0.37742,0.40053 -0.30426,0.47369 0.0731,0.0731 -0.0479,0.20245 -0.26913,0.28732 -0.23293,0.0894 -0.33732,0.0494 -0.2481,-0.0949 0.0847,-0.13707 0.0379,-0.24922 -0.10409,-0.24922 -0.42917,0 -0.82946,0.94618 -0.46292,1.09425 0.19697,0.0796 0.16092,0.13387 -0.0972,0.14639 -0.22568,0.011 -0.55873,0.19872 -0.74012,0.41728 -0.27325,0.32925 -0.26774,0.44138 0.0322,0.65405 0.29874,0.21185 0.28959,0.23369 -0.0524,0.12506 -0.24162,-0.0768 -0.65404,0.12351 -0.98935,0.48043 -1.16434,1.23939 -1.28501,0.62558 -0.18807,-0.95667 z m 2.72627,-0.0391 c 0,-0.0523 0.17277,-0.23857 0.38393,-0.41382 0.32103,-0.26642 0.35792,-0.25083 0.22514,0.0952 -0.13561,0.35339 -0.60907,0.60108 -0.60907,0.31863 z m 0.75799,-1.06365 c 0.004,-0.60381 1.7152,-2.47404 3.30446,-3.61243 0.72148,-0.51679 0.65905,-0.39967 -0.40309,0.75632 -2.22271,2.4191 -2.90307,3.08885 -2.90137,2.85611 z m 4.28418,-5.98047 c 0,-0.15875 1.56118,-0.96369 1.66593,-0.85894 0.0393,0.0393 -0.009,0.20095 -0.10648,0.35926 -0.18411,0.2979 -1.55945,0.73858 -1.55945,0.49968 z"
         id="path841"
         inkscape:connector-curvature="0" />
      <path
         style="fill:#8bc53e;stroke-width:0.25210872"
         d="m 41.203618,178.41784 -4.17579,-4.15979 h 24.40743 24.40743 l 0.76931,0.81935 c 1.00852,1.07412 1.17165,1.52065 1.24253,3.40117 0.0491,1.30242 -0.0441,1.72575 -0.54105,2.45806 -0.3302,0.48658 -0.51869,0.88538 -0.41887,0.88623 0.0998,7.6e-4 -0.14347,0.17103 -0.54064,0.37817 -0.62296,0.3249 -3.48559,0.37661 -20.84834,0.37661 h -20.12623 z m -12.05183,-13.67917 c -3.64951,-3.65234 -5.55523,-5.74312 -5.70235,-6.25607 -0.15201,-0.53005 -0.10639,-1.11926 0.14625,-1.88853 0.31752,-0.96682 2.62453,-3.38079 17.04939,-17.83979 9.1752,-9.19692 16.9658,-16.83681 17.31245,-16.97753 1.15648,-0.46947 2.70955,-0.43226 3.25729,0.078 0.2768,0.25787 0.55641,0.46885 0.62136,0.46885 0.065,0 3.9547,3.80054 8.64389,8.44565 4.68919,4.6451 8.43322,8.44564 8.32008,8.44564 -0.11314,0 -0.0199,0.18585 0.20729,0.41301 0.52085,0.52085 0.46953,2.79249 -0.0775,3.43165 -0.20768,0.24265 -0.29952,0.44119 -0.20408,0.44119 0.0954,0 -0.22354,0.39707 -0.70885,0.88238 -0.48531,0.48531 -1.01852,0.88238 -1.18491,0.88238 -0.16639,0 -0.23512,0.0674 -0.15273,0.1498 0.19552,0.19552 -2.48446,2.8755 -2.8755,2.8755 -0.16478,0 -0.22937,0.0702 -0.14354,0.15607 0.20257,0.20257 -0.44723,0.85237 -0.85237,0.85237 -0.17167,0 -0.2419,0.0702 -0.15606,0.15607 0.20257,0.20256 -0.44723,0.85236 -0.85237,0.85236 -0.17167,0 -0.2419,0.0702 -0.15607,0.15607 0.20257,0.20257 -0.44722,0.85237 -0.85237,0.85237 -0.17167,0 -0.2419,0.0702 -0.15606,0.15607 0.20257,0.20256 -0.44723,0.85236 -0.85237,0.85236 -0.17167,0 -0.2419,0.0702 -0.15607,0.15607 0.20257,0.20257 -0.44722,0.85237 -0.85237,0.85237 -0.17167,0 -0.2419,0.0702 -0.15606,0.15606 0.20257,0.20257 -0.44723,0.85237 -0.85237,0.85237 -0.17167,0 -0.2419,0.0702 -0.15607,0.15607 0.19534,0.19534 -0.44077,0.85237 -0.82523,0.85237 -0.15674,0 -0.21488,0.11345 -0.12918,0.25211 0.0857,0.13866 -0.0277,0.2521 -0.25211,0.2521 -0.22435,0 -0.3378,0.11345 -0.25211,0.25211 0.0857,0.13866 -0.0278,0.25211 -0.25211,0.25211 -0.22435,0 -0.3378,0.11345 -0.2521,0.25211 0.0857,0.13866 -0.0278,0.25211 -0.25211,0.25211 -0.22436,0 -0.33781,0.11345 -0.25211,0.25211 0.0857,0.13866 -0.0277,0.25211 -0.25211,0.25211 -0.22436,0 -0.33781,0.11345 -0.25211,0.25211 0.0857,0.13865 -0.0277,0.2521 -0.25211,0.2521 -0.22435,0 -0.3378,0.11345 -0.25211,0.25211 0.0857,0.13866 -0.0277,0.25211 -0.2521,0.25211 -0.22436,0 -0.33781,0.11345 -0.25211,0.25211 0.0857,0.13866 -0.0211,0.25211 -0.23723,0.25211 -0.21618,0 -0.39305,0.10419 -0.39305,0.23154 0,0.35521 -1.93575,2.28955 -2.29123,2.28955 -0.17264,0 -0.24652,0.0674 -0.16419,0.1497 0.0823,0.0823 -1.77306,2.06769 -4.12311,4.4119 l -4.27281,4.2622 h -8.75759 -8.75759 z m 32.5191,-7.27211 c -0.0838,-0.0838 -0.30122,-0.0927 -0.48321,-0.0199 -0.20112,0.0805 -0.14138,0.14022 0.15231,0.15231 0.26577,0.0109 0.41467,-0.0486 0.3309,-0.13241 z m -12.07538,-15.36481 c 0.79919,-0.31977 0.95653,-0.49347 0.86774,-0.95796 -0.10205,-0.53381 0.52325,-1.95176 1.53964,-3.49138 0.24695,-0.37408 0.47317,-0.84479 0.50271,-1.04603 0.0295,-0.20123 0.16334,-0.51914 0.29735,-0.70645 0.54787,-0.76581 1.13696,-1.97927 0.96086,-1.97927 -0.10367,0 0.0207,-0.15297 0.27637,-0.33992 0.3015,-0.22046 0.39283,-0.46411 0.25987,-0.6933 -0.11274,-0.19436 -0.12135,-0.27848 -0.0191,-0.18694 0.10222,0.0915 0.60257,-0.21778 1.11188,-0.68738 2.64573,-2.4394 3.25248,-2.95231 3.88832,-3.28694 0.38131,-0.20067 0.69329,-0.51963 0.69329,-0.70879 0,-0.36104 1.69239,-1.25991 3.40347,-1.80766 l 1.00844,-0.32282 -1.26055,-0.0166 c -2.90209,-0.0381 -6.38827,1.09361 -9.45408,3.06918 -1.44621,0.93192 -4.92488,4.3762 -6.17668,6.11563 -0.39916,0.55463 -1.08056,1.4055 -1.51422,1.89081 -1.02455,1.14656 -3.21157,4.99034 -3.01778,5.30389 0.2547,0.41211 5.52659,0.2944 6.6325,-0.1481 z m -1.17118,-6.96077 c 1.80221,-2.57327 4.30806,-5.06799 6.36679,-6.33849 1.0557,-0.6515 2.11493,-1.17534 2.35385,-1.16408 0.27129,0.0128 0.15042,0.14553 -0.32192,0.35352 -0.41598,0.18318 -0.72967,0.42923 -0.69708,0.54677 0.0326,0.11755 -0.30676,0.33696 -0.75411,0.48758 -0.52893,0.17809 -0.68189,0.31828 -0.43741,0.40089 0.25335,0.0856 0.06,0.28974 -0.59284,0.62599 -0.53283,0.27443 -0.94263,0.60455 -0.91066,0.7336 0.032,0.12906 -0.16014,0.34809 -0.42688,0.48675 -0.74951,0.38962 -1.83561,1.49916 -1.27313,1.30062 0.27006,-0.0953 0.39182,-0.0593 0.30025,0.0889 -0.0847,0.13707 -0.32419,0.24922 -0.53218,0.24922 -0.20799,0 -0.30885,0.11215 -0.22414,0.24922 0.0866,0.14013 -0.009,0.18675 -0.2179,0.1065 -0.47537,-0.18242 -1.06837,0.80049 -0.59766,0.99064 0.22613,0.0913 0.21569,0.13202 -0.0376,0.14639 -0.19288,0.011 -0.84687,0.53042 -1.45331,1.15439 -1.56125,1.60637 -1.82182,1.40601 -0.5441,-0.41838 z m 2.72627,-0.055 c 0,-0.0523 0.17277,-0.23857 0.38393,-0.41382 0.32103,-0.26642 0.35792,-0.25083 0.22514,0.0952 -0.13561,0.35339 -0.60907,0.60108 -0.60907,0.31863 z m 0.75633,-1.00714 c 0,-0.59489 1.66579,-2.4035 3.4443,-3.73961 0.49648,-0.37298 0.39667,-0.1965 -0.32606,0.57654 -0.57285,0.61272 -1.5088,1.61466 -2.07989,2.22654 -0.5711,0.61187 -1.03835,1.03331 -1.03835,0.93653 z"
         id="path839"
         inkscape:connector-curvature="0" />
      <path
         style="fill:#4fb94c;stroke-width:0.25210872"
         d="m 41.203618,178.41784 -4.17579,-4.15979 h 24.40743 24.40743 l 0.76931,0.81935 c 1.00852,1.07412 1.17165,1.52065 1.24253,3.40117 0.0491,1.30242 -0.0441,1.72575 -0.54105,2.45806 -0.3302,0.48658 -0.51869,0.88538 -0.41887,0.88623 0.0998,7.6e-4 -0.14347,0.17103 -0.54064,0.37817 -0.62296,0.3249 -3.48559,0.37661 -20.84834,0.37661 h -20.12623 z m 21.51413,-19.499 c -0.0164,-0.091 -0.0136,-0.259 0.006,-0.3733 0.0198,-0.1143 -0.065,-0.14533 -0.18857,-0.069 -0.12356,0.0764 -0.42758,-0.0854 -0.67559,-0.35942 -0.24801,-0.27405 -0.34826,-0.49995 -0.22277,-0.50199 0.12548,-0.002 -0.0555,-0.15313 -0.40212,-0.33575 -0.34665,-0.18261 -0.5991,-0.473 -0.561,-0.64529 0.0381,-0.1723 -0.0258,-0.25452 -0.14197,-0.18271 -0.11619,0.0718 -3.37989,-3.03961 -7.25268,-6.91425 l -7.04145,-7.04481 h 1.19073 c 0.6549,0 1.63002,-0.17577 2.16693,-0.3906 0.79919,-0.31977 0.95653,-0.49347 0.86774,-0.95796 -0.10205,-0.53381 0.52325,-1.95176 1.53964,-3.49138 0.24695,-0.37408 0.47317,-0.84479 0.50271,-1.04603 0.0295,-0.20123 0.16334,-0.51914 0.29735,-0.70645 0.54787,-0.76581 1.13696,-1.97927 0.96086,-1.97927 -0.10367,0 0.0207,-0.15297 0.27637,-0.33992 0.3015,-0.22046 0.39282,-0.46411 0.25987,-0.6933 -0.11274,-0.19436 -0.12135,-0.27848 -0.0191,-0.18694 0.10222,0.0915 0.60257,-0.21778 1.11188,-0.68738 2.64573,-2.4394 3.25248,-2.95231 3.88831,-3.28694 0.38132,-0.20067 0.6933,-0.51963 0.6933,-0.70879 0,-0.36104 1.69239,-1.25991 3.40347,-1.80766 l 1.00844,-0.32282 -1.26055,-0.0166 c -2.90209,-0.0382 -6.38827,1.09361 -9.45408,3.06918 -1.55739,1.00357 -4.93546,4.39311 -6.47211,6.49409 -0.5579,0.76279 -1.21067,1.54981 -1.45059,1.74892 -0.23992,0.19912 -0.7129,0.90804 -1.05107,1.57538 -0.33817,0.66735 -0.70277,1.21335 -0.81023,1.21335 -0.10745,0 -0.67098,-0.48462 -1.2523,-1.07693 l -1.05693,-1.07693 8.00046,-7.97461 c 4.40025,-4.38603 8.28408,-8.06014 8.63073,-8.16468 1.24203,-0.37457 2.49415,-0.29941 3.00943,0.18065 0.27445,0.25569 0.55215,0.46489 0.6171,0.46489 0.0649,0 3.95471,3.80054 8.64389,8.44565 4.68919,4.6451 8.43323,8.44564 8.32008,8.44564 -0.11314,0 -0.0199,0.18585 0.2073,0.41301 0.52085,0.52085 0.46952,2.79249 -0.0775,3.43165 -0.20769,0.24265 -0.29953,0.44119 -0.20409,0.44119 0.0954,0 -0.22354,0.39707 -0.70885,0.88238 -0.48531,0.48531 -1.01852,0.88238 -1.18491,0.88238 -0.16639,0 -0.23512,0.0674 -0.15272,0.1498 0.19552,0.19552 -2.48446,2.8755 -2.8755,2.8755 -0.16479,0 -0.22938,0.0702 -0.14355,0.15607 0.20258,0.20257 -0.44722,0.85237 -0.85236,0.85237 -0.17168,0 -0.24191,0.0702 -0.15607,0.15607 0.20257,0.20256 -0.44723,0.85236 -0.85237,0.85236 -0.17167,0 -0.2419,0.0702 -0.15607,0.15607 0.20258,0.20257 -0.44722,0.85237 -0.85236,0.85237 -0.17168,0 -0.24191,0.0702 -0.15607,0.15607 0.20257,0.20256 -0.44723,0.85236 -0.85237,0.85236 -0.17167,0 -0.2419,0.0702 -0.15607,0.15607 0.20258,0.20257 -0.44722,0.85237 -0.85236,0.85237 -0.17168,0 -0.24191,0.0702 -0.15607,0.15606 0.20257,0.20257 -0.44723,0.85237 -0.85237,0.85237 -0.17167,0 -0.2419,0.0702 -0.15607,0.15607 0.19535,0.19534 -0.44076,0.85237 -0.82522,0.85237 -0.15675,0 -0.21488,0.11345 -0.12919,0.25211 0.0857,0.13866 -0.0277,0.2521 -0.2521,0.2521 -0.22436,0 -0.33781,0.11345 -0.25211,0.25211 0.0857,0.13866 -0.0277,0.25211 -0.25211,0.25211 -0.22436,0 -0.33781,0.11345 -0.25211,0.25211 0.0857,0.13866 -0.0277,0.25211 -0.25211,0.25211 -0.22436,0 -0.33781,0.11345 -0.25211,0.25211 0.0857,0.13866 -0.0277,0.25211 -0.25211,0.25211 -0.22435,0 -0.3378,0.11345 -0.25211,0.25211 0.0857,0.13865 -0.0277,0.2521 -0.2521,0.2521 -0.22436,0 -0.33781,0.11345 -0.25211,0.25211 0.0857,0.13866 -0.0277,0.25211 -0.25211,0.25211 -0.22436,0 -0.34578,0.10055 -0.26982,0.22345 0.076,0.12289 -0.0875,0.28245 -0.36329,0.35456 -0.27576,0.0721 -0.51482,0.0566 -0.53124,-0.0344 z m -14.29342,-23.77786 c 1.80221,-2.57327 4.30806,-5.06799 6.36679,-6.33849 1.0557,-0.6515 2.11493,-1.17534 2.35385,-1.16408 0.27129,0.0128 0.15042,0.14553 -0.32192,0.35352 -0.41598,0.18318 -0.72967,0.42923 -0.69708,0.54677 0.0326,0.11755 -0.30676,0.33696 -0.75411,0.48758 -0.52893,0.17809 -0.68189,0.31828 -0.43741,0.40089 0.25335,0.0856 0.06,0.28974 -0.59284,0.62599 -0.53283,0.27443 -0.94263,0.60455 -0.91066,0.7336 0.032,0.12906 -0.16014,0.34809 -0.42688,0.48675 -0.74951,0.38962 -1.83561,1.49916 -1.27313,1.30062 0.27006,-0.0953 0.39182,-0.0593 0.30025,0.0889 -0.0847,0.13707 -0.32419,0.24922 -0.53218,0.24922 -0.20799,0 -0.30885,0.11215 -0.22414,0.24922 0.0866,0.14013 -0.009,0.18675 -0.2179,0.1065 -0.47537,-0.18242 -1.06837,0.80049 -0.59766,0.99064 0.22613,0.0913 0.21569,0.13202 -0.0376,0.14639 -0.19288,0.011 -0.84687,0.53042 -1.45331,1.15439 -1.56125,1.60637 -1.82182,1.40601 -0.5441,-0.41838 z m 2.72627,-0.055 c 0,-0.0523 0.17277,-0.23857 0.38393,-0.41382 0.32103,-0.26642 0.35792,-0.25083 0.22514,0.0952 -0.13561,0.35339 -0.60907,0.60108 -0.60907,0.31863 z m 0.75633,-1.00714 c 0,-0.59489 1.66579,-2.4035 3.4443,-3.73961 0.49648,-0.37298 0.39667,-0.1965 -0.32606,0.57654 -0.57285,0.61272 -1.5088,1.61466 -2.07989,2.22654 -0.5711,0.61187 -1.03835,1.03331 -1.03835,0.93653 z"
         id="path837"
         inkscape:connector-curvature="0" />
      <path
         style="fill:#38b349;stroke-width:0.25210872"
         d="m 41.203618,178.41784 -4.17579,-4.15979 h 24.40743 24.40743 l 0.76931,0.81935 c 1.00852,1.07412 1.17165,1.52065 1.24253,3.40117 0.0491,1.30242 -0.0441,1.72575 -0.54105,2.45806 -0.3302,0.48658 -0.51869,0.88538 -0.41887,0.88623 0.0998,7.6e-4 -0.14347,0.17103 -0.54064,0.37817 -0.62296,0.3249 -3.48559,0.37661 -20.84834,0.37661 h -20.12623 z m 13.4765,-27.73583 -8.19353,-8.18475 1.13449,-0.0167 c 0.62397,-0.009 1.53156,-0.15465 2.01687,-0.32328 0.74036,-0.25724 0.87131,-0.41337 0.8136,-0.97004 -0.0673,-0.64867 0.85686,-2.68433 1.58266,-3.48633 0.20069,-0.22176 0.40317,-0.65406 0.44996,-0.96067 0.0468,-0.30661 0.21968,-0.69207 0.38419,-0.85658 0.16451,-0.16451 0.29911,-0.4327 0.29911,-0.59598 0,-0.16328 0.17534,-0.44239 0.38964,-0.62024 0.2143,-0.17785 0.33353,-0.46956 0.26497,-0.64824 -0.0686,-0.17867 0.0981,-0.39556 0.37035,-0.48197 0.27226,-0.0864 0.42995,-0.26239 0.35042,-0.39107 -0.0795,-0.12868 -0.006,-0.23396 0.16441,-0.23396 0.16995,0 0.24456,-0.0644 0.16579,-0.14322 -0.0788,-0.0788 0.2143,-0.47071 0.65128,-0.87098 0.43697,-0.40027 1.30502,-1.19559 1.92899,-1.76737 0.62397,-0.57178 1.43272,-1.19668 1.79723,-1.38867 0.36452,-0.19199 0.73081,-0.52644 0.814,-0.74322 0.14816,-0.38608 1.68561,-1.18587 3.43938,-1.78917 l 0.88238,-0.30354 -1.26055,-0.0264 c -1.58329,-0.0331 -4.8107,0.57364 -5.80291,1.09101 -0.41355,0.21563 -0.83298,0.39276 -0.93205,0.39362 -0.0991,8.5e-4 -1.04241,0.52504 -2.09629,1.16487 -2.14657,1.30322 -4.73818,3.79959 -6.9558,6.7002 -0.81532,1.06643 -1.59068,2.00588 -1.723,2.08767 -0.13233,0.0818 -0.55054,0.71816 -0.92937,1.41419 l -0.68876,1.26549 -1.14811,-1.1481 -1.14811,-1.14811 7.81295,-7.83424 c 4.29713,-4.30883 8.09657,-7.94924 8.44322,-8.0898 1.15711,-0.46918 2.70968,-0.43184 3.25729,0.0784 0.2768,0.25787 0.55641,0.46885 0.62136,0.46885 0.065,0 3.9547,3.80054 8.64389,8.44565 4.68919,4.6451 8.43322,8.44564 8.32008,8.44564 -0.11314,0 -0.0199,0.18585 0.20729,0.41301 0.52085,0.52085 0.46953,2.79249 -0.0775,3.43165 -0.20768,0.24265 -0.29952,0.44119 -0.20408,0.44119 0.0954,0 -0.22354,0.39707 -0.70885,0.88238 -0.48531,0.48531 -1.01852,0.88238 -1.18491,0.88238 -0.16639,0 -0.23512,0.0674 -0.15273,0.1498 0.0824,0.0824 -0.46348,0.76309 -1.21304,1.51265 -0.74957,0.74957 -1.49767,1.36285 -1.66246,1.36285 -0.16478,0 -0.22937,0.0702 -0.14354,0.15607 0.20257,0.20257 -0.44723,0.85237 -0.85237,0.85237 -0.17167,0 -0.2419,0.0702 -0.15606,0.15607 0.0858,0.0858 -5.1e-4,0.31273 -0.19209,0.50421 -0.19148,0.19148 -0.48861,0.34815 -0.66028,0.34815 -0.17167,0 -0.2419,0.0702 -0.15607,0.15607 0.20257,0.20257 -0.44722,0.85237 -0.85237,0.85237 -0.17167,0 -0.2419,0.0702 -0.15606,0.15607 0.20257,0.20256 -0.44723,0.85236 -0.85237,0.85236 -0.17167,0 -0.2419,0.0702 -0.15607,0.15607 0.20257,0.20257 -0.44722,0.85237 -0.85237,0.85237 -0.17167,0 -0.2419,0.0702 -0.15606,0.15606 0.20257,0.20257 -0.44723,0.85237 -0.85237,0.85237 -0.17167,0 -0.2419,0.0702 -0.15607,0.15607 0.19534,0.19534 -0.44077,0.85237 -0.82523,0.85237 -0.15674,0 -0.21488,0.11345 -0.12918,0.25211 0.0857,0.13866 -0.0277,0.2521 -0.25211,0.2521 -0.22435,0 -0.3378,0.11345 -0.25211,0.25211 0.0857,0.13866 -0.0278,0.25211 -0.25211,0.25211 -0.22435,0 -0.3378,0.11345 -0.2521,0.25211 0.0857,0.13866 -0.0278,0.25211 -0.25211,0.25211 -0.22436,0 -0.33781,0.11345 -0.25211,0.25211 0.0857,0.13866 -0.0277,0.25211 -0.25211,0.25211 -0.22436,0 -0.33781,0.11345 -0.25211,0.25211 0.0857,0.13865 -0.0277,0.2521 -0.25211,0.2521 -0.22435,0 -0.3378,0.11345 -0.25211,0.25211 0.0857,0.13866 -0.0277,0.25211 -0.2521,0.25211 -0.22436,0 -0.33781,0.11345 -0.25211,0.25211 0.0857,0.13866 -0.0494,0.24926 -0.30026,0.24577 -0.25739,-0.004 -4.0254,-3.57183 -8.6496,-8.19107 z m -7.05904,-14.09544 c 0,-0.45402 2.84758,-4.14023 4.22569,-5.47016 1.55258,-1.49831 4.60706,-3.50573 5.30597,-3.4871 0.25359,0.007 0.11987,0.15183 -0.32969,0.35769 -0.41598,0.19047 -0.64288,0.35955 -0.50422,0.37572 0.40509,0.0473 -0.95847,0.74736 -1.51265,0.77666 l -0.50422,0.0267 0.50422,0.19744 c 0.43819,0.17159 0.35567,0.2671 -0.63028,0.7294 -0.62397,0.29258 -0.97878,0.5361 -0.78848,0.54117 0.27891,0.007 0.28515,0.0825 0.0322,0.38737 -0.17262,0.20799 -0.44177,0.38012 -0.59811,0.38251 -0.49119,0.008 -1.47217,1.19333 -1.10835,1.33976 0.19117,0.0769 0.13638,0.13674 -0.13621,0.14864 -0.25084,0.0109 -0.38675,0.13205 -0.30204,0.26912 0.0847,0.13707 -0.004,0.18864 -0.19684,0.11458 -0.19298,-0.074 -0.50356,0.0494 -0.69018,0.27421 -0.28552,0.34404 -0.28193,0.44517 0.0226,0.63789 0.31257,0.19778 0.31154,0.22956 -0.007,0.23289 -0.20323,0.002 -0.91228,0.53848 -1.57568,1.1919 -0.66341,0.65342 -1.20619,1.09157 -1.20619,0.97366 z m 4.53795,-2.91365 c 0,-0.26366 2.13979,-2.50246 2.89925,-3.03339 0.27732,-0.19388 0.10715,0.0836 -0.37816,0.61657 -1.65577,1.81844 -2.52109,2.64797 -2.52109,2.41682 z"
         id="path835"
         inkscape:connector-curvature="0" />
    </g>
  </g>
</svg>
