<?xml version="1.0" encoding="UTF-8" standalone="no"?>
<svg
   xmlns:dc="http://purl.org/dc/elements/1.1/"
   xmlns:cc="http://creativecommons.org/ns#"
   xmlns:rdf="http://www.w3.org/1999/02/22-rdf-syntax-ns#"
   xmlns:svg="http://www.w3.org/2000/svg"
   xmlns="http://www.w3.org/2000/svg"
   xmlns:sodipodi="http://sodipodi.sourceforge.net/DTD/sodipodi-0.dtd"
   xmlns:inkscape="http://www.inkscape.org/namespaces/inkscape"
   width="64.791939mm"
   height="61.262417mm"
   viewBox="0 0 64.791939 61.262417"
   version="1.1"
   id="svg169"
   inkscape:version="1.0.1 (3bc2e813f5, 2020-09-07)"
   sodipodi:docname="help.svg">
  <defs
     id="defs163">
    <clipPath
       clipPathUnits="userSpaceOnUse"
       id="clipEmfPath1-9">
      <path
         d="M 0,0 H 244.88292 V 231.543 H 0 Z"
         id="path73" />
    </clipPath>
  </defs>
  <sodipodi:namedview
     id="base"
     pagecolor="#ffffff"
     bordercolor="#666666"
     borderopacity="1.0"
     inkscape:pageopacity="0.0"
     inkscape:pageshadow="2"
     inkscape:zoom="1.025543"
     inkscape:cx="218.38586"
     inkscape:cy="137.39969"
     inkscape:document-units="mm"
     inkscape:current-layer="layer1"
     inkscape:document-rotation="0"
     showgrid="false"
     inkscape:window-width="1366"
     inkscape:window-height="715"
     inkscape:window-x="-8"
     inkscape:window-y="-8"
     inkscape:window-maximized="1"
     inkscape:object-paths="true"
     inkscape:snap-intersection-paths="true"
     inkscape:snap-smooth-nodes="true"
     inkscape:snap-nodes="false"
     inkscape:snap-global="false" />
  <metadata
     id="metadata166">
    <rdf:RDF>
      <cc:Work
         rdf:about="">
        <dc:format>image/svg+xml</dc:format>
        <dc:type
           rdf:resource="http://purl.org/dc/dcmitype/StillImage" />
        <dc:title></dc:title>
      </cc:Work>
    </rdf:RDF>
  </metadata>
  <g
     inkscape:label="Layer 1"
     inkscape:groupmode="layer"
     id="layer1"
     transform="translate(-24.300459,-121.31522)">
    <path
       style="fill:#000000;stroke-width:0.218146"
       d="m 53.705061,178.32374 c -2.72521,-0.33499 -6.495874,-1.25928 -7.358319,-1.80372 -0.464981,-0.29353 -1.527351,-0.89156 -2.360821,-1.32895 -2.931898,-1.53861 -4.01324,-2.30558 -5.873863,-4.16621 -1.200517,-1.20051 -2.166758,-2.37661 -2.840368,-3.45729 -1.194966,-1.91708 -1.809083,-2.88565 -2.483518,-3.91693 -0.406091,-0.62096 -0.912864,-1.7671 -1.126162,-2.54697 -0.213299,-0.77987 -0.631225,-2.25236 -0.928726,-3.27219 -0.995829,-3.41372 -0.915907,-9.96502 0.152771,-12.52273 0.195155,-0.46707 0.508205,-1.44111 0.695666,-2.16455 0.413089,-1.59416 1.151541,-3.09273 2.383452,-4.83683 0.508477,-0.71987 1.076288,-1.60796 1.261804,-1.97353 0.63261,-1.24657 3.9357,-4.66744 5.393245,-5.58556 0.777703,-0.48988 1.494134,-1.02934 1.592069,-1.19879 0.390275,-0.6753 6.312051,-3.06561 9.15326,-3.69469 2.391251,-0.52947 6.877742,-0.65059 8.992975,-0.24281 0.959843,0.18504 2.137834,0.39104 2.617756,0.45777 0.479922,0.0667 1.690222,0.46696 2.689565,0.88941 0.999342,0.42246 1.931921,0.76832 2.072386,0.76857 0.408485,7.4e-4 2.821572,1.31349 3.418535,1.8597 0.299956,0.27446 1.096209,0.82715 1.769472,1.22821 0.725246,0.43203 1.820415,1.41817 2.687335,2.41983 0.804778,0.92983 1.535071,1.69063 1.622873,1.69063 0.0878,0 0.36242,0.41719 0.610261,0.92712 0.247851,0.50992 0.816328,1.40605 1.26328,1.99143 1.632958,2.13859 2.61663,4.45332 3.703274,8.71423 0.569082,2.23146 0.597105,2.56796 0.508669,6.1081 -0.0654,2.61805 -0.196086,4.04221 -0.433881,4.72819 -0.522477,1.50713 -1.255558,3.72165 -1.552621,4.69015 -0.295637,0.9639 -0.678868,1.6519 -2.041273,3.6646 -0.503631,0.74402 -1.278033,1.89268 -1.720902,2.55257 -1.059235,1.57833 -4.692768,5.11514 -5.83905,5.68363 -1.690876,0.83859 -3.958516,2.05887 -4.803292,2.58481 -1.327001,0.82616 -7.494303,1.99704 -10.280877,1.95186 -0.839863,-0.0136 -2.165102,-0.10319 -2.944975,-0.19906 z m 5.562732,-1.61235 c 3.228393,-0.35498 5.312657,-0.90416 6.960056,-1.8339 0.627113,-0.35391 1.552083,-0.76689 2.055488,-0.91772 0.503423,-0.15082 1.024313,-0.40558 1.157567,-0.56614 0.133244,-0.16054 0.357041,-0.29191 0.497327,-0.29191 0.140276,0 0.643633,-0.3453 1.118552,-0.76732 0.474928,-0.42203 1.144401,-0.98648 1.487719,-1.25434 1.773688,-1.38384 4.20821,-4.25552 5.082569,-5.99522 0.437188,-0.86986 0.87398,-1.58156 0.970658,-1.58156 0.362495,0 1.280915,-1.9372 2.068445,-4.36293 l 0.814456,-2.50868 -0.02807,-4.85988 c -0.02675,-4.62254 -0.05633,-4.94747 -0.606906,-6.65347 -0.899603,-2.78741 -0.986962,-2.9814 -1.874391,-4.16247 -0.458606,-0.61033 -0.833822,-1.22033 -0.833822,-1.35554 0,-0.1352 -0.294503,-0.65236 -0.654446,-1.14925 -0.359934,-0.49688 -0.654436,-0.99887 -0.654436,-1.11553 0,-0.11665 -0.574271,-0.82921 -1.276143,-1.58345 -0.701872,-0.75424 -1.692586,-1.83389 -2.201586,-2.39923 -0.50899,-0.56533 -1.137255,-1.09197 -1.396145,-1.17033 -0.25889,-0.0784 -0.667045,-0.30865 -0.907004,-0.51175 -1.361025,-1.15202 -4.448792,-2.73132 -6.712038,-3.43298 -2.286295,-0.70881 -2.705356,-0.76783 -6.267674,-0.88262 -4.406276,-0.14199 -6.599297,0.0888 -9.529334,1.00286 -1.95581,0.61014 -2.474297,0.87871 -5.447965,2.82204 -0.794575,0.51927 -1.668053,1.02905 -1.941063,1.13285 -0.27301,0.10379 -1.158437,0.97964 -1.967616,1.94632 -0.809177,0.96668 -1.537396,1.7576 -1.618262,1.7576 -0.194826,0 -2.340429,3.30229 -2.615248,4.0251 -0.118358,0.31132 -0.573656,1.12638 -1.011771,1.81126 -0.856996,1.33971 -1.742381,4.0941 -2.050752,6.37983 -0.245622,1.82063 -0.250321,6.61223 -0.0076,7.7442 0.473253,2.20704 1.191578,4.61736 1.587933,5.32827 0.23913,0.4289 0.755098,1.31974 1.146597,1.97963 0.391499,0.6599 0.985481,1.68573 1.31996,2.27963 0.33448,0.5939 0.982794,1.45823 1.440697,1.92074 0.457904,0.4625 0.990259,1.10788 1.183009,1.43419 0.816561,1.38233 4.182512,3.8299 7.444066,5.413 3.026677,1.46909 5.174079,2.13325 7.92256,2.45033 2.334559,0.26931 2.231501,0.27069 5.344587,-0.0716 z m -4.53136,-7.19345 c -1.871615,-1.11135 -2.99469,-2.81609 -2.99469,-4.54573 0,-1.23597 1.031293,-3.61852 1.842486,-4.25661 0.927063,-0.72922 2.725246,-1.04087 4.307759,-0.74657 1.585014,0.29477 2.08116,0.70772 3.152896,2.62415 0.72464,1.29578 0.773939,1.49719 0.64176,2.62182 -0.303021,2.57824 -2.653533,4.85335 -4.971591,4.81211 -0.777655,-0.0139 -1.424945,-0.18041 -1.97862,-0.50917 z m 3.222482,-1.94637 c 1.306611,-0.60916 1.519058,-0.84509 1.839175,-2.04245 0.315544,-1.18026 -0.04844,-2.12309 -1.179583,-3.05546 -1.466383,-1.20872 -2.738779,-1.06651 -4.389862,0.49067 -0.633147,0.59713 -0.741732,0.84539 -0.741732,1.69578 0,1.55617 0.274848,2.00435 1.677531,2.73546 0.697096,0.36335 1.365612,0.666 1.485592,0.67257 0.119981,0.007 0.708976,-0.21688 1.308879,-0.49657 z M 56.11192,154.03588 c -0.134604,-0.40786 -0.179923,-1.02139 -0.100707,-1.36341 0.274796,-1.18653 1.229915,-2.81801 1.914241,-3.26982 0.378343,-0.24979 1.677262,-1.34983 2.886482,-2.44453 2.720056,-2.46246 3.364148,-3.56866 3.364148,-5.77778 0,-0.81603 -0.109946,-1.69811 -0.244322,-1.96018 -0.456124,-0.88956 -1.605486,-1.92559 -3.027871,-2.72932 l -1.417952,-0.80122 h -2.835903 c -2.797352,0 -2.852425,0.01 -4.051368,0.70274 -2.12101,1.2263 -3.1087,2.37851 -3.541243,4.13108 -0.207675,0.84146 -0.362867,1.07061 -0.763495,1.12742 -1.435911,0.20355 -1.538698,-1.47484 -0.200326,-3.27115 0.506719,-0.68009 1.074847,-1.51451 1.262505,-1.85424 0.516045,-0.93425 2.354438,-1.72615 5.035223,-2.16898 2.184057,-0.36077 2.450395,-0.3621 4.472,-0.0224 3.091526,0.51956 3.661082,0.72525 4.524255,1.63383 3.283358,3.45612 3.628775,4.86276 1.99215,8.11265 -0.768268,1.52558 -1.403757,2.23768 -5.742463,6.43465 -1.24247,1.20188 -1.859791,1.97458 -2.004208,2.50868 -0.229102,0.84728 -0.791154,1.75349 -1.087554,1.75349 -0.103873,0 -0.298989,-0.3337 -0.433592,-0.74155 z"
       id="path1039" />
  </g>
</svg>
