<?xml version="1.0" encoding="UTF-8" standalone="no"?>
<svg
   xmlns:dc="http://purl.org/dc/elements/1.1/"
   xmlns:cc="http://creativecommons.org/ns#"
   xmlns:rdf="http://www.w3.org/1999/02/22-rdf-syntax-ns#"
   xmlns:svg="http://www.w3.org/2000/svg"
   xmlns="http://www.w3.org/2000/svg"
   xmlns:sodipodi="http://sodipodi.sourceforge.net/DTD/sodipodi-0.dtd"
   xmlns:inkscape="http://www.inkscape.org/namespaces/inkscape"
   width="64.791939mm"
   height="61.262417mm"
   viewBox="0 0 64.791939 61.262417"
   version="1.1"
   id="svg169"
   inkscape:version="1.0.1 (3bc2e813f5, 2020-09-07)"
   sodipodi:docname="menu.svg">
  <defs
     id="defs163">
    <clipPath
       clipPathUnits="userSpaceOnUse"
       id="clipEmfPath1-9">
      <path
         d="M 0,0 H 244.88292 V 231.543 H 0 Z"
         id="path73" />
    </clipPath>
  </defs>
  <sodipodi:namedview
     id="base"
     pagecolor="#ffffff"
     bordercolor="#666666"
     borderopacity="1.0"
     inkscape:pageopacity="0.0"
     inkscape:pageshadow="2"
     inkscape:zoom="1.6934081"
     inkscape:cx="60.055232"
     inkscape:cy="116.06508"
     inkscape:document-units="mm"
     inkscape:current-layer="layer1"
     inkscape:document-rotation="0"
     showgrid="false"
     inkscape:window-width="1366"
     inkscape:window-height="715"
     inkscape:window-x="-8"
     inkscape:window-y="-8"
     inkscape:window-maximized="1" />
  <metadata
     id="metadata166">
    <rdf:RDF>
      <cc:Work
         rdf:about="">
        <dc:format>image/svg+xml</dc:format>
        <dc:type
           rdf:resource="http://purl.org/dc/dcmitype/StillImage" />
        <dc:title></dc:title>
      </cc:Work>
    </rdf:RDF>
  </metadata>
  <g
     inkscape:label="Layer 1"
     inkscape:groupmode="layer"
     id="layer1"
     transform="translate(-24.300459,-121.31522)">
    <path
       id="rect10"
       style="fill:#000000;fill-rule:evenodd;stroke:none;stroke-width:17.7143;stroke-linecap:round;stroke-linejoin:round;stroke-miterlimit:4;stroke-dasharray:none"
       d="M 43.902344 5.9335938 C 26.563345 5.9335938 12.603516 19.893423 12.603516 37.232422 L 12.603516 194.31055 C 12.603516 211.64955 26.563345 225.60938 43.902344 225.60938 L 200.98047 225.60938 C 218.31947 225.60938 232.2793 211.64955 232.2793 194.31055 L 232.2793 37.232422 C 232.2793 19.893423 218.31947 5.9335938 200.98047 5.9335938 L 43.902344 5.9335938 z M 56.146484 23.058594 L 188.73633 23.058594 C 203.37193 23.058594 215.1543 34.840947 215.1543 49.476562 L 215.1543 182.06641 C 215.1543 196.70198 203.37193 208.48438 188.73633 208.48438 L 56.146484 208.48438 C 41.510876 208.48438 29.728516 196.70198 29.728516 182.06641 L 29.728516 49.476562 C 29.728516 34.840947 41.510876 23.058594 56.146484 23.058594 z "
       transform="matrix(0.26458333,0,0,0.26458333,24.300459,121.31522)" />
    <rect
       style="fill:#000000;stroke:none;stroke-width:3.48551;stroke-linecap:round;stroke-linejoin:round;stroke-miterlimit:4;stroke-dasharray:none"
       id="rect835"
       width="36.692829"
       height="2.9045217"
       x="38.349998"
       y="134.05658" />
    <rect
       style="fill:#000000;stroke:none;stroke-width:3.48551;stroke-linecap:round;stroke-linejoin:round;stroke-miterlimit:4;stroke-dasharray:none"
       id="rect837"
       width="36.692829"
       height="2.9045217"
       x="38.349998"
       y="166.93175" />
    <rect
       style="fill:#000000;stroke:none;stroke-width:3.48551;stroke-linecap:round;stroke-linejoin:round;stroke-miterlimit:4;stroke-dasharray:none"
       id="rect839"
       width="36.692829"
       height="2.9045217"
       x="38.349998"
       y="155.97336" />
    <rect
       style="fill:#000000;stroke:none;stroke-width:3.48551;stroke-linecap:round;stroke-linejoin:round;stroke-miterlimit:4;stroke-dasharray:none"
       id="rect841"
       width="36.692829"
       height="2.9045217"
       x="38.349998"
       y="145.01497" />
  </g>
</svg>
