<?xml version="1.0" encoding="UTF-8" standalone="no"?>
<svg
   xmlns:dc="http://purl.org/dc/elements/1.1/"
   xmlns:cc="http://creativecommons.org/ns#"
   xmlns:rdf="http://www.w3.org/1999/02/22-rdf-syntax-ns#"
   xmlns:svg="http://www.w3.org/2000/svg"
   xmlns="http://www.w3.org/2000/svg"
   xmlns:sodipodi="http://sodipodi.sourceforge.net/DTD/sodipodi-0.dtd"
   xmlns:inkscape="http://www.inkscape.org/namespaces/inkscape"
   width="64.791939mm"
   height="61.262417mm"
   viewBox="0 0 64.791939 61.262417"
   version="1.1"
   id="svg169"
   inkscape:version="1.0.1 (3bc2e813f5, 2020-09-07)"
   sodipodi:docname="notification.svg">
  <defs
     id="defs163">
    <clipPath
       clipPathUnits="userSpaceOnUse"
       id="clipEmfPath1-9">
      <path
         d="M 0,0 H 244.88292 V 231.543 H 0 Z"
         id="path73" />
    </clipPath>
  </defs>
  <sodipodi:namedview
     id="base"
     pagecolor="#ffffff"
     bordercolor="#666666"
     borderopacity="1.0"
     inkscape:pageopacity="0.0"
     inkscape:pageshadow="2"
     inkscape:zoom="1.025543"
     inkscape:cx="218.38586"
     inkscape:cy="137.39969"
     inkscape:document-units="mm"
     inkscape:current-layer="layer1"
     inkscape:document-rotation="0"
     showgrid="false"
     inkscape:window-width="1366"
     inkscape:window-height="715"
     inkscape:window-x="-8"
     inkscape:window-y="-8"
     inkscape:window-maximized="1"
     inkscape:object-paths="true"
     inkscape:snap-intersection-paths="true"
     inkscape:snap-smooth-nodes="true"
     inkscape:snap-nodes="false"
     inkscape:snap-global="false" />
  <metadata
     id="metadata166">
    <rdf:RDF>
      <cc:Work
         rdf:about="">
        <dc:format>image/svg+xml</dc:format>
        <dc:type
           rdf:resource="http://purl.org/dc/dcmitype/StillImage" />
        <dc:title></dc:title>
      </cc:Work>
    </rdf:RDF>
  </metadata>
  <g
     inkscape:label="Layer 1"
     inkscape:groupmode="layer"
     id="layer1"
     transform="translate(-24.300459,-121.31522)">
    <path
       style="fill:#000000;stroke-width:0.208443"
       d="m 54.622866,178.90055 c -0.866735,-0.20452 -1.832751,-0.50956 -2.146705,-0.67788 -1.004414,-0.53849 -2.646111,-2.52825 -3.59325,-4.35506 -0.28661,-0.55281 -0.65248,-1.11561 -0.813054,-1.25067 -0.203124,-0.17085 -2.169045,-0.27726 -6.46176,-0.34977 l -6.16981,-0.10426 -1.04222,-0.60143 c -2.096137,-1.20961 -2.605548,-1.9771 -2.605548,-3.9256 0,-1.65776 0.601313,-2.64229 2.067632,-3.38532 1.119359,-0.56724 2.208202,-1.87718 2.515575,-3.0264 0.107991,-0.40377 0.184639,-3.40741 0.170329,-6.67477 -0.02087,-4.76445 0.03646,-6.14699 0.289592,-6.98286 0.173584,-0.57322 0.621513,-2.16781 0.995396,-3.54355 0.77263,-2.84295 1.037667,-3.4387 2.681913,-6.0284 1.932524,-3.04374 4.884991,-5.74572 7.578935,-6.93595 2.173428,-0.96024 2.354366,-1.11744 3.19203,-2.77316 0.852508,-1.68507 1.283469,-2.07989 3.159692,-2.8947 1.995144,-0.86647 2.87888,-0.84843 4.74572,0.0968 1.694938,0.85821 2.63249,1.82416 3.257254,3.35591 0.468634,1.14899 0.437075,1.12639 3.134228,2.2432 1.286502,0.5327 2.883002,1.77104 5.42453,4.20759 0.831197,0.79686 2.934808,4.21113 3.901036,6.3316 0.339558,0.74517 0.728843,1.91767 0.865081,2.60554 0.136238,0.68785 0.437878,1.95416 0.670308,2.81398 0.377405,1.39613 0.425878,2.24738 0.453193,7.95854 l 0.03057,6.39521 0.62816,0.89377 c 0.34549,0.49157 1.047878,1.19358 1.560865,1.56002 2.172601,1.55197 2.645292,2.41003 2.449598,4.44666 -0.130108,1.35409 -1.053535,2.50978 -2.620011,3.27903 l -1.189771,0.58427 -6.184302,0.10426 c -3.401362,0.0574 -6.227687,0.15112 -6.280723,0.20844 -0.05302,0.0574 -0.381028,0.67213 -0.728883,1.36624 -0.608172,1.21356 -1.530299,2.47874 -2.686069,3.68537 -1.290384,1.34716 -4.657351,1.98501 -7.249543,1.37333 z m 5.226739,-2.38636 c 1.211524,-0.84832 2.216506,-2.04086 2.4722,-2.93358 0.08949,-0.31245 -0.0047,-0.59444 -0.296267,-0.88589 -0.406774,-0.40678 -0.66488,-0.42755 -5.31109,-0.42755 -4.161663,0 -4.931961,0.0484 -5.211102,0.32755 -0.443534,0.44353 -0.412588,0.87488 0.141445,1.97166 0.501196,0.99217 2.118951,2.36534 3.178773,2.69818 0.343929,0.10802 1.339355,0.17673 2.212045,0.1527 1.489956,-0.0411 1.661566,-0.0961 2.813996,-0.90307 z m 18.010792,-6.46152 c 0.99399,-0.39773 1.455313,-1.14939 1.455313,-2.37127 0,-1.25273 -0.47511,-2.02312 -1.407327,-2.28201 -1.123872,-0.31211 -41.441919,-0.30173 -42.338745,0.0109 -0.705793,0.24605 -1.69468,1.65572 -1.69468,2.41578 0,0.59689 1.364739,2.30972 1.926414,2.41777 0.258879,0.0498 9.637714,0.10329 20.841856,0.11895 18.354817,0.0257 20.454906,-0.005 21.217169,-0.31012 z m -3.443337,-7.42603 0.54413,-0.46899 -0.0163,-6.61969 c -0.01773,-7.18999 -0.190998,-8.92035 -1.111266,-11.09805 -1.487072,-3.51898 -1.819114,-4.2529 -2.365962,-5.22958 -0.326638,-0.58337 -0.946652,-1.42757 -1.377795,-1.87599 -0.431141,-0.44841 -1.23437,-1.28429 -1.784945,-1.85751 -1.126385,-1.17271 -2.062322,-1.78808 -5.230891,-3.43933 l -2.199915,-1.14643 -0.445283,-1.31183 c -0.389576,-1.14772 -0.572461,-1.3942 -1.461924,-1.97037 -0.854485,-0.55351 -1.216141,-0.65838 -2.267312,-0.6575 -1.017555,7.9e-4 -1.433933,0.11453 -2.23398,0.60987 -0.851594,0.52726 -1.061012,0.80393 -1.563325,2.06531 l -0.580016,1.45652 -1.980215,1.00341 c -3.564551,1.80628 -4.521946,2.49859 -6.56682,4.74855 -1.377026,1.51513 -3.47076,5.34146 -4.218345,7.7091 -0.996043,3.15453 -1.078863,3.96589 -1.096266,10.73984 -0.0092,3.55122 -0.01283,6.61794 -0.0082,6.8149 0.0045,0.19698 0.26631,0.49806 0.581581,0.6691 0.49456,0.26831 2.924297,0.31212 17.706099,0.31933 l 17.132885,0.009 0.544131,-0.469 z"
       id="path1005" />
  </g>
</svg>
