<?xml version="1.0" encoding="UTF-8" standalone="no"?>
<svg
   xmlns:dc="http://purl.org/dc/elements/1.1/"
   xmlns:cc="http://creativecommons.org/ns#"
   xmlns:rdf="http://www.w3.org/1999/02/22-rdf-syntax-ns#"
   xmlns:svg="http://www.w3.org/2000/svg"
   xmlns="http://www.w3.org/2000/svg"
   xmlns:sodipodi="http://sodipodi.sourceforge.net/DTD/sodipodi-0.dtd"
   xmlns:inkscape="http://www.inkscape.org/namespaces/inkscape"
   width="39.244896mm"
   height="39.209339mm"
   viewBox="0 0 39.244899 39.209341"
   version="1.1"
   id="svg8"
   inkscape:version="1.0.1 (3bc2e813f5, 2020-09-07)"
   sodipodi:docname="save.svg">
  <defs
     id="defs2" />
  <sodipodi:namedview
     id="base"
     pagecolor="#ffffff"
     bordercolor="#666666"
     borderopacity="1.0"
     inkscape:pageopacity="0.0"
     inkscape:pageshadow="2"
     inkscape:zoom="2"
     inkscape:cx="57.040552"
     inkscape:cy="93.417766"
     inkscape:document-units="mm"
     inkscape:current-layer="layer1"
     inkscape:document-rotation="0"
     showgrid="false"
     inkscape:window-width="1680"
     inkscape:window-height="997"
     inkscape:window-x="-8"
     inkscape:window-y="-8"
     inkscape:window-maximized="1"
     inkscape:snap-bbox="true"
     inkscape:snap-object-midpoints="true"
     inkscape:snap-intersection-paths="true"
     showguides="true"
     inkscape:guide-bbox="true"
     inkscape:snap-smooth-nodes="true"
     inkscape:object-paths="true"
     inkscape:snap-global="true" />
  <metadata
     id="metadata5">
    <rdf:RDF>
      <cc:Work
         rdf:about="">
        <dc:format>image/svg+xml</dc:format>
        <dc:type
           rdf:resource="http://purl.org/dc/dcmitype/StillImage" />
        <dc:title></dc:title>
      </cc:Work>
    </rdf:RDF>
  </metadata>
  <g
     inkscape:label="Layer 1"
     inkscape:groupmode="layer"
     id="layer1"
     transform="translate(174.57721,-72.027462)">
    <g
       id="g1081"
       transform="matrix(0.92577236,0,0,0.92577236,-11.501926,6.8016369)">
      <path
         style="fill:#ff0000;stroke-width:0.0400913"
         d="m -173.11485,111.0718 c -0.72969,-0.39755 -1.15281,-0.86315 -1.34386,-1.4788 -0.11173,-0.36004 -0.13287,-4.34159 -0.11056,-20.827419 l 0.0203,-14.954055 0.15625,-0.294542 c 0.37428,-0.70554 0.60227,-0.937171 1.22986,-1.249495 l 0.34877,-0.173568 0.60137,-0.03027 c 0.33075,-0.01665 1.58009,-0.0316 2.77633,-0.03323 l 2.17495,-0.0029 0.004,1.814131 c 0.007,3.930812 0.0673,8.304837 0.11665,8.4663 0.0589,0.192573 0.45084,0.597755 0.62209,0.643114 0.36381,0.09636 19.77561,0.08409 20.07198,-0.0127 0.17587,-0.05743 0.57134,-0.467363 0.61162,-0.633969 0.0413,-0.170684 0.0974,-4.355179 0.10061,-7.500556 l 0.003,-2.776323 h 1.55362 1.55362 l 3.64597,3.646132 3.64597,3.646132 -0.0113,15.084853 -0.0113,15.084855 -0.16399,0.30236 c -0.38205,0.70438 -0.66457,0.97839 -1.38112,1.33954 l -0.20915,0.10541 -17.85198,-5.6e-4 -17.85199,-5.6e-4 z m 32.40955,-2.48604 c 0.39545,-0.36235 0.39346,-0.35605 0.42915,-1.35814 0.0412,-1.15669 0.0406,-15.253585 -6.4e-4,-16.407482 l -0.0327,-0.9122 -0.1146,-0.165383 c -0.0631,-0.09096 -0.20776,-0.241258 -0.3216,-0.333993 l -0.20699,-0.168607 -7.16746,-0.02671 c -9.13384,-0.03403 -17.05753,-0.03012 -19.16194,0.0095 l -1.6442,0.03093 -0.16161,0.102015 c -0.19542,0.123366 -0.38676,0.335359 -0.50876,0.563665 l -0.0905,0.169273 -0.012,4.951279 c -0.0133,5.518343 0.0455,12.806653 0.10515,13.039273 0.044,0.1715 0.18083,0.34172 0.46805,0.58225 l 0.20046,0.16787 13.97604,9.2e-4 13.97604,9.1e-4 0.26793,-0.24551 z m -23.39004,-3.47773 -1.10354,-0.0253 -0.20637,-0.13251 c -0.23357,-0.14996 -0.38046,-0.325 -0.50056,-0.59651 -0.0662,-0.14952 -0.0788,-0.24267 -0.0639,-0.4704 0.0214,-0.32713 0.12473,-0.56552 0.34619,-0.79843 0.25519,-0.26838 0.29056,-0.27696 1.30873,-0.31731 1.21208,-0.048 18.92207,-0.006 19.39833,0.0453 0.32774,0.0358 0.36922,0.0507 0.54123,0.19413 0.10327,0.0862 0.23674,0.25275 0.29952,0.37389 0.10555,0.20368 0.1122,0.24433 0.098,0.59936 -0.017,0.42349 -0.0658,0.5535 -0.2933,0.78101 -0.26143,0.26143 -0.27964,0.26679 -1.0297,0.30333 -0.84214,0.041 -17.24626,0.079 -18.79458,0.0434 z m -0.7607,-4.93314 c -0.4279,-0.0265 -0.56845,-0.0889 -0.81573,-0.362641 -0.20722,-0.229371 -0.2765,-0.389262 -0.29784,-0.687413 -0.0328,-0.457783 0.17163,-0.885423 0.53256,-1.114319 0.15268,-0.09683 0.23493,-0.116512 0.5897,-0.141132 0.59372,-0.04117 18.54447,-0.02748 19.46759,0.01488 0.83905,0.03852 0.84538,0.04026 1.10871,0.303561 0.21551,0.215513 0.2745,0.361967 0.29464,0.731438 0.0236,0.433449 -0.0373,0.643494 -0.25778,0.888713 -0.30374,0.337813 -0.25885,0.329823 -2.05683,0.366663 -1.78379,0.0366 -17.97393,0.0368 -18.56502,2.5e-4 z m 0.90205,-4.889453 c -1.41153,-0.02848 -1.35463,-0.01525 -1.71146,-0.396748 -0.24489,-0.261806 -0.32942,-0.495613 -0.30405,-0.840947 0.0315,-0.428524 0.2723,-0.824664 0.60947,-1.002587 0.21168,-0.111704 1.16629,-0.124608 9.2038,-0.124404 7.28414,2e-4 11.25445,0.0343 11.52597,0.09902 0.0667,0.01591 0.21904,0.127997 0.3432,0.252594 0.27521,0.276173 0.33649,0.460636 0.31065,0.935059 -0.0202,0.369468 -0.0791,0.515921 -0.29464,0.731435 -0.26197,0.26197 -0.27057,0.264353 -1.08805,0.301835 -0.91172,0.04181 -16.84005,0.08015 -18.59489,0.04473 z m 9.81067,-14.890433 -0.16872,-0.171905 v -4.097818 -4.097818 h 2.42553 2.42552 v 4.097818 4.097818 l -0.16871,0.171905 -0.1687,0.171906 h -2.08811 -2.0881 z"
         id="path998" />
      <path
         style="fill:#4d4d4d;stroke-width:0.0400913"
         d="m -173.11486,111.0718 c -0.72969,-0.39755 -1.15281,-0.86315 -1.34386,-1.4788 -0.11173,-0.36004 -0.13287,-4.34159 -0.11056,-20.827422 l 0.0203,-14.954053 0.15625,-0.294542 c 0.37428,-0.70554 0.60227,-0.937171 1.22986,-1.249495 l 0.34877,-0.173568 0.60137,-0.03027 c 0.33075,-0.01665 1.58009,-0.0316 2.77633,-0.03323 l 2.17495,-0.0029 0.004,1.814131 c 0.007,3.930812 0.0673,8.304837 0.11665,8.4663 0.0589,0.192573 0.45084,0.597755 0.62209,0.643114 0.36381,0.09636 19.77561,0.08409 20.07198,-0.0127 0.17586,-0.05743 0.57133,-0.467363 0.61161,-0.633969 0.0413,-0.170684 0.0974,-4.355179 0.10062,-7.500556 l 0.003,-2.776323 h 1.55362 1.55362 l 3.64597,3.646132 3.64598,3.646132 -0.0113,15.084857 -0.0113,15.084852 -0.16399,0.30236 c -0.38205,0.70438 -0.66457,0.97839 -1.38112,1.33954 l -0.20915,0.10541 -17.85198,-5.3e-4 -17.85199,-5.3e-4 z m 32.40954,-2.48604 c 0.39546,-0.36235 0.39347,-0.35605 0.42916,-1.35814 0.0412,-1.15669 0.0406,-15.253582 -5.3e-4,-16.407482 l -0.0327,-0.9122 -0.1146,-0.16538 c -0.0631,-0.091 -0.20776,-0.24126 -0.3216,-0.334 l -0.20711,-0.1686 -7.16745,-0.0267 c -9.13384,-0.034 -17.05753,-0.0301 -19.16194,0.01 l -1.6442,0.0309 -0.16161,0.10201 c -0.19542,0.12337 -0.38676,0.33536 -0.50876,0.56367 l -0.0905,0.16927 -0.012,4.95128 c -0.0133,5.518332 0.0455,12.806652 0.10515,13.039272 0.044,0.1715 0.18083,0.34172 0.46805,0.58225 l 0.20046,0.16787 13.97604,7.9e-4 13.97603,7.9e-4 0.26793,-0.24551 z m -13.43801,-28.190757 -0.16872,-0.171905 V 76.12528 72.027462 h 2.42553 2.42552 v 4.097818 4.097818 l -0.16871,0.171905 -0.1687,0.171906 h -2.08811 -2.0881 z"
         id="path998-7"
         sodipodi:nodetypes="csccsscsccccsscccccccccsscccccscccccccccccccscccccccccccccccccc" />
      <path
         style="fill:#cccccc;fill-opacity:1;stroke:none;stroke-width:0.230685"
         d="m -167.2612,72.027624 0.004,1.814359 c 0.007,3.930812 0.0669,8.304687 0.11627,8.46615 0.0589,0.192573 0.45094,0.597496 0.62219,0.642855 0.36381,0.09636 19.77579,0.08439 20.07216,-0.0124 0.17586,-0.05743 0.57105,-0.467464 0.61133,-0.63407 0.0413,-0.170684 0.0975,-4.354941 0.10077,-7.500318 l 0.003,-2.776574 h -3.72949 v 4.097941 4.097424 l -0.16898,0.172083 -0.16847,0.172082 h -2.08824 -2.08825 l -0.16846,-0.172082 -0.16898,-0.172083 v -4.097424 -4.097941 z"
         id="path1068" />
    </g>
  </g>
</svg>
