<svg height="512pt" viewBox="0 0 512 512" width="512pt" xmlns="http://www.w3.org/2000/svg" xmlns:xlink="http://www.w3.org/1999/xlink"><linearGradient id="a" gradientUnits="userSpaceOnUse" x1="256" x2="256" y1=".0002" y2="511.1438"><stop offset="0" stop-color="#2af598"/><stop offset="1" stop-color="#009efd"/></linearGradient><path d="m512 186v40h-150v-40zm-191-126v299.148438c0 21.367187-8.320312 41.457031-23.429688 56.566406l-95.429687 95.429687-97.140625-95.21875c-15.253906-14.949219-24-35.773437-24-57.128906v-132.796875h-81v-40h81v-126c0-33.085938 26.914062-60 60-60h120c33.085938 0 60 26.914062 60 60zm-40 0c0-11.027344-8.972656-20-20-20h-120c-11.027344 0-20 8.972656-20 20v298.796875c0 10.675781 4.375 21.089844 12 28.5625l68.859375 67.496094 67.425781-67.425781c7.554688-7.554688 11.714844-17.597657 11.714844-28.28125zm0 0" fill="url(#a)"/></svg>