<?xml version="1.0" encoding="UTF-8" standalone="no"?>
<svg
   xmlns:dc="http://purl.org/dc/elements/1.1/"
   xmlns:cc="http://creativecommons.org/ns#"
   xmlns:rdf="http://www.w3.org/1999/02/22-rdf-syntax-ns#"
   xmlns:svg="http://www.w3.org/2000/svg"
   xmlns="http://www.w3.org/2000/svg"
   xmlns:sodipodi="http://sodipodi.sourceforge.net/DTD/sodipodi-0.dtd"
   xmlns:inkscape="http://www.inkscape.org/namespaces/inkscape"
   width="61.522709mm"
   height="60.773746mm"
   viewBox="0 0 61.52271 60.773747"
   version="1.1"
   id="svg8"
   inkscape:version="0.92.5 (2060ec1f9f, 2020-04-08)"
   sodipodi:docname="upload.svg">
  <defs
     id="defs2">
    <clipPath
       clipPathUnits="userSpaceOnUse"
       id="clipEmfPath1">
      <path
         d="M 0,0 H 232.49585 V 230.59015 H 0 Z"
         id="path10"
         inkscape:connector-curvature="0" />
    </clipPath>
    <pattern
       id="EMFhbasepattern"
       patternUnits="userSpaceOnUse"
       width="6"
       height="6"
       x="0"
       y="0" />
    <clipPath
       clipPathUnits="userSpaceOnUse"
       id="clipEmfPath1-1">
      <path
         d="M 0,0 H 208.67455 V 202.95744 H 0 Z"
         id="path31"
         inkscape:connector-curvature="0" />
    </clipPath>
    <pattern
       id="EMFhbasepattern-4"
       patternUnits="userSpaceOnUse"
       width="6"
       height="6"
       x="0"
       y="0" />
    <clipPath
       clipPathUnits="userSpaceOnUse"
       id="clipEmfPath1-4">
      <path
         d="M 0,0 H 214.39166 V 234.40155 H 0 Z"
         id="path52"
         inkscape:connector-curvature="0" />
    </clipPath>
    <pattern
       id="EMFhbasepattern-47"
       patternUnits="userSpaceOnUse"
       width="6"
       height="6"
       x="0"
       y="0" />
    <clipPath
       clipPathUnits="userSpaceOnUse"
       id="clipEmfPath1-9">
      <path
         d="M 0,0 H 244.88292 V 231.543 H 0 Z"
         id="path73"
         inkscape:connector-curvature="0" />
    </clipPath>
    <pattern
       id="EMFhbasepattern-45"
       patternUnits="userSpaceOnUse"
       width="6"
       height="6"
       x="0"
       y="0" />
  </defs>
  <sodipodi:namedview
     id="base"
     pagecolor="#ffffff"
     bordercolor="#666666"
     borderopacity="1.0"
     inkscape:pageopacity="0.0"
     inkscape:pageshadow="2"
     inkscape:zoom="0.87849269"
     inkscape:cx="223.62668"
     inkscape:cy="62.064262"
     inkscape:document-units="mm"
     inkscape:current-layer="layer1"
     inkscape:document-rotation="0"
     showgrid="false"
     inkscape:window-width="1078"
     inkscape:window-height="677"
     inkscape:window-x="521"
     inkscape:window-y="174"
     inkscape:window-maximized="0" />
  <metadata
     id="metadata5">
    <rdf:RDF>
      <cc:Work
         rdf:about="">
        <dc:format>image/svg+xml</dc:format>
        <dc:type
           rdf:resource="http://purl.org/dc/dcmitype/StillImage" />
        <dc:title />
      </cc:Work>
    </rdf:RDF>
  </metadata>
  <g
     inkscape:label="Layer 1"
     inkscape:groupmode="layer"
     id="layer1"
     transform="translate(164.16115,-98.093145)">
    <g
       id="g845">
      <path
         style="fill:#fb0202;stroke-width:0.25210872"
         d="m -164.14258,145.56815 c 0.0204,-14.62872 0.007,-14.49426 1.55109,-15.43575 1.1794,-0.71906 2.19723,-0.65041 3.23817,0.2184 l 0.87286,0.72852 0.0707,10.99453 0.0707,10.99454 h 24.95107 24.95105 v -10.57215 c 0,-5.97802 0.10284,-10.84266 0.23667,-11.19463 0.42923,-1.12899 1.26402,-1.67933 2.54725,-1.67933 1.30089,0 2.30578,0.68962 2.76504,1.89757 0.15324,0.40306 0.24954,5.80648 0.24954,14.00169 v 13.34535 h -30.76135 -30.76136 z m 21.41891,-11.15581 V 121.3027 h -4.03374 c -2.21856,0 -4.0336,-0.0851 -4.03343,-0.18908 1.7e-4,-0.10401 0.25543,-0.4905 0.56724,-0.85891 0.31182,-0.36841 0.73711,-0.92118 0.9451,-1.2284 0.20799,-0.30722 0.49313,-0.6865 0.63364,-0.84283 0.14051,-0.15634 0.73509,-0.90822 1.3213,-1.67084 0.58621,-0.76263 1.15718,-1.50005 1.26882,-1.63871 0.11165,-0.13866 0.87845,-1.15962 1.704,-2.26879 1.6655,-2.23767 1.88692,-2.52757 2.26934,-2.97122 0.14525,-0.16851 0.76922,-0.98708 1.38659,-1.81904 0.61738,-0.83195 1.23595,-1.65052 1.37461,-1.81903 0.61999,-0.75348 0.84244,-1.04209 1.9012,-2.46668 1.3932,-1.87459 1.3964,-1.87876 2.03686,-2.64728 0.28889,-0.34664 0.87578,-1.115925 1.30419,-1.709505 l 0.77894,-1.07924 0.577,0.70107 c 0.73276,0.89033 0.68706,0.83044 2.45926,3.222355 0.8218,1.10918 1.55987,2.07341 1.64014,2.14274 0.0803,0.0693 0.65043,0.80675 1.26701,1.6387 0.61658,0.83196 1.23991,1.65053 1.38516,1.81904 0.39033,0.45282 0.62228,0.75743 2.26252,2.97122 0.8218,1.10917 1.55986,2.0734 1.64013,2.14273 0.0803,0.0693 0.65043,0.80675 1.26702,1.63871 0.61658,0.83196 1.2399,1.64056 1.38516,1.7969 0.14526,0.15633 0.43428,0.53618 0.64227,0.84411 0.20799,0.30793 0.97377,1.33235 1.70173,2.2765 0.72796,0.94415 1.32357,1.78387 1.32357,1.86606 0,0.0822 -1.81518,0.14942 -4.03374,0.14942 h -4.03374 v 13.10965 13.10965 h -9.45407 -9.45408 z"
         id="path834"
         inkscape:connector-curvature="0" />
      <path
         style="fill:#fa0202;stroke-width:0.25210872"
         d="m -127.9591,104.98953 c -0.13682,-0.3593 -0.10786,-0.38826 0.14113,-0.14112 0.1723,0.17101 0.24976,0.37444 0.17213,0.45206 -0.0776,0.0776 -0.21859,-0.0623 -0.31326,-0.31094 z"
         id="path832"
         inkscape:connector-curvature="0" />
      <path
         style="fill:#fb0101;stroke-width:0.25210872"
         d="m -158.23922,152.75283 c -0.0666,-0.17355 -0.0901,-4.85332 -0.0521,-10.39948 l 0.069,-10.08393 0.06,10.27219 0.0601,10.2722 24.76968,0.0655 24.76968,0.0655 -24.77759,0.0618 c -19.65279,0.049 -24.80264,-0.003 -24.89869,-0.25378 z m -5.40947,-21.96519 c 0,-0.0523 0.19853,-0.25089 0.44119,-0.44119 0.39986,-0.31359 0.40877,-0.30468 0.0952,0.0952 -0.32934,0.41995 -0.53637,0.5535 -0.53637,0.34601 z"
         id="path830"
         inkscape:connector-curvature="0" />
    </g>
  </g>
</svg>
