<?xml version="1.0" encoding="UTF-8" standalone="no"?>
<svg
   xmlns:dc="http://purl.org/dc/elements/1.1/"
   xmlns:cc="http://creativecommons.org/ns#"
   xmlns:rdf="http://www.w3.org/1999/02/22-rdf-syntax-ns#"
   xmlns:svg="http://www.w3.org/2000/svg"
   xmlns="http://www.w3.org/2000/svg"
   xmlns:sodipodi="http://sodipodi.sourceforge.net/DTD/sodipodi-0.dtd"
   xmlns:inkscape="http://www.inkscape.org/namespaces/inkscape"
   width="90.079475mm"
   height="96.949753mm"
   viewBox="0 0 90.079475 96.949753"
   version="1.1"
   id="svg8"
   inkscape:version="1.0.1 (3bc2e813f5, 2020-09-07)"
   sodipodi:docname="blue_brush.svg">
  <defs
     id="defs2" />
  <sodipodi:namedview
     id="base"
     pagecolor="#ffffff"
     bordercolor="#666666"
     borderopacity="1.0"
     inkscape:pageopacity="0.0"
     inkscape:pageshadow="2"
     inkscape:zoom="0.98994949"
     inkscape:cx="435.36191"
     inkscape:cy="274.75405"
     inkscape:document-units="mm"
     inkscape:current-layer="layer1"
     inkscape:document-rotation="0"
     showgrid="false"
     inkscape:window-width="1680"
     inkscape:window-height="997"
     inkscape:window-x="-8"
     inkscape:window-y="-8"
     inkscape:window-maximized="1" />
  <metadata
     id="metadata5">
    <rdf:RDF>
      <cc:Work
         rdf:about="">
        <dc:format>image/svg+xml</dc:format>
        <dc:type
           rdf:resource="http://purl.org/dc/dcmitype/StillImage" />
        <dc:title></dc:title>
      </cc:Work>
    </rdf:RDF>
  </metadata>
  <g
     inkscape:label="Layer 1"
     inkscape:groupmode="layer"
     id="layer1"
     transform="translate(-12.786278,-26.96123)">
    <path
       style="fill:#3ea8f4;stroke-width:0.187076"
       d="m 50.442349,119.68623 c -1.678283,-0.14361 -2.196282,-0.4597 -3.658636,-2.23259 -1.16107,-1.40762 -2.340219,-3.70567 -2.803654,-5.46408 -0.176263,-0.6688 -0.377004,-2.14203 -0.446098,-3.27383 l -0.125616,-2.05784 -0.384415,0.84184 c -0.726354,1.59068 -1.071457,3.35109 -1.063523,5.42521 0.0091,2.37249 0.414527,3.61299 1.694567,5.18454 0.654235,0.80321 0.785833,1.07083 0.588174,1.19606 -0.340788,0.21593 -4.212052,0.20034 -5.939526,-0.0239 -0.760174,-0.0987 -1.833745,-0.38617 -2.38571,-0.63887 -1.422724,-0.65133 -2.941439,-2.1565 -3.671484,-3.63872 l -0.60494,-1.22819 -0.05564,-6.58902 c -0.05261,-6.23311 -0.03592,-6.62747 0.31025,-7.300516 0.428286,-0.832791 1.166669,-1.55792 2.083846,-2.046428 0.627599,-0.334268 1.520298,-0.348739 21.513763,-0.348739 19.993457,0 20.886155,0.01453 21.513756,0.348739 0.911541,0.485505 1.654935,1.212447 2.074972,2.02903 0.313637,0.609754 0.357376,1.121144 0.359978,4.209214 0.0072,8.58444 0.691143,10.97324 3.507191,12.2501 0.990096,0.44893 1.180938,0.6086 1.132031,0.94712 -0.07169,0.49625 -1.061155,1.18956 -2.098143,1.47015 -2.638095,0.7138 -11.133931,1.22847 -15.578104,0.94371 -2.056744,-0.13179 -2.39592,-0.20618 -3.503735,-0.76848 -1.501971,-0.76236 -3.307567,-2.52063 -3.961916,-3.85807 -0.263506,-0.53859 -0.576628,-1.49246 -0.695838,-2.11972 -0.119203,-0.62725 -0.286316,-1.14047 -0.371355,-1.14047 -0.293649,0 -1.096557,2.05993 -1.202319,3.08464 -0.174784,1.69356 0.633674,3.15112 2.299202,4.14519 0.290969,0.17367 0.314422,0.26129 0.123262,0.46057 -0.265501,0.27677 -6.140614,0.40809 -8.650336,0.19334 z M 36.289161,92.902619 c -1.72968,-0.347952 -3.227133,-1.452606 -4.09647,-3.021938 l -0.551203,-0.995037 -0.05338,-9.18873 c -0.05204,-8.949063 -0.04313,-9.216171 0.340033,-10.2403 0.466037,-1.245598 1.643092,-2.504899 2.936722,-3.141919 0.869316,-0.42808 1.040678,-0.440814 6.644924,-0.493837 l 5.752593,-0.05442 v -15.20573 c 0,-16.822632 -0.04377,-16.181881 1.205791,-17.641745 0.343341,-0.401117 1.075389,-0.979176 1.62676,-1.284574 l 1.002504,-0.555269 h 4.302755 4.302753 l 1.07087,0.525861 c 0.588974,0.289224 1.363112,0.867282 1.720298,1.284576 1.278512,1.493648 1.230969,0.811174 1.230969,17.671151 v 15.205724 l 5.752594,0.05442 c 5.577936,0.05277 5.779256,0.06756 6.630888,0.487044 1.121008,0.552166 2.252593,1.683751 2.804757,2.804759 l 0.432621,0.878299 v 9.447351 9.447339 l -0.551202,0.995037 c -0.671126,1.211519 -1.52908,1.990478 -2.901171,2.634036 l -1.037454,0.486609 -18.894695,0.02883 c -10.392078,0.01584 -19.244583,-0.0415 -19.672226,-0.127561 z"
       id="path939" />
  </g>
</svg>
