<svg id="Layer_1" data-name="Layer 1" xmlns="http://www.w3.org/2000/svg" viewBox="0 0 37 35"><defs><style>.cls-1{fill:#d09892;}</style></defs><path class="cls-1" d="M9.48,23.07l2.94-3c4.66-4.61,9.46-9.06,14.5-13.22a69.33,69.33,0,0,1,6.52-4.94,22.08,22.08,0,0,1,2-1.1,2.4,2.4,0,0,1,.77-.25c.31-.06.48.11.43.43a1.94,1.94,0,0,1-.24.75c-.39.65-.79,1.31-1.23,1.92a60.15,60.15,0,0,1-3.89,4.67c-2.61,2.91-5.35,5.69-8.14,8.42Q18,21.72,12.68,26.33l-.22.17Z"/><path class="cls-1" d="M8.61,24.57c-2.42.82-4.23,2.39-4.35,3.85a10.45,10.45,0,0,1,.61-.87,5.18,5.18,0,0,1,3.9-1.82c.83,0,.84,0,1.4.64a2.73,2.73,0,0,0,.27.31,1.12,1.12,0,0,1,.34,1.11A5.13,5.13,0,0,1,9,31.17a5.08,5.08,0,0,1-2,1c-1.19.38-2.39.7-3.56,1.1-.86.29-1.7.66-2.54,1l-.41.17c0-.06,0-.09,0-.11A39.81,39.81,0,0,1,2.27,29a11.18,11.18,0,0,1,1.78-2.83,5.08,5.08,0,0,1,3.25-1.8,4.31,4.31,0,0,1,1,0C8.38,24.4,8.49,24.51,8.61,24.57Z"/></svg>