<svg id="Layer_1" data-name="Layer 1" xmlns="http://www.w3.org/2000/svg" viewBox="0 0 37 35"><defs><style>.cls-1{fill:#d09892;}</style></defs><path class="cls-1" d="M6,22.66a33.24,33.24,0,0,0,8.24-1.05,11,11,0,0,0,4.92-2.69,6.73,6.73,0,0,1,3.15-2.06,2.26,2.26,0,0,0,1.73-1.45c2.35-4.6,4.73-9.18,7.09-13.77A2,2,0,0,1,32.41.44,1.73,1.73,0,0,1,34.28,1a1.79,1.79,0,0,1,.2,2.11c-1,2-2,4-3.07,6q-2.23,4.34-4.48,8.66a1.09,1.09,0,0,0,0,1.13,4.67,4.67,0,0,1,.57,1.76,15.25,15.25,0,0,1-2.22,9.7,9.69,9.69,0,0,1-10.2,4A21.39,21.39,0,0,1,6,29.93a12.5,12.5,0,0,1-3.55-5c-.53-1.38.15-2.3,1.63-2.27C4.72,22.67,5.37,22.66,6,22.66ZM17.94,33.08l.17.1h.2a8.23,8.23,0,0,0,5.78-3.51,13.36,13.36,0,0,0,2-5.21c.1-.6-.07-.78-.67-.82A7.28,7.28,0,0,1,19.86,21c-.35-.44-.54-.34-.94-.1a17.87,17.87,0,0,1-3.05,1.62A32,32,0,0,1,4.55,24.05c-.28,0-.57,0-1,.05.38.75.7,1.35,1,2a1.3,1.3,0,0,0,1.14.8,9.06,9.06,0,0,0,5.24-.65c.45-.21.91-.33,1.17.21s-.15.82-.59,1a10.37,10.37,0,0,1-4.32.91c-.2,0-.39,0-.77,0,1,1,1.83,1.92,3.27,1.65.61-.11,1.24-.16,1.84-.3a13.21,13.21,0,0,0,6.58-4c.32-.34.68-.6,1.11-.22s.24.77-.1,1.13a14.66,14.66,0,0,1-7.47,4.47c-.22.05-.43.12-.64.18l0,.21c.8.31,1.6.64,2.42.93a2.44,2.44,0,0,0,1,.16A6.1,6.1,0,0,0,18.3,31a.68.68,0,1,1,.9,1C18.8,32.36,18.39,32.7,17.94,33.08Zm8.27-11.74a3.28,3.28,0,0,0-.9-2.42c-1.2-1.19-2.6-1.16-4.1,0-.75.6-.77.69-.11,1.4a6.38,6.38,0,0,0,4.24,1.92C26.23,22.38,26.26,22.34,26.21,21.34Zm-.63-4.09a4.85,4.85,0,0,0,.33-.48L32.75,3.52a7.09,7.09,0,0,0,.5-1c.06-.19-.08-.44-.14-.66a3.9,3.9,0,0,0-.64.26c-.1.06-.13.22-.19.33L29.76,7.29q-2.36,4.56-4.7,9.12C24.81,16.89,25,17.26,25.58,17.25Z"/><path class="cls-1" d="M26.81,30.46a2,2,0,1,1,2,2A2,2,0,0,1,26.81,30.46Zm2.13-.74h-.27c-.17.24-.43.45-.48.71a.52.52,0,0,0,.62.62.86.86,0,0,0,.58-.59C29.41,30.23,29.11,30,28.94,29.72Z"/><path class="cls-1" d="M29.72,26.81c-.25.17-.51.51-.73.48a.9.9,0,0,1-.65-.59A.54.54,0,0,1,29,26c.27,0,.5.32.75.5Z"/><path class="cls-1" d="M32.09,31.34c.17.25.49.52.46.76s-.38.44-.6.66c-.21-.22-.58-.42-.61-.66s.3-.5.46-.76Z"/><path class="cls-1" d="M25.31,32.43c.16.26.46.54.42.76s-.41.43-.63.64c-.21-.23-.56-.45-.58-.69s.31-.48.48-.72Z"/><path class="cls-1" d="M29,29.67c.21.27.59.56.57.82s-.44.59-.74.64a.61.61,0,0,1-.77-.68c.05-.28.38-.52.59-.77Z"/></svg>