<?xml version="1.0" encoding="utf-8"?><!-- Generator: Adobe Illustrator 24.1.0, SVG Export Plug-In . SVG Version: 6.00 Build 0)  --><svg version="1.1" id="Layer_1" xmlns="http://www.w3.org/2000/svg" xmlns:xlink="http://www.w3.org/1999/xlink" x="0px" y="0px"	 viewBox="0 0 1920 1080" style="enable-background:new 0 0 1920 1080;" xml:space="preserve"><style type="text/css">	.st0{fill:url(#SVGID_1_);}	.st1{fill:#C53528;}	.st2{opacity:0.75;fill:#FFFFFF;}	.st3{opacity:0.5;}	.st4{fill:#222221;}	.st5{fill:#F6E939;}	.st6{opacity:0.25;}	.st7{fill:#A0BF38;}	.st8{fill:#68A7DD;}	.st9{fill:#C51F6F;}	.st10{fill:#FFFFFF;}	.st11{fill:url(#SVGID_2_);}	.st12{opacity:0.1;fill:none;stroke:#242020;stroke-width:5.5202;}	.st13{opacity:0.05;fill:none;stroke:#242020;stroke-width:11.0405;}	.st14{fill:url(#SVGID_3_);}	.st15{fill:url(#SVGID_4_);}</style><g>	<path d="M-60.82,264.06v551.1h2042.56v-551.1H-60.82z"/>	<g>					<linearGradient id="SVGID_1_" gradientUnits="userSpaceOnUse" x1="303.9511" y1="498.9031" x2="309.1558" y2="498.9031" gradientTransform="matrix(3.438 1.2509 -1.2505 3.4377 -292.3361 -1412.4624)">			<stop  offset="0" style="stop-color:#D8D8D9"/>			<stop  offset="0.2418" style="stop-color:#FFFFFF"/>			<stop  offset="0.4396" style="stop-color:#EEEEEE"/>			<stop  offset="0.7582" style="stop-color:#A4A3A3"/>		</linearGradient>		<polygon class="st0" points="193.87,557.03 176.79,550.82 81.56,815.17 100.89,815.17 		"/>		<g>			<g>				<g>					<path class="st1" d="M154.24,713.18c13.71-10.84,25.81-25.7,30.78-40.52c7.29-21.74,9.64-39.9,3.69-67.03						c-2.34-10.66-9.65-33.55-13.01-47.21c-56.36,47.2-106.47,101.4-149.13,161.31c-2.9,4.07-1.19,6.96,3.8,6.5						c23.24-2.16,49.82-2.67,78.86-3.73C125.58,721.1,140.41,717.79,154.24,713.18z"/>				</g>				<g>					<path class="st2" d="M32.11,723.66C76.79,656.9,152.29,586.43,196.02,551.2c-2.67-1.04-5.38-2-8.13-2.83						c-61.34,49.5-115.61,107.15-161.32,171.34c-2.9,4.07-1.19,6.96,3.8,6.5c0.64-0.06,1.31-0.11,1.96-0.16						C31.74,725.43,31.61,724.58,32.11,723.66z"/>				</g>				<g class="st3">					<path class="st4" d="M164.59,709.44c10.33-9.22,21.97-23.74,27.14-38.22c7.38-20.65,8.45-45.83,2.28-71.18						c-1.37-5.65-3.05-11.3-4.67-16.77c-2.5-8.43-6.16-20.45-7.36-30.06c-9.34,7.68-18.54,15.52-27.54,23.57						c2.58,5.74,5.5,13.03,7.58,19.45c7.62,23.45,9.35,54.04,4.88,73.68c-6.16,27.04-29.27,42.67-57.68,52.56						C129.72,720.75,147.85,716.03,164.59,709.44z"/>				</g>			</g>			<g>				<g>					<g>						<path class="st5" d="M20.51,567.22c14.54,9.69,32.42,16.6,48.05,16.75c22.93,0.21,40.93-3.17,64.89-17.2							c9.42-5.52,28.92-19.54,40.88-26.96c-62.31-39.01-129.34-69.92-199.5-91.98c-4.77-1.5-6.99,1.02-5.01,5.62							c9.24,21.44,17.93,46.55,27.91,73.85C4.12,542.4,11.84,555.48,20.51,567.22z"/>					</g>					<g>						<path class="st2" d="M-27.2,454.31c77.3,21.86,167.66,71.89,214.67,102.59c0.16-2.86,0.24-5.73,0.18-8.61							c-66.03-43.04-137.63-76.84-212.81-100.48c-4.77-1.5-6.99,1.02-5.01,5.62c0.26,0.59,0.51,1.22,0.76,1.81							C-29,454.5-28.23,454.11-27.2,454.31z"/>					</g>					<g class="st3">						<path class="st4" d="M27.26,575.9c11.96,6.98,29.37,13.56,44.73,14.01c21.92,0.64,46.2-6.13,68.4-19.83							c4.95-3.05,9.8-6.39,14.5-9.62c7.24-4.98,17.55-12.18,26.31-16.28c-10.19-6.51-20.49-12.83-30.93-18.9							c-4.66,4.23-10.7,9.26-16.16,13.22c-19.95,14.49-48.5,25.59-68.57,27.41c-27.62,2.5-49.62-14.65-67.81-38.61							C5.73,546.24,15.82,562.02,27.26,575.9z"/>					</g>				</g>				<g>					<g>						<path class="st5" d="M68.56,583.96c-15.63-0.14-33.5-7.06-48.05-16.75c0.21,0.28,0.41,0.55,0.62,0.83							c1.66,2.23,3.36,4.42,5.09,6.56c0.35,0.43,0.69,0.87,1.04,1.3c6.89,7.32,15.74,14.43,23.04,19.07c2.42,1.53,4.67,2.8,6.61,3.7							c27.29,12.69,36.84,15.31,63.24,28.22c15.47,7.56,25.82,13.24,38.41-0.64c19.13-21.09,29.65-49.23,29.04-77.99							c-4.39-2.86-8.81-5.68-13.25-8.46c0,0-0.01,0-0.01-0.01c-11.96,7.42-31.46,21.45-40.88,26.96							C109.49,580.8,91.49,584.18,68.56,583.96z"/>					</g>					<g>						<path class="st2" d="M71.99,589.91c21.92,0.64,46.2-6.13,68.4-19.83c4.95-3.05,9.8-6.39,14.5-9.62							c7.24-4.98,17.54-12.18,26.3-16.28c-0.27-0.17-0.53-0.34-0.8-0.51c-2.03-1.3-4.09-2.55-6.13-3.83							c-11.97,7.43-31.42,21.42-40.82,26.92c-23.96,14.04-41.97,17.41-64.89,17.2c-15.63-0.14-33.5-7.06-48.05-16.75							c0.21,0.28,0.41,0.55,0.62,0.83c1.66,2.23,3.36,4.42,5.09,6.56c0.35,0.43,0.69,0.87,1.04,1.3							C39.22,582.88,56.62,589.46,71.99,589.91z"/>					</g>					<g class="st6">						<path class="st4" d="M120.2,626.93c15.47,7.56,25.82,13.24,38.41-0.64c19.13-21.09,29.65-49.22,29.04-77.99							c-3.61-2.35-7.24-4.67-10.88-6.96c-1.22,29.65-11.22,65.44-30.79,80.53c-6.73,5.18-19.19,8.25-25.79,5.02							c-0.01,0.01-0.01,0.03-0.02,0.04C120.18,626.92,120.19,626.92,120.2,626.93z"/>					</g>				</g>			</g>			<g>				<g>					<g>						<path class="st7" d="M118,394.92c-4.72,16.83-5.77,35.96-1.08,50.87c6.88,21.87,15.66,37.95,36.41,56.4							c8.16,7.25,27.52,21.47,38.28,30.55c17.85-71.31,26.53-144.62,25.83-218.16c-0.05-5-3.13-6.33-6.89-3.02							c-17.53,15.41-38.73,31.44-61.61,49.37C136.53,371.67,126.48,383.06,118,394.92z"/>					</g>					<g>						<path class="st2" d="M210.64,314.66c3.1,80.27-16.56,181.67-31.24,235.87c2.77-0.73,5.52-1.54,8.24-2.49							c20.53-76.1,30.55-154.64,29.8-233.44c-0.05-5-3.13-6.33-6.89-3.02c-0.48,0.43-1,0.86-1.49,1.28							C209.9,313.01,210.51,313.62,210.64,314.66z"/>					</g>					<g class="st3">						<path class="st4" d="M111.82,404.03c-2.94,13.53-3.82,32.12,0.5,46.87c6.16,21.04,20.11,42.05,39.99,58.93							c4.43,3.76,9.11,7.35,13.63,10.82c6.97,5.35,17.01,12.92,23.62,19.99c3.05-11.7,5.87-23.45,8.42-35.26							c-5.46-3.13-12.11-7.31-17.57-11.28c-19.95-14.49-39.33-38.22-47.25-56.75c-10.91-25.49-1.4-51.72,15.77-76.42							C133.39,374.39,121.49,388.86,111.82,404.03z"/>					</g>				</g>				<g>					<g>						<path class="st7" d="M116.92,445.8c-4.69-14.91-3.64-34.05,1.08-50.87c-0.2,0.28-0.4,0.56-0.6,0.84							c-1.61,2.27-3.16,4.56-4.66,6.87c-0.3,0.46-0.62,0.92-0.92,1.39c-4.83,8.81-8.86,19.43-11.01,27.8							c-0.71,2.77-1.22,5.3-1.48,7.43c-3.64,29.87-3.18,39.77-7.3,68.86c-2.42,17.05-4.62,28.65,12.48,36.33							c25.97,11.67,55.98,12.99,83.15,3.52c1.36-5.06,2.68-10.13,3.95-15.21c0,0,0-0.01,0-0.01c-10.75-9.08-30.12-23.3-38.28-30.55							C132.58,483.75,123.8,467.67,116.92,445.8z"/>					</g>					<g>						<path class="st2" d="M112.33,450.9c6.16,21.04,20.11,42.05,39.99,58.93c4.43,3.76,9.11,7.35,13.63,10.82							c6.97,5.35,17,12.92,23.61,19.98c0.08-0.3,0.16-0.61,0.24-0.91c0.6-2.33,1.17-4.68,1.75-7.01							c-10.76-9.08-30.08-23.26-38.22-30.5c-20.75-18.45-29.53-34.53-36.41-56.4c-4.69-14.91-3.64-34.05,1.08-50.87							c-0.2,0.28-0.4,0.56-0.6,0.84c-1.61,2.27-3.16,4.56-4.66,6.87c-0.3,0.46-0.62,0.92-0.92,1.39							C108.89,417.56,108.01,436.15,112.33,450.9z"/>					</g>					<g class="st6">						<path class="st4" d="M92.02,508.18c-2.42,17.05-4.62,28.65,12.48,36.33c25.97,11.67,55.98,12.99,83.15,3.52							c1.12-4.16,2.2-8.33,3.26-12.5c-28.58,8.01-65.71,9.55-86.1-4.4c-7.01-4.8-13.77-15.7-12.74-22.97c-0.02,0-0.03,0-0.05,0							C92.02,508.17,92.02,508.17,92.02,508.18z"/>					</g>				</g>			</g>			<g>				<g>					<g>						<path class="st8" d="M311.98,434.4c-17.46,0.71-35.98,5.62-48.72,14.69c-18.67,13.31-31.25,26.62-42.39,52.06							c-4.38,10-11.91,32.81-17.23,45.84c73.34-5.06,145.74-19.46,215.47-42.85c4.74-1.59,5.05-4.94,0.75-7.49							c-20.07-11.91-41.87-27.12-65.99-43.34C339.83,444.84,325.89,438.8,311.98,434.4z"/>					</g>					<g>						<path class="st2" d="M416.95,497.7c-75.39,27.75-177.89,40.39-233.97,43.18c1.55,2.41,3.17,4.78,4.92,7.07							c78.72-3.99,156.51-18.73,231.23-43.8c4.74-1.59,5.05-4.94,0.75-7.49c-0.55-0.33-1.12-0.69-1.68-1.02							C418.29,496.49,417.9,497.26,416.95,497.7z"/>					</g>					<g class="st3">						<path class="st4" d="M301.42,431.34c-13.78,1.39-31.73,6.3-44.42,14.96c-18.11,12.36-33.78,32.11-43.69,56.25							c-2.21,5.38-4.17,10.94-6.08,16.31c-2.93,8.29-7.04,20.17-11.71,28.64c12.07-0.72,24.12-1.66,36.13-2.89							c1.29-6.16,3.21-13.78,5.3-20.2c7.62-23.45,24.2-49.21,39.37-62.48c20.87-18.25,48.76-17.31,77.56-8.62							C336.27,442.69,318.83,435.85,301.42,431.34z"/>					</g>				</g>				<g>					<g>						<path class="st8" d="M263.27,449.1c12.73-9.07,31.25-13.98,48.72-14.69c-0.33-0.1-0.66-0.21-0.99-0.31							c-2.66-0.83-5.32-1.6-7.97-2.31c-0.53-0.14-1.07-0.3-1.6-0.44c-9.87-1.87-21.22-2.42-29.85-1.88							c-2.86,0.18-5.42,0.48-7.52,0.89c-29.54,5.77-38.8,9.27-67.75,14.34c-16.96,2.97-28.67,4.46-30.7,23.1							c-3.08,28.31,4.94,57.25,22.35,80.17c5.23-0.27,10.46-0.59,15.69-0.95c0,0,0.01,0,0.01,0c5.31-13.03,12.85-35.84,17.23-45.84							C232.02,475.72,244.59,462.4,263.27,449.1z"/>					</g>					<g>						<path class="st2" d="M257,446.31c-18.11,12.36-33.78,32.11-43.69,56.25c-2.21,5.38-4.17,10.94-6.08,16.31							c-2.93,8.28-7.03,20.16-11.71,28.63c0.31-0.02,0.63-0.04,0.94-0.06c2.41-0.15,4.81-0.34,7.21-0.5							c5.31-13.04,12.83-35.79,17.2-45.78c11.14-25.44,23.71-38.76,42.39-52.06c12.73-9.07,31.25-13.98,48.72-14.69							c-0.33-0.1-0.66-0.21-0.99-0.31c-2.66-0.83-5.32-1.6-7.97-2.31c-0.53-0.14-1.07-0.3-1.6-0.44							C287.64,432.73,269.69,437.64,257,446.31z"/>					</g>					<g class="st6">						<path class="st4" d="M196.24,444.69c-16.96,2.97-28.67,4.46-30.7,23.1c-3.08,28.31,4.94,57.25,22.35,80.17							c4.3-0.22,8.6-0.48,12.9-0.76c-16.45-24.71-29.39-59.54-22.42-83.24c2.39-8.15,10.68-17.95,17.91-19.21							c0-0.02-0.01-0.03-0.01-0.04C196.26,444.69,196.25,444.69,196.24,444.69z"/>					</g>				</g>			</g>			<g>				<g>					<polygon class="st9" points="193.82,562.86 193.82,562.86 193.81,562.85 					"/>				</g>			</g>			<g>				<path class="st10" d="M334.41,631.15c-0.03-3.72-0.15-7.4-0.38-11.05c-5.58-12.67-15.79-28.23-27.96-37.62					c-17.35-13.4-40.98-22.2-66.99-24.17c-5.79-0.44-11.69-0.59-17.39-0.74c-8.79-0.23-21.36-0.46-30.86-2.29l0,0					c0.98,2.51,1.96,5.02,2.96,7.52c14.04,1.03,38.06,1.14,48.92,2.22c27.64,2.73,44.19,10.58,62.61,24.23					C317.92,598.57,328.34,614.72,334.41,631.15z"/>			</g>			<g>				<g>					<g>						<path class="st9" d="M334.38,631.09c-6.07-16.39-16.47-32.49-29.03-41.79c-18.43-13.65-34.97-21.5-62.61-24.23							c-10.86-1.07-34.89-1.19-48.92-2.22c27.48,68.18,63.54,132.59,107.33,191.68c2.98,4.01,6.26,3.28,7.35-1.6							c5.13-22.77,12.86-48.2,20.83-76.15C333.06,660.8,334.5,645.68,334.38,631.09z"/>					</g>					<g>						<path class="st2" d="M306.62,750.48c-49.69-63.12-93.38-156.71-113.37-209.18c-1.81,2.22-3.56,4.49-5.2,6.86							c28.12,73.64,66.18,143.06,113.11,206.37c2.98,4.01,6.26,3.28,7.35-1.6c0.14-0.63,0.31-1.28,0.45-1.91							C308.18,751.38,307.33,751.25,306.62,750.48z"/>					</g>					<g class="st3">						<path class="st4" d="M334.03,620.1c-5.58-12.67-15.79-28.23-27.96-37.62c-17.35-13.4-40.98-22.2-66.99-24.17							c-5.79-0.44-11.69-0.59-17.39-0.74c-8.79-0.23-21.36-0.46-30.86-2.29c4.41,11.26,9.03,22.42,13.91,33.47							c6.26-0.68,14.1-1.2,20.84-1.2c24.66,0,54.28,7.81,71.58,18.13c23.81,14.21,31.53,41.02,32.16,71.1							C334.01,656.75,335.12,638.06,334.03,620.1z"/>					</g>				</g>				<g>					<g>						<path class="st9" d="M305.35,589.3c12.56,9.31,22.96,25.4,29.03,41.79c0-0.35-0.01-0.69-0.01-1.03							c-0.03-2.79-0.13-5.55-0.27-8.3c-0.03-0.55-0.04-1.11-0.07-1.66c-1.27-9.97-4.26-20.93-7.43-28.97							c-1.05-2.66-2.13-5.01-3.17-6.88c-14.62-26.31-20.8-34.04-34.57-60c-8.07-15.21-13.1-25.89-31.45-22.06							c-27.87,5.82-52.92,22.39-69.33,46.03c1.87,4.9,3.79,9.77,5.75,14.63c0,0,0,0.01,0,0.01c14.04,1.03,38.06,1.14,48.92,2.22							C270.38,567.81,286.93,575.65,305.35,589.3z"/>					</g>					<g>						<path class="st2" d="M306.07,582.48c-17.35-13.4-40.98-22.2-66.99-24.17c-5.79-0.44-11.69-0.59-17.39-0.74							c-8.78-0.23-21.35-0.46-30.85-2.29c0.11,0.29,0.23,0.59,0.35,0.88c0.88,2.24,1.8,4.47,2.7,6.7							c14.05,1.02,38.01,1.14,48.85,2.21c27.64,2.73,44.19,10.58,62.61,24.23c12.56,9.31,22.96,25.4,29.03,41.79							c0-0.35-0.01-0.69-0.01-1.03c-0.03-2.79-0.13-5.55-0.27-8.3c-0.03-0.55-0.04-1.11-0.07-1.66							C328.45,607.43,318.24,591.87,306.07,582.48z"/>					</g>					<g class="st6">						<path class="st4" d="M288.83,524.19c-8.07-15.21-13.1-25.89-31.45-22.06c-27.87,5.82-52.92,22.39-69.33,46.03							c1.54,4.02,3.12,8.03,4.71,12.03c18.41-23.28,47.54-46.35,72.24-47.05c8.49-0.24,20.37,4.61,23.81,11.1							c0.01-0.01,0.02-0.02,0.04-0.02C288.84,524.21,288.83,524.2,288.83,524.19z"/>					</g>				</g>			</g>			<g>				<g>					<path class="st1" d="M185.02,672.65c-4.97,14.82-17.07,29.68-30.78,40.52c0.33-0.11,0.65-0.22,0.98-0.33						c2.64-0.89,5.24-1.83,7.81-2.82c0.52-0.2,1.04-0.38,1.56-0.58c9.09-4.29,18.59-10.51,25.25-16.02c2.21-1.83,4.1-3.57,5.56-5.14						c20.5-22.03,25.95-30.3,46.38-51.42c11.97-12.37,20.57-20.46,11.26-36.73c-14.15-24.71-37.65-43.41-65.2-51.72						c-4.08,3.29-8.12,6.62-12.13,9.99c0,0-0.01,0.01-0.01,0.01c3.36,13.67,10.67,36.55,13.01,47.21						C194.65,632.75,192.3,650.91,185.02,672.65z"/>				</g>				<g>					<path class="st2" d="M191.73,671.23c7.38-20.65,8.45-45.83,2.28-71.18c-1.37-5.65-3.05-11.3-4.67-16.77						c-2.5-8.43-6.16-20.45-7.36-30.05c-0.24,0.2-0.49,0.4-0.73,0.6c-1.86,1.53-3.69,3.1-5.54,4.64						c3.37,13.68,10.66,36.5,12.99,47.15c5.94,27.13,3.59,45.29-3.69,67.03c-4.97,14.82-17.07,29.68-30.78,40.52						c0.33-0.11,0.65-0.22,0.98-0.33c2.64-0.89,5.24-1.83,7.81-2.82c0.52-0.2,1.04-0.38,1.56-0.58						C174.92,700.22,186.55,685.7,191.73,671.23z"/>				</g>				<g class="st6">					<path class="st4" d="M241.83,636.82c11.97-12.37,20.57-20.46,11.26-36.73c-14.15-24.71-37.65-43.41-65.2-51.72						c-3.35,2.71-6.67,5.44-9.98,8.2c27.83,10.32,58.77,30.89,67.07,54.16c2.85,8,1.91,20.8-3.2,26.07						c0.01,0.01,0.02,0.02,0.03,0.03C241.82,636.83,241.83,636.83,241.83,636.82z"/>				</g>			</g>			<g>									<radialGradient id="SVGID_2_" cx="366.4083" cy="172.1355" r="16.9325" gradientTransform="matrix(0.6731 -0.7487 0.7393 0.6646 -193.1792 701.6292)" gradientUnits="userSpaceOnUse">					<stop  offset="0" style="stop-color:#EBEAE7"/>					<stop  offset="0" style="stop-color:#F7F7F6"/>					<stop  offset="0" style="stop-color:#FFFFFF"/>					<stop  offset="0.1403" style="stop-color:#F0F0F0"/>					<stop  offset="0.4082" style="stop-color:#C9CACA"/>					<stop  offset="0.5225" style="stop-color:#B7B8B8"/>					<stop  offset="0.6023" style="stop-color:#ADAFAF"/>					<stop  offset="0.7366" style="stop-color:#939596"/>					<stop  offset="0.9079" style="stop-color:#696D6D"/>					<stop  offset="1" style="stop-color:#4F5455"/>				</radialGradient>				<path class="st11" d="M199.22,535.49c6.98,6.28,7.54,17.04,1.25,24.04c-6.29,7-17.06,7.59-24.04,1.32					c-6.98-6.27-7.54-17.04-1.25-24.04C181.47,529.8,192.24,529.21,199.22,535.49z"/>				<path class="st12" d="M199.22,535.49c6.98,6.28,7.54,17.04,1.25,24.04c-6.29,7-17.06,7.59-24.04,1.32					c-6.98-6.27-7.54-17.04-1.25-24.04C181.47,529.8,192.24,529.21,199.22,535.49z"/>				<path class="st13" d="M199.22,535.49c6.98,6.28,7.54,17.04,1.25,24.04c-6.29,7-17.06,7.59-24.04,1.32					c-6.98-6.27-7.54-17.04-1.25-24.04C181.47,529.8,192.24,529.21,199.22,535.49z"/>			</g>		</g>	</g>	<g>		<g>			<g>				<linearGradient id="SVGID_3_" gradientUnits="userSpaceOnUse" x1="1950.563" y1="807.91" x2="1163.8661" y2="536.7769">					<stop  offset="0" style="stop-color:#FFFFFF"/>					<stop  offset="0.6442" style="stop-color:#838383"/>					<stop  offset="0.9" style="stop-color:#505050"/>					<stop  offset="1" style="stop-color:#000000"/>				</linearGradient>				<path class="st14" d="M1350.28,762.35l-20.33-65.29h-134.89l-21.56,65.29h-112.72l159.54-438.56h83.15l159.54,438.56H1350.28z					 M1264.66,490.09l-39.42,117.04h76.38L1264.66,490.09z"/>			</g>		</g>		<linearGradient id="SVGID_4_" gradientUnits="userSpaceOnUse" x1="2010.4348" y1="634.191" x2="1223.7379" y2="363.0579">			<stop  offset="0" style="stop-color:#FFFFFF"/>			<stop  offset="0.6442" style="stop-color:#838383"/>			<stop  offset="0.9" style="stop-color:#505050"/>			<stop  offset="1" style="stop-color:#000000"/>		</linearGradient>		<path class="st15" d="M1605.81,323.79v26.27c-23.58-16.28-54.01-26.27-90.97-26.27h-168.09l35.18,96.71h127.98			c29.56,0,46.81,21.55,46.81,44.35c0,22.79-17.25,44.35-46.81,44.35h-95.72l35.63,97.93h38.89l74.18,155.22h125.03l-94.85-182.94			c34.49-17.24,71.45-54.83,71.45-114.56c0-15.36-2.52-30.53-7.21-44.97h56.29v342.48h107.79V419.87h107.79v-96.08H1605.81z"/>	</g>	<g>		<g>			<path class="st10" d="M483,613.12c2.54-36.37,5.78-67.63,9.73-93.81c3.95-26.17,8.69-47.62,14.24-64.35h2.68l2.26,2.54l4.93-4.79				h9.44l7.33,4.79l16.63-2.54c27.72,0,53.23,15.97,76.54,47.92l12.12,23.96l-2.26,2.54l2.26,11.84v12.12				c0,40.97-33.6,72.17-100.78,93.59l-23.96,2.26c0-3.86-3.15-6.25-9.44-7.19v9.58h-7.19v-14.52l-2.4-2.26l2.4-2.26v-2.68				C487.83,623.13,483,617.54,483,613.12z M487.93,642.02l4.93-4.93h2.26v2.68l-4.93,4.65h-2.26V642.02z M495.12,548.57h2.4				l12.12-67.09v-4.79h-2.68l-11.84,69.49V548.57z M519.08,622.99l2.4,6.91h4.79l4.65-4.65v-2.26h-2.26l-7.19,2.26L519.08,622.99z				 M521.48,599.03c9.02,0,32.98-7.99,71.89-23.96v-2.54h-4.65c12.69-12.87,19.03-26.46,19.03-40.74v-7.19				c0-17.48-12.03-27.91-36.08-31.29h-26.22c0,3.29-3.2,4.93-9.58,4.93c-3.29,14.66-6.13,30.31-8.53,46.94				S522.98,579.76,521.48,599.03z M538.11,622.99h9.58l12.12-4.93v-2.26h-2.26l-19.45,4.65V622.99z M593.36,495.99l9.44,4.65v-2.4				l-7.19-4.93h-2.26V495.99z M593.36,605.94c4.04-0.56,9.58-5.26,16.63-14.1v-2.68L593.36,605.94z M602.81,572.53h2.68l4.51-9.58				h-2.26L602.81,572.53z M612.67,555.76h4.65v-7.19l2.26-9.58l-2.26-12.12h-2.4L612.67,555.76z M619.58,586.91h2.54l11.84-35.8				v-4.93h-2.26l-12.12,38.48V586.91z"/>			<path class="st10" d="M654.11,629.05l4.37-35.8l2.23-42.99l5.04-7.19l0.6-9.87l-2.09-2.26v-2.4h5.22v-2.26l-2.53-2.68l10-45.25				h-2.4l2.68-2.68l0.56-14.38l-2.26-2.26l0.28-2.4l26.5-2.26c-0.38,4.61,2.63,6.91,9.02,6.91l4.23,9.87l-2.26,2.26h2.26				c-11.37,33.45-18.37,72.64-21,117.56l-0.85,14.1l2.54,2.54l-0.28,2.4l-2.54,2.26h2.54l-2.54,2.68l1.41,16.63l-0.28,4.65				c-8.84,10.62-13.39,18.61-13.67,23.96h-9.44l-11.56-4.65l3.41-16.63L654.11,629.05z M667.24,650.76l4.97-4.65l0.56-7.19h-4.93				L667.24,650.76z M667.54,557.17h2.78l0.56-14.1h-2.45L667.54,557.17z M671.45,535.74h2.26l0.85-14.38h-2.54L671.45,535.74z				 M674.55,514.17h2.68l0.56-16.77h-2.26L674.55,514.17z"/>			<path class="st10" d="M722.82,572.45c0-3.29,0.09-6.53,0.28-9.73c0.18-3.2,0.47-6.44,0.85-9.73l0.63-4.51				c1.66-12.69,7.93-28.68,18.83-47.96h2.49l-0.62,4.45l-9.76,16.57v2.64H738c1.37-14.35,17.57-32.6,48.61-54.78h2.26l0.28-2.52				h-2.26l-7.45,2.52c4.59-8.03,19.36-12.03,44.3-12.03l1.97,2.66h2.68l0.28-2.66c24.53,6.32,36.79,15.2,36.79,26.62				c0,0.67-0.05,1.35-0.14,2.02l3.24,14.51h-4.93c0.18-1.21,0.23-2.32,0.14-3.34c0-4.27-1.32-6.4-3.95-6.4h-2.26l1.13,11.97				l-0.28,2.22h-5.16c-2.95,0-4.42-1.71-4.42-5.14c0-0.65,0.04-1.3,0.14-1.95l-2.45,2.64h-2.12c-7.53-6.49-14.89-9.74-22.06-9.74				c-16.13,0-34.7,16.82-55.7,50.46l-7.45,26.25c-0.28,2.25-0.38,4.35-0.28,6.32c0,17.79,8.86,30.8,26.58,39.04l-0.56,4.93H780				l-0.28,2.68h4.77c11.14,0,27.86-14.5,50.14-43.51l0.25-2.26h-2.55c-12.85,15.52-24.34,26.66-34.47,33.39h-2.67l29.68-31.13				h-16.74c0.18-3.08-2.02-4.58-6.61-4.49l-1.97-2.66l0.28-2.25c0.18-3.08,8.34-5.47,24.47-7.15l0.56-4.63l-2.53,2.26h-14.49				l-12.38-16.77l2.67-2.26l0.28-2.54l25.43,2.54l62.69-7.19l0.28-2.68c-7.89,0-11.75-1.65-11.56-4.93h2.26l2.26,2.47l2.68-2.47				h2.26c16.91,4.93,25.27,8.99,25.09,12.18l-0.28,2.62l-2.54,2.26l-0.28,2.4h9.58l-0.7,4.93h-2.26l-38.62,4.51l-0.28,2.68h2.26				l21.99-2.68l-0.56,4.93c-16.17,0-24.95,6.33-26.36,18.98l-11.28,38.38l2.4,2.4l-0.28,2.68l-3.81,11.84l0.28,19.31l-5.22,4.51				l2.21,2.68c-6.69,1.88-10.32,5.82-10.89,11.84h-6.52c-2.04,0-3.07-3.34-3.07-10.01c0-3.1,0.21-7,0.64-11.7h-5.15l0.99,38.65				l-7.19-21.87l1.41-22.01l-0.56-31.18l-4.78,24.57c-9,6.39-18.15,9.58-27.43,9.58h-11.81l-4.36-4.93l0.28-2.26h4.64l0.28-2.4				c-34.94,0-53.85-11.15-56.73-33.45c-1-5.17-1.74-10.37-2.23-15.59C723.07,582.83,722.82,577.63,722.82,572.45z M745.89,500.52				l0.31-2.64l11.77-9.41l-0.31,2.31L745.89,500.52z M757.98,488.47l0.31-2.46l16.23-14.23h2.26L757.98,488.47z M787.18,641.74				h11.81l0.28-2.26h-12.1V641.74z M787.74,612.84l5.21-4.77h2.25l-5.2,4.77H787.74z M804.76,632.29l20.11-9.58l0.56-4.93h-2.25				L804.76,632.29z M809.4,478.65H826l0.28-1.97h-16.6L809.4,478.65z M861.1,526.65h9.44l-5.5,5.14L861.1,526.65z"/>			<path class="st10" d="M907.46,572.45c0-3.29,0.09-6.53,0.28-9.73c0.18-3.2,0.47-6.44,0.85-9.73l0.63-4.51				c1.66-12.69,7.93-28.68,18.83-47.96h2.49l-0.62,4.45l-9.76,16.57v2.64h2.48c1.37-14.35,17.57-32.6,48.61-54.78h2.26l0.28-2.52				h-2.26l-7.45,2.52c4.59-8.03,19.36-12.03,44.3-12.03l1.97,2.66h2.68l0.28-2.66c24.53,6.32,36.79,15.2,36.79,26.62				c0,0.67-0.05,1.35-0.14,2.02l3.24,14.51h-4.93c0.19-1.21,0.23-2.32,0.14-3.34c0-4.27-1.32-6.4-3.95-6.4h-2.26l1.13,11.97				l-0.28,2.22h-5.16c-2.95,0-4.42-1.71-4.42-5.14c0-0.65,0.04-1.3,0.14-1.95l-2.45,2.64h-2.12c-7.53-6.49-14.89-9.74-22.06-9.74				c-16.13,0-34.7,16.82-55.7,50.46l-7.45,26.25c-0.28,2.25-0.38,4.35-0.28,6.32c0,17.79,8.86,30.8,26.58,39.04l-0.56,4.93h-4.92				l-0.28,2.68h4.77c11.14,0,27.86-14.5,50.14-43.51l0.25-2.26h-2.55c-12.85,15.52-24.34,26.66-34.47,33.39h-2.67l29.68-31.13				h-16.74c0.18-3.08-2.02-4.58-6.61-4.49l-1.97-2.66l0.28-2.25c0.18-3.08,8.34-5.47,24.47-7.15l0.56-4.63l-2.53,2.26h-14.49				l-12.38-16.77l2.67-2.26l0.28-2.54l25.43,2.54l62.69-7.19l0.28-2.68c-7.89,0-11.75-1.65-11.56-4.93h2.26l2.26,2.47l2.68-2.47				h2.26c16.91,4.93,25.27,8.99,25.09,12.18l-0.28,2.62l-2.54,2.26l-0.28,2.4h9.58l-0.7,4.93h-2.26l-38.62,4.51l-0.28,2.68h2.26				l21.99-2.68l-0.56,4.93c-16.17,0-24.95,6.33-26.36,18.98l-11.28,38.38l2.4,2.4l-0.28,2.68l-3.81,11.84l0.28,19.31l-5.22,4.51				l2.21,2.68c-6.69,1.88-10.32,5.82-10.89,11.84h-6.52c-2.04,0-3.07-3.34-3.07-10.01c0-3.1,0.21-7,0.64-11.7h-5.15l0.99,38.65				l-7.19-21.87l1.41-22.01l-0.56-31.18l-4.78,24.57c-9,6.39-18.15,9.58-27.43,9.58h-11.81l-4.36-4.93l0.28-2.26h4.64l0.28-2.4				c-34.94,0-53.85-11.15-56.73-33.45c-1-5.17-1.74-10.37-2.23-15.59C907.71,582.83,907.46,577.63,907.46,572.45z M930.53,500.52				l0.31-2.64l11.77-9.41l-0.31,2.31L930.53,500.52z M942.62,488.47l0.31-2.46l16.23-14.23h2.26L942.62,488.47z M971.82,641.74				h11.81l0.28-2.26h-12.1V641.74z M972.38,612.84l5.21-4.77h2.25l-5.2,4.77H972.38z M989.4,632.29l20.11-9.58l0.56-4.93h-2.25				L989.4,632.29z M994.04,478.65h16.6l0.28-1.97h-16.6L994.04,478.65z M1045.74,526.65h9.44l-5.5,5.14L1045.74,526.65z"/>			<path class="st10" d="M1094.07,629.05l4.37-35.8l2.23-42.99l5.04-7.19l0.6-9.87l-2.09-2.26v-2.4h5.22v-2.26l-2.53-2.68l10-45.25				h-2.4l2.68-2.68l0.56-14.38l-2.26-2.26l0.28-2.4l26.5-2.26c-0.38,4.61,2.63,6.91,9.02,6.91l4.23,9.87l-2.26,2.26h2.26				c-11.37,33.45-18.37,72.64-21,117.56l-0.85,14.1l2.54,2.54l-0.28,2.4l-2.54,2.26h2.54l-2.54,2.68l1.41,16.63l-0.28,4.65				c-8.84,10.62-13.39,18.61-13.67,23.96h-9.44l-11.56-4.65l3.41-16.63L1094.07,629.05z M1107.2,650.76l4.97-4.65l0.56-7.19h-4.93				L1107.2,650.76z M1107.5,557.17h2.78l0.56-14.1h-2.45L1107.5,557.17z M1111.41,535.74h2.26l0.85-14.38h-2.54L1111.41,535.74z				 M1114.51,514.17h2.68l0.56-16.77h-2.26L1114.51,514.17z"/>		</g>	</g></g></svg>