<svg id="Layer_1" data-name="Layer 1" xmlns="http://www.w3.org/2000/svg" viewBox="0 0 37 35"><defs><style>.cls-1{fill:none;stroke:#d09892;stroke-miterlimit:10;stroke-width:1.98px;}.cls-2{fill:#d09892;}</style></defs><rect class="cls-1" x="2.45" y="1.45" width="32.1" height="32.09" rx="4.43"/><path class="cls-2" d="M15.71,13.37A18.52,18.52,0,0,1,14.89,16c-.54,1.1-1.62,1.09-2.19,0a5.58,5.58,0,0,1,0-5.28,1.14,1.14,0,0,1,2.19,0A18.38,18.38,0,0,1,15.71,13.37Z"/><path class="cls-2" d="M25.33,13.36c-.24.88-.42,1.71-.71,2.51a1.23,1.23,0,0,1-1.18.93,1.32,1.32,0,0,1-1.16-.91,5.81,5.81,0,0,1,0-5.08,1.28,1.28,0,0,1,1.17-.88,1.2,1.2,0,0,1,1.11.86C24.88,11.62,25.08,12.49,25.33,13.36Z"/><path class="cls-2" d="M12,22.62l.66-1.1a12,12,0,0,0,11.93,0l.65,1.1A12.93,12.93,0,0,1,12,22.62Z"/></svg>