<svg id="Layer_1" data-name="Layer 1" xmlns="http://www.w3.org/2000/svg" viewBox="0 0 37 35"><defs><style>.cls-1{fill:#d09892;}</style></defs><path class="cls-1" d="M16.14,23.93l-5-5.07,2.31-2.28L28.59,1.68a4.93,4.93,0,0,1,.74-.63,3.58,3.58,0,0,1,4.26.25,3.53,3.53,0,0,1,.93,4.15c-.08.18-.15.36-.26.6l1.12,1.16c.31.31.62.61.92.93a1,1,0,0,1,0,1.65c-.79.81-1.61,1.6-2.42,2.39L21.55,24.33a2.58,2.58,0,0,1-.38.36,1.1,1.1,0,0,1-1.38-.06,1,1,0,0,1-.07-1.37c.14-.17.29-.32.45-.48L33.67,9.49c.15-.15.29-.32.5-.54L32.79,7.53Z"/><rect class="cls-1" x="6.42" y="21.23" width="7.64" height="7.3" transform="translate(-14.52 14.35) rotate(-44.59)"/><path class="cls-1" d="M9.25,30.67,5,32.51,2.38,29.83l1.9-4.2Z"/><path class="cls-1" d="M1.55,31.68l1.61,1.64L.38,34.54l-.09-.1Z"/></svg>