<svg id="Layer_1" data-name="Layer 1" xmlns="http://www.w3.org/2000/svg" viewBox="0 0 37 35"><defs><style>.cls-1{fill:#d09892;}</style></defs><path class="cls-1" d="M.26,34.54c0-.16.06-.26.09-.36C1.23,31.11,2.12,28.05,3,25a.88.88,0,0,1,.27-.43L23.71,5.8l.22-.2a13.8,13.8,0,0,1,7.16,7.87l-.24.23L10.43,32.43a.88.88,0,0,1-.41.23L.59,34.48ZM23.61,7.66c-.07.06-.14.1-.19.15L6.4,23.45s0,0,0,0,0,0,0,0l.4,0a.75.75,0,0,1,.75.78,1.89,1.89,0,0,1-.15.85,1.65,1.65,0,0,0-.08.26c.39-.27,17.87-16.34,18-16.53A12.76,12.76,0,0,0,23.61,7.66ZM7.93,30l.19-.29a3,3,0,0,0,.42-.94,1.54,1.54,0,0,0-1.78-1.95,3,3,0,0,0-1,.35l-.3.15c.06-.14.11-.22.14-.3A8.78,8.78,0,0,0,6,26,.8.8,0,0,0,5.1,25c-.23,0-.45.08-.68.12a.35.35,0,0,0-.32.3q-.66,2.45-1.35,4.88a.34.34,0,0,0,.13.42,6.41,6.41,0,0,1,1.44,1.59.33.33,0,0,0,.41.16l2.65-.49,2.34-.42c.12,0,.23-.05.26-.18a5.78,5.78,0,0,0,.22-.89.77.77,0,0,0-.91-.9,3.35,3.35,0,0,0-1,.29Z"/><path class="cls-1" d="M32.69,12a15.88,15.88,0,0,0-7.13-7.86L25.71,4,29.39.58a.44.44,0,0,1,.39-.12,5.05,5.05,0,0,1,1.7.5,7,7,0,0,1,1.8,1.21,15.37,15.37,0,0,1,2.07,2.27,6.92,6.92,0,0,1,1.31,3s0,0,0,.06c.12.78.12.78-.46,1.31l-3.22,3Z"/><path class="cls-1" d="M24.34,7c.06-.06.13-.1.21-.17a13.59,13.59,0,0,1,1.86,1.32c-.12.21-19.22,17.7-19.66,18a1.73,1.73,0,0,1,.1-.28A2.23,2.23,0,0,0,7,24.93a.82.82,0,0,0-.82-.85l-.44,0v0s0,0,0,0"/></svg>