<?xml version="1.0" encoding="UTF-8" standalone="no"?>
<svg
   xmlns:dc="http://purl.org/dc/elements/1.1/"
   xmlns:cc="http://creativecommons.org/ns#"
   xmlns:rdf="http://www.w3.org/1999/02/22-rdf-syntax-ns#"
   xmlns:svg="http://www.w3.org/2000/svg"
   xmlns="http://www.w3.org/2000/svg"
   xmlns:sodipodi="http://sodipodi.sourceforge.net/DTD/sodipodi-0.dtd"
   xmlns:inkscape="http://www.inkscape.org/namespaces/inkscape"
   width="90.079475mm"
   height="96.949753mm"
   viewBox="0 0 90.079475 96.949753"
   version="1.1"
   id="svg8"
   inkscape:version="1.0.1 (3bc2e813f5, 2020-09-07)"
   sodipodi:docname="pink_spray.svg">
  <defs
     id="defs2" />
  <sodipodi:namedview
     id="base"
     pagecolor="#ffffff"
     bordercolor="#666666"
     borderopacity="1.0"
     inkscape:pageopacity="0.0"
     inkscape:pageshadow="2"
     inkscape:zoom="0.98994949"
     inkscape:cx="435.36191"
     inkscape:cy="274.75405"
     inkscape:document-units="mm"
     inkscape:current-layer="layer1"
     inkscape:document-rotation="0"
     showgrid="false"
     inkscape:window-width="1680"
     inkscape:window-height="997"
     inkscape:window-x="-8"
     inkscape:window-y="-8"
     inkscape:window-maximized="1" />
  <metadata
     id="metadata5">
    <rdf:RDF>
      <cc:Work
         rdf:about="">
        <dc:format>image/svg+xml</dc:format>
        <dc:type
           rdf:resource="http://purl.org/dc/dcmitype/StillImage" />
        <dc:title></dc:title>
      </cc:Work>
    </rdf:RDF>
  </metadata>
  <g
     inkscape:label="Layer 1"
     inkscape:groupmode="layer"
     id="layer1"
     transform="translate(-12.786278,-26.96123)">
    <path
       style="fill:#ec1d78;stroke-width:0.135641"
       d="m 61.147525,118.10775 c -2.297043,-0.14141 -5.050919,-0.4686 -6.261417,-0.74393 l -0.927595,-0.21097 V 86.448858 c 0,-17.015064 0.05206,-30.73617 0.116769,-30.776164 0.249549,-0.154229 2.501154,-0.486074 4.800243,-0.707469 L 61.283171,54.73338 V 48.869874 43.00637 l 0.847758,-0.146398 c 3.273418,-0.565278 12.67871,-0.569669 14.78496,-0.0069 l 0.508654,0.135908 v 5.827369 c 0,5.68256 0.0065,5.82737 0.263897,5.82737 1.461333,0 5.402776,0.492071 6.552107,0.818 l 0.508658,0.144245 v 30.775177 c 0,29.192349 -0.0122,30.778809 -0.237378,30.845829 -1.191067,0.35447 -4.169033,0.69769 -7.76549,0.89497 -2.912274,0.15973 -12.921424,0.15064 -15.598812,-0.0142 z m -3.855443,-1.75412 c 0.330985,-0.22773 0.719014,-0.64382 0.862288,-0.92465 0.143272,-0.28084 0.356515,-0.5903 0.473868,-0.68771 0.117359,-0.0974 0.21338,-0.26555 0.21338,-0.3737 0,-0.10813 0.150333,-0.45313 0.334071,-0.76665 0.573244,-0.97817 1.341282,-3.79842 1.649479,-6.05689 1.057592,-7.750099 1.254167,-10.554697 1.302511,-18.582929 0.05117,-8.500165 -0.02619,-17.081947 -0.173121,-19.193321 -0.06748,-0.969839 -0.21763,-3.716586 -0.333671,-6.103882 -0.219783,-4.52149 -0.399421,-6.906329 -0.549728,-7.29802 -0.178483,-0.465122 -1.700443,-0.167305 -2.717195,0.531702 -0.885901,0.609048 -1.799849,1.892155 -1.949802,2.737371 -0.06225,0.350846 -0.172901,0.825716 -0.245899,1.055267 -0.09678,0.304341 -0.08049,0.561468 0.06015,0.949493 0.364841,1.006592 0.735209,3.656459 0.861149,6.161263 0.06939,1.380155 0.16013,2.69249 0.201635,2.916299 0.07166,0.386416 0.364897,6.278812 0.35993,7.232604 -0.0016,0.24778 0.108899,0.710044 0.244867,1.027248 0.151754,0.354025 0.203732,0.654434 0.134605,0.77796 -0.267368,0.477763 -0.109668,2.962794 0.248293,3.912532 0.08639,0.229216 0.07119,0.468058 -0.04793,0.753174 -0.104983,0.251262 -0.127709,0.493155 -0.05707,0.607452 0.06456,0.104464 0.08271,0.363304 0.04035,0.575199 -0.05728,0.286385 0.0031,0.470819 0.235998,0.718516 l 0.313063,0.333231 h -0.29493 c -0.352932,0 -0.36017,0.0456 -0.07602,0.479268 0.162108,0.247415 0.195344,0.491174 0.128104,0.939556 -0.05182,0.34561 -0.03055,0.71801 0.04952,0.867678 0.105424,0.196987 0.09043,0.303614 -0.06029,0.428698 -0.260955,0.216572 -0.259017,0.675849 0.0031,0.675849 0.240223,0 0.250502,0.06558 0.06471,0.412745 -0.110155,0.205826 -0.08219,0.294594 0.13564,0.430631 0.355814,0.222209 0.349533,0.47091 -0.01482,0.58655 -0.208473,0.06616 -0.241176,0.121477 -0.117143,0.198131 0.131191,0.08109 0.149724,0.440082 0.07803,1.51114 -0.05171,0.772642 -0.123736,1.507028 -0.160043,1.631962 -0.04521,0.15568 0.0264,0.241056 0.227668,0.271286 l 0.293679,0.04411 -0.26801,0.329491 c -0.2132,0.262108 -0.246165,0.426352 -0.161196,0.803105 0.08077,0.358143 0.04291,0.598925 -0.155408,0.987609 -0.290147,0.568732 -0.371424,2.204649 -0.117333,2.361688 0.07969,0.04925 0.109156,0.18266 0.06548,0.296476 -0.04368,0.113808 -0.01308,0.286858 0.06799,0.384528 0.106696,0.12858 0.10223,0.26199 -0.01615,0.48321 -0.08996,0.16808 -0.210463,1.19439 -0.267794,2.28067 -0.05734,1.08629 -0.141577,2.12767 -0.187204,2.31417 -0.04563,0.18651 -0.136906,0.888 -0.20284,1.55886 -0.09725,0.98949 -0.08176,1.29348 0.08204,1.61021 0.162257,0.31378 0.17292,0.50557 0.05429,0.97667 -0.08119,0.32242 -0.14761,0.88535 -0.14761,1.25095 0,0.3656 -0.119174,1.01111 -0.264831,1.43447 -0.145653,0.42335 -0.303419,1.15012 -0.350584,1.61502 -0.11437,1.1273 -0.270476,1.59846 -0.747989,2.25765 -0.219968,0.30366 -0.399943,0.58315 -0.399943,0.6211 0,0.21776 0.783399,0.01 1.298947,-0.34505 z m 2.092101,-6.08722 c 0,-0.0746 0.122081,-0.20098 0.271286,-0.28082 0.17449,-0.0934 0.27128,-0.0968 0.27128,-0.01 0,0.0746 -0.122075,0.20098 -0.27128,0.28084 -0.174495,0.0934 -0.271286,0.0968 -0.271286,0.01 z m 0.169579,-1.7488 c 0.03937,-0.43437 0.203388,-1.04807 0.364456,-1.36378 l 0.292843,-0.57402 -0.278324,-0.45034 c -0.245432,-0.39711 -0.254214,-0.47034 -0.07434,-0.61963 0.112196,-0.0931 0.203994,-0.34133 0.203994,-0.55161 0,-0.21027 0.06104,-0.42003 0.135639,-0.46613 0.07461,-0.0461 0.13564,-0.34134 0.13564,-0.65605 0,-0.3147 0.09835,-0.71262 0.218559,-0.88423 0.205285,-0.29308 0.201163,-0.32422 -0.06782,-0.51262 -0.237321,-0.16623 -0.286378,-0.34005 -0.286378,-1.01476 0,-0.46794 0.05369,-0.78097 0.126269,-0.73611 0.20791,0.12849 0.301276,-0.16835 0.136127,-0.43279 -0.203112,-0.325241 0.05019,-1.294132 0.431102,-1.649004 0.262124,-0.244206 0.152415,-0.541453 -0.134414,-0.364183 -0.179581,0.110989 -0.287799,-0.631124 -0.287799,-1.973547 0,-0.975375 0.0383,-1.203828 0.201851,-1.203828 0.159361,0 0.199072,-0.185586 0.188629,-0.881665 -0.0097,-0.650137 -0.06209,-0.881674 -0.199262,-0.881674 -0.143125,0 -0.166933,-0.148599 -0.103219,-0.6443 0.04553,-0.354366 0.135932,-0.702281 0.200866,-0.773156 0.06493,-0.07089 0.11377,-0.559188 0.108525,-1.085136 -0.0097,-0.973568 -0.232067,-0.929715 -0.252214,0.04975 -0.01395,0.676702 -0.09524,0.470222 -0.19051,-0.483737 -0.07822,-0.783271 -0.06697,-0.829877 0.184476,-0.764118 0.321147,0.08398 0.349384,-0.181424 0.06,-0.564022 -0.13747,-0.181748 -0.199148,-0.607444 -0.199148,-1.374506 0,-1.020812 0.02358,-1.117374 0.289807,-1.186997 0.244899,-0.06401 0.276428,-0.142695 0.203466,-0.507516 -0.04748,-0.237457 -0.08635,-0.579386 -0.08635,-0.759832 0,-0.237225 -0.06574,-0.317055 -0.237373,-0.288242 -0.186127,0.03126 -0.246616,-0.07255 -0.280184,-0.48076 -0.03978,-0.483604 -0.02137,-0.513826 0.258617,-0.424951 0.298697,0.0948 0.300625,0.08611 0.212365,-0.957996 -0.04901,-0.579519 -0.08907,-1.44121 -0.08907,-1.914873 0,-0.483703 -0.05945,-0.861202 -0.13564,-0.861202 -0.07461,0 -0.13564,0.125672 -0.13564,0.279287 0,0.153606 -0.06104,0.241562 -0.135646,0.195453 -0.07461,-0.0461 -0.135639,-0.239356 -0.135639,-0.429436 0,-0.249905 0.05578,-0.324211 0.201393,-0.26833 0.357644,0.137243 0.476582,-0.394828 0.486348,-2.175704 0.0052,-0.956094 0.05725,-1.86043 0.115575,-2.009635 l 0.106038,-0.27128 0.08265,0.27128 c 0.138829,0.455633 0.378027,9.354116 0.382851,14.242392 0.0064,6.465162 -0.282564,10.770898 -1.10596,16.480478 -0.22591,1.56649 -0.312325,1.97158 -0.368938,1.72944 -0.109109,-0.46672 -0.306884,-0.22631 -0.306884,0.37301 0,0.36613 -0.06182,0.61039 -0.15448,0.61039 -0.106061,0 -0.132037,-0.24756 -0.08286,-0.78976 z m 1.458124,-21.059872 c 0,-0.896316 -0.321409,-0.849155 -0.380447,0.0558 -0.03266,0.500518 0.0031,0.633703 0.169552,0.633703 0.163104,0 0.210895,-0.156243 0.210895,-0.689513 z m -2.032552,18.289032 c 9.95e-4,-0.24245 0.06125,-0.53239 0.133564,-0.64429 0.0951,-0.14716 0.132062,-0.0252 0.133569,0.44083 9.95e-4,0.35437 -0.05897,0.64429 -0.133569,0.64429 -0.07461,0 -0.134707,-0.19837 -0.133564,-0.44083 z m 0.133564,-1.79726 c 0,-0.29262 0.05476,-0.45691 0.135646,-0.40692 0.07461,0.0461 0.135639,0.22922 0.135639,0.40692 0,0.17771 -0.06103,0.36082 -0.135639,0.40694 -0.08088,0.05 -0.135646,-0.1143 -0.135646,-0.40694 z m 0.337563,-8.837362 c 0.02999,-3.647999 0.09095,-6.727664 0.13547,-6.84371 0.04455,-0.11603 0.01502,-0.505269 -0.0656,-0.864967 -0.08434,-0.376354 -0.103455,-0.918761 -0.04501,-1.277621 l 0.101548,-0.623621 0.120829,0.678212 c 0.166251,0.933122 0.219506,10.238444 0.06482,11.326084 -0.06896,0.484922 -0.144591,1.601865 -0.168067,2.482096 -0.02348,0.880239 -0.07773,1.635499 -0.120587,1.678349 -0.04286,0.0429 -0.05338,-2.906819 -0.02338,-6.554822 z m -0.812308,3.7508 c -0.04609,-0.07462 -0.01917,-0.135639 0.05981,-0.135639 0.07901,0 0.143648,0.06102 0.143648,0.135639 0,0.07462 -0.02691,0.135639 -0.05981,0.135639 -0.03292,0 -0.09754,-0.06103 -0.143648,-0.135639 z m 1.841876,-4.690945 c 0.0065,-0.158017 0.03865,-0.190155 0.08195,-0.08192 0.03917,0.09791 0.03435,0.214905 -0.01071,0.259977 -0.04506,0.04502 -0.07713,-0.03499 -0.07124,-0.178033 z M 59.467681,84.18971 c 0.118809,-0.775097 0.187788,-0.827374 0.187788,-0.142331 0,0.306442 -0.06248,0.595787 -0.138845,0.642982 -0.0915,0.05655 -0.108192,-0.114123 -0.04896,-0.500651 z m -0.03901,-1.942882 c 5.12e-4,-0.522217 0.02512,-0.719237 0.05448,-0.43781 0.02938,0.281426 0.02886,0.708698 -9.95e-4,0.949489 -0.02994,0.240799 -0.05399,0.01053 -0.05339,-0.511679 z M 31.911549,60.739233 c -0.04895,-0.07921 -0.236765,-0.200189 -0.417363,-0.268851 -0.440563,-0.167502 -0.574901,-0.581535 -0.539887,-1.663935 0.02616,-0.808648 0.08668,-0.989324 0.564892,-1.686441 0.454545,-0.662622 0.60634,-0.787512 1.003139,-0.825352 0.293133,-0.02796 0.520578,0.02793 0.6097,0.149813 0.07818,0.106921 0.279252,0.237916 0.446823,0.291101 0.167571,0.05318 0.304673,0.156541 0.304673,0.229678 0,0.07314 0.157013,0.278493 0.348918,0.456345 0.294943,0.273344 0.351757,0.449959 0.367261,1.141676 0.01546,0.69006 -0.03229,0.87221 -0.304742,1.162217 -0.177696,0.189149 -0.397803,0.343906 -0.489129,0.343906 -0.09132,0 -0.514154,0.183117 -0.939622,0.406926 -0.885068,0.465572 -0.837509,0.452475 -0.954663,0.262917 z m 6.312515,-4.399993 c -0.09287,-0.111904 -0.250794,-0.203463 -0.350943,-0.203463 -0.70004,0 -0.54782,-2.121524 0.255777,-3.564888 0.363919,-0.653644 0.735081,-0.745909 1.487987,-0.369887 1.000582,0.499715 1.532782,1.387893 1.463685,2.442715 -0.03948,0.602922 -0.402019,0.992473 -1.204771,1.294587 -0.348933,0.13132 -0.754823,0.321031 -0.901978,0.421581 -0.345851,0.236316 -0.54096,0.230945 -0.749757,-0.02065 z m 6.517564,-3.247261 c -0.08915,-0.107426 -0.295007,-0.214243 -0.457443,-0.237372 -0.259485,-0.03695 -0.300349,-0.138973 -0.336568,-0.840295 -0.05623,-1.088768 0.167717,-2.025131 0.653064,-2.730561 0.385153,-0.559795 0.433431,-0.58668 0.913554,-0.508768 0.2788,0.04525 0.588095,0.163441 0.687316,0.262661 0.09922,0.09922 0.231948,0.180401 0.294955,0.180401 0.06301,0 0.308386,0.244732 0.545292,0.543849 0.361022,0.455828 0.436311,0.676266 0.465184,1.361997 0.03189,0.757369 0.0051,0.842924 -0.361923,1.151673 -0.21801,0.18344 -0.498508,0.333839 -0.623341,0.334221 -0.124833,4.06e-4 -0.471121,0.151075 -0.769536,0.334871 -0.632999,0.389876 -0.790228,0.412799 -1.010554,0.147323 z M 31.48677,51.913517 c -0.321773,-0.199205 -0.452344,-0.39873 -0.518959,-0.793018 -0.115371,-0.682881 0.231237,-2.054013 0.720709,-2.851016 0.354112,-0.576596 0.403267,-0.607001 0.911634,-0.563877 0.295536,0.02507 0.586152,0.13147 0.645811,0.236443 0.05966,0.104975 0.181737,0.191961 0.271284,0.193307 0.08955,0.0014 0.373926,0.256567 0.631955,0.567161 0.429701,0.517239 0.467238,0.633399 0.446497,1.38169 -0.02074,0.748133 -0.06282,0.853786 -0.499454,1.253794 -0.262246,0.240248 -0.614089,0.532968 -0.781874,0.65049 -0.410729,0.287685 -1.300781,0.251172 -1.827603,-0.07497 z m 6.533826,-3.216531 c -0.223808,-0.123734 -0.456197,-0.28601 -0.516424,-0.360612 -0.175408,-0.217288 0.01461,-2.034122 0.272018,-2.601103 0.473386,-1.042621 0.694005,-1.26469 1.256447,-1.26469 0.336045,0 0.546324,0.07168 0.596892,0.203463 0.04296,0.111904 0.151958,0.203463 0.242254,0.203463 0.245036,0 1.020792,0.898106 1.143523,1.323879 0.189285,0.656667 0.0565,1.426351 -0.30366,1.760135 -0.18221,0.168868 -0.434968,0.307766 -0.561678,0.308666 -0.126709,9.12e-4 -0.496031,0.153495 -0.820705,0.339105 -0.678144,0.387673 -0.756566,0.39293 -1.308667,0.08769 z m 12.854906,-0.006 c -0.315276,-0.157637 -0.462062,-0.34271 -0.523883,-0.660537 -0.128176,-0.65893 0.187008,-2.074794 0.637438,-2.863465 0.374822,-0.656292 0.429109,-0.696433 0.941827,-0.696433 0.358499,0 0.57071,0.0694 0.622156,0.203463 0.04296,0.111905 0.14351,0.203463 0.223484,0.203463 0.229899,0 1.006694,0.914323 1.124751,1.323879 0.18929,0.656667 0.0565,1.426351 -0.303655,1.760135 -0.182211,0.168868 -0.434969,0.307345 -0.561678,0.307726 -0.126715,4.07e-4 -0.47454,0.151074 -0.772956,0.334871 -0.619111,0.381322 -0.778739,0.391321 -1.387484,0.08692 z M 31.859941,44.55171 c -0.0868,-0.104584 -0.300119,-0.225871 -0.474047,-0.269523 -0.332363,-0.08342 -0.489997,-0.52565 -0.482821,-1.354531 0.0041,-0.482508 0.683702,-2.161747 1.029318,-2.543649 0.274947,-0.303813 1.110173,-0.346796 1.219174,-0.06274 0.04035,0.105172 0.221559,0.228413 0.402669,0.273868 0.181109,0.04546 0.32929,0.145438 0.32929,0.222181 0,0.07674 0.157013,0.285049 0.348917,0.462902 0.294993,0.273388 0.351756,0.449924 0.367274,1.142215 0.01492,0.665889 -0.03742,0.882989 -0.280201,1.162216 -0.164205,0.188853 -0.363421,0.343368 -0.442701,0.343368 -0.07928,0 -0.51322,0.183116 -0.96431,0.406926 -0.95981,0.47621 -0.855136,0.454653 -1.052562,0.21677 z m 12.913474,0.0388 c -0.08324,-0.08324 -0.293827,-0.222089 -0.467963,-0.308547 -0.270295,-0.134201 -0.322741,-0.275768 -0.358478,-0.967695 -0.0506,-0.979965 0.152568,-1.764073 0.667516,-2.576062 0.319696,-0.504112 0.456761,-0.608166 0.80109,-0.608166 0.390044,0 1.221295,0.457146 1.339484,0.73665 0.02938,0.06944 0.199113,0.261311 0.377217,0.426372 0.449045,0.416162 0.555499,1.852304 0.166164,2.241642 -0.317964,0.317965 -1.20026,0.798749 -1.476436,0.804546 -0.113006,0.0023 -0.323957,0.09393 -0.468768,0.203463 -0.315994,0.239007 -0.383087,0.244539 -0.579826,0.0478 z m -6.549354,-3.307514 c -0.09287,-0.111905 -0.250794,-0.203464 -0.350942,-0.203464 -0.366021,0 -0.497303,-0.548282 -0.402763,-1.682084 0.07692,-0.922396 0.161012,-1.202564 0.524387,-1.747027 0.529769,-0.793777 0.847147,-0.892713 1.622139,-0.505664 1.000583,0.499715 1.532783,1.387892 1.463685,2.442716 -0.03142,0.47944 -0.457812,1.085134 -0.763927,1.085134 -0.09133,0 -0.514154,0.183117 -0.939622,0.406925 -0.89234,0.469397 -0.927155,0.475541 -1.152957,0.203464 z m -6.448156,-4.28108 c -0.04895,-0.07921 -0.227086,-0.196508 -0.395853,-0.260674 -0.351596,-0.133676 -0.453662,-0.526688 -0.425466,-1.63827 0.01591,-0.627179 0.111098,-0.901423 0.564613,-1.626691 0.536231,-0.857552 0.554569,-0.871566 1.081885,-0.826836 0.295026,0.02503 0.585222,0.13139 0.644881,0.236363 0.05966,0.104974 0.181737,0.191961 0.271284,0.193306 0.08955,0.0013 0.373926,0.256568 0.631955,0.567162 0.430231,0.517878 0.467316,0.632989 0.447118,1.387883 -0.01881,0.703271 -0.07344,0.86762 -0.374975,1.128362 -0.194123,0.167856 -0.456365,0.30593 -0.58276,0.306828 -0.126395,9.12e-4 -0.495454,0.153496 -0.820132,0.339104 -0.642387,0.367234 -0.905033,0.415971 -1.04255,0.193463 z"
       id="path993" />
  </g>
</svg>
