<?xml version="1.0" encoding="UTF-8" standalone="no"?>
<svg
   xmlns:dc="http://purl.org/dc/elements/1.1/"
   xmlns:cc="http://creativecommons.org/ns#"
   xmlns:rdf="http://www.w3.org/1999/02/22-rdf-syntax-ns#"
   xmlns:svg="http://www.w3.org/2000/svg"
   xmlns="http://www.w3.org/2000/svg"
   xmlns:sodipodi="http://sodipodi.sourceforge.net/DTD/sodipodi-0.dtd"
   xmlns:inkscape="http://www.inkscape.org/namespaces/inkscape"
   width="41.171352mm"
   height="13.911406mm"
   viewBox="0 0 41.17135 13.911405"
   version="1.1"
   id="svg8"
   sodipodi:docname="pring_bg.svg"
   inkscape:version="0.92.5 (2060ec1f9f, 2020-04-08)">
  <defs
     id="defs2">
    <filter
       inkscape:collect="always"
       style="color-interpolation-filters:sRGB"
       id="filter1244"
       x="-0.043421876"
       width="1.0868437"
       y="-0.21061897"
       height="1.4212379">
      <feGaussianBlur
         inkscape:collect="always"
         stdDeviation="0.80396831"
         id="feGaussianBlur1246" />
    </filter>
  </defs>
  <sodipodi:namedview
     id="base"
     pagecolor="#ffffff"
     bordercolor="#666666"
     borderopacity="1.0"
     inkscape:pageopacity="0.0"
     inkscape:pageshadow="2"
     inkscape:zoom="4.3570699"
     inkscape:cx="41.71924"
     inkscape:cy="29.529424"
     inkscape:document-units="mm"
     inkscape:current-layer="layer1"
     inkscape:document-rotation="0"
     showgrid="false"
     showguides="true"
     inkscape:guide-bbox="true"
     inkscape:window-width="1920"
     inkscape:window-height="1025"
     inkscape:window-x="0"
     inkscape:window-y="0"
     inkscape:window-maximized="1" />
  <metadata
     id="metadata5">
    <rdf:RDF>
      <cc:Work
         rdf:about="">
        <dc:format>image/svg+xml</dc:format>
        <dc:type
           rdf:resource="http://purl.org/dc/dcmitype/StillImage" />
      </cc:Work>
    </rdf:RDF>
  </metadata>
  <g
     inkscape:label="Layer 1"
     inkscape:groupmode="layer"
     id="layer1"
     transform="translate(6.406473,5.8060662)">
    <path
       style="fill:#000000;fill-opacity:0.34693879;stroke-width:0.19177406;filter:url(#filter1244)"
       d="M 145.95312,7.2929688 142.98633,25.800781 H 11.152344 c 0.310796,1.185684 1.066157,2.065275 1.990234,2.236328 v 0.0625 c 0.108221,-0.02003 0.219772,-0.03125 0.332031,-0.03125 h 19.902344 c 1.372126,0 2.476563,1.542708 2.476563,3.460938 0,1.918233 -1.104437,3.462891 -2.476563,3.462891 H 28.632812 13.474609 c -0.112262,0 -0.223809,-0.01122 -0.332031,-0.03125 v 0.03125 H 8.7304688 c -1.3721262,0 -2.4765626,1.544656 -2.4765626,3.46289 0,1.91823 1.1044364,3.462891 2.4765626,3.462891 H 13.142578 24.984375 135.69141 c 11.32653,0 12.04392,-21.382709 14.58203,-34.6250002 z"
       transform="matrix(0.26303081,0,0,0.28269259,-6.406554,-5.8061473)"
       id="path1046"
       inkscape:connector-curvature="0"
       inkscape:export-filename="/home/zero/React/diggiart-react-dev/app/assets/icons/print_bg.png"
       inkscape:export-xdpi="96"
       inkscape:export-ydpi="96" />
    <path
       id="rect833"
       style="fill:#4394cd;fill-opacity:1;stroke-width:0.05074022"
       d="m -4.480093,-3.8965017 c -0.3630416,0 -0.6552963,0.408571 -0.6552963,0.916103 0,0.507532 0.2922547,0.916105 0.6552963,0.916105 h 0.7372181 0.4300406 3.87044495 c 0.36304144,0 0.65529615,0.408627 0.65529615,0.916159 0,0.50753197 -0.29225471,0.91610391 -0.65529615,0.91610391 h -3.78294005 -0.087505 v 0.0083 c -0.3213445,0.05948 -0.5678308,0.441793 -0.5678308,0.907801 0,0.46600899 0.2464852,0.84837199 0.5678308,0.90785609 v 0.01661 c 0.028634,-0.0053 0.057802,-0.0083 0.087504,-0.0083 h 5.2660542 c 0.3630417,0 0.6553358,0.408572 0.6553358,0.916104 0,0.507532 -0.2922941,0.916104 -0.6553358,0.916104 H 0.78560499 -3.2253294 c -0.029703,0 -0.058871,-0.003 -0.087505,-0.0083 v 0.0083 h -1.1676545 c -0.3630417,0 -0.6552963,0.408626 -0.6552963,0.916159 0,0.507532 0.2922546,0.916104 0.6552963,0.916104 h 1.1676542 3.13283071 29.29141799 c 2.996813,0 3.186547,-5.65751609 3.858087,-9.161206 H -0.17964717 -3.3128343 Z"
       sodipodi:nodetypes="sssccssscccsccsssscsccsssccccccs"
       inkscape:connector-curvature="0"
       inkscape:export-filename="/home/zero/React/diggiart-react-dev/app/assets/icons/print_bg.png"
       inkscape:export-xdpi="96"
       inkscape:export-ydpi="96" />
  </g>
</svg>
