<svg id="Layer_1" data-name="Layer 1" xmlns="http://www.w3.org/2000/svg" viewBox="0 0 37 35"><defs><style>.cls-1{fill:#d09892;}</style></defs><path class="cls-1" d="M1.28,17.47A17.22,17.22,0,1,1,18.37,34.75,17.24,17.24,0,0,1,1.28,17.47ZM29.12,28.22c.76-.4,2.51-2.88,3.25-4.57a14.9,14.9,0,0,0,.84-9.93,15.19,15.19,0,0,0-29.47.07,15,15,0,0,0,.86,9.86A14,14,0,0,0,8,28.35c0-.12.06-.23.08-.34.1-.44.18-.89.3-1.32a7.15,7.15,0,0,1,3.07-4.24A10.53,10.53,0,0,1,14,21.34a3,3,0,0,1,2,.11,6.92,6.92,0,0,0,5.25,0,3,3,0,0,1,2.07-.09,8,8,0,0,1,4.2,2.82A9,9,0,0,1,29,27.79C29.05,27.93,29.09,28.07,29.12,28.22Z"/><path class="cls-1" d="M13.48,14.87a5,5,0,1,1,5,5A5,5,0,0,1,13.48,14.87Z"/></svg>