<?xml version="1.0" encoding="UTF-8" standalone="no"?>
<svg
   xmlns:dc="http://purl.org/dc/elements/1.1/"
   xmlns:cc="http://creativecommons.org/ns#"
   xmlns:rdf="http://www.w3.org/1999/02/22-rdf-syntax-ns#"
   xmlns:svg="http://www.w3.org/2000/svg"
   xmlns="http://www.w3.org/2000/svg"
   xmlns:sodipodi="http://sodipodi.sourceforge.net/DTD/sodipodi-0.dtd"
   xmlns:inkscape="http://www.inkscape.org/namespaces/inkscape"
   width="90.079475mm"
   height="96.949753mm"
   viewBox="0 0 90.079475 96.949753"
   version="1.1"
   id="svg8"
   inkscape:version="1.0.1 (3bc2e813f5, 2020-09-07)"
   sodipodi:docname="purple_pen.svg">
  <defs
     id="defs2" />
  <sodipodi:namedview
     id="base"
     pagecolor="#ffffff"
     bordercolor="#666666"
     borderopacity="1.0"
     inkscape:pageopacity="0.0"
     inkscape:pageshadow="2"
     inkscape:zoom="0.98994949"
     inkscape:cx="435.36191"
     inkscape:cy="274.75405"
     inkscape:document-units="mm"
     inkscape:current-layer="layer1"
     inkscape:document-rotation="0"
     showgrid="false"
     inkscape:window-width="1680"
     inkscape:window-height="997"
     inkscape:window-x="-8"
     inkscape:window-y="-8"
     inkscape:window-maximized="1" />
  <metadata
     id="metadata5">
    <rdf:RDF>
      <cc:Work
         rdf:about="">
        <dc:format>image/svg+xml</dc:format>
        <dc:type
           rdf:resource="http://purl.org/dc/dcmitype/StillImage" />
        <dc:title></dc:title>
      </cc:Work>
    </rdf:RDF>
  </metadata>
  <g
     inkscape:label="Layer 1"
     inkscape:groupmode="layer"
     id="layer1"
     transform="translate(-12.786278,-26.96123)">
    <path
       style="fill:#92268e;stroke-width:0.16982"
       d="m 20.416383,118.96492 c 0,-0.10172 6.27222,-18.83737 6.32094,-18.88117 0.0672,-0.0604 10.93152,7.59915 10.93965,7.71272 0.004,0.0534 -2.48507,1.70296 -5.53087,3.66572 -3.0458,1.96275 -6.931,4.4675 -8.63377,5.56611 -1.70277,1.09861 -3.09595,1.97009 -3.09595,1.93662 z m 12.94017,-16.43248 c -3.07673,-2.15979 -5.59536,-3.964094 -5.59695,-4.009564 -0.002,-0.0455 0.64917,-0.91641 1.44613,-1.93543 l 1.44903,-1.85275 5.65122,3.9826 c 3.10817,2.190434 5.68113,4.007384 5.71769,4.037664 0.096,0.0795 -2.78064,3.70437 -2.93976,3.70437 -0.0733,0 -2.65063,-1.7671 -5.72736,-3.92689 z m 4.17809,-5.075854 c -3.10392,-2.20684 -5.63995,-4.06355 -5.63562,-4.12603 0.004,-0.0625 10.84793,-13.90849 24.09688,-30.76888 l 24.08901,-30.65528 5.529316,3.90795 c 3.04111,2.14937 6.44881,4.54516 7.57266,5.32398 1.12384,0.77881 2.04578,1.45323 2.04876,1.49869 0.0153,0.23293 -27.971656,35.62851 -28.158096,35.61209 -0.12039,-0.0106 -0.65701,-0.33286 -1.1925,-0.71611 l -0.97362,-0.69684 1.18243,-1.51601 c 0.65034,-0.83381 6.62038,-8.43301 13.26674,-16.88712 6.646366,-8.45411 12.117426,-15.45292 12.157896,-15.55292 0.0898,-0.22183 -1.1881,-1.11367 -1.35145,-0.94317 -0.064,0.0668 -10.606206,13.47695 -23.427216,29.80041 -12.821,16.32347 -23.36734,29.690864 -23.43631,29.705344 -0.069,0.0144 -2.66495,-1.779274 -5.76888,-3.986104 z m -1.13164,-5.17541 c 1.00445,-0.472 2.37995,-1.3231 3.4473,-2.13305 1.92551,-1.46112 7.14938,-6.45498 10.35142,-9.89563 2.85129,-3.06376 8.78023,-10.13061 13.25789,-15.80242 2.11259,-2.67598 4.23024,-5.2856 4.70589,-5.79915 0.47565,-0.51355 1.7533,-2.15044 2.83923,-3.63754 1.08593,-1.4871 3.22554,-4.37059 4.75469,-6.40777 3.60323,-4.80032 4.50962,-6.12821 4.44694,-6.51491 -0.069,-0.4254 -1.45689,-1.10711 -2.25404,-1.10711 -1.29223,0 -2.85455,0.61269 -4.06963,1.59598 -0.67038,0.5425 -1.18982,1.10628 -1.25312,1.36007 -0.0595,0.23841 -0.48064,1.02871 -0.93596,1.75621 -0.45531,0.72751 -0.95468,1.56018 -1.1097,1.85038 -0.15502,0.29019 -0.79746,1.18304 -1.42765,1.98411 -0.63018,0.80106 -1.5528,2.07257 -2.05026,2.82555 -0.49746,0.75299 -1.53542,2.16667 -2.30658,3.14151 -1.64728,2.08237 -2.52233,3.30042 -2.52233,3.51102 0,0.0832 -0.14589,0.22525 -0.3242,0.31571 -0.17831,0.0905 -0.42335,0.50017 -0.54452,0.91046 -0.12118,0.41029 -0.34852,0.78455 -0.50519,0.83169 -0.43545,0.13102 -1.64679,1.69646 -2.26077,2.92167 -0.3022,0.60305 -0.74612,1.2186 -0.98648,1.36789 -0.24036,0.14929 -0.43701,0.37871 -0.43701,0.50983 0,0.13111 -0.15698,0.31802 -0.34884,0.41536 -0.24238,0.12297 -0.34884,0.3462 -0.34884,0.73149 0,0.42209 -0.0713,0.54902 -0.29855,0.53154 -0.17157,-0.0132 -0.327,0.11769 -0.36545,0.30773 -0.0368,0.18187 -0.28623,0.55389 -0.55431,0.82671 -0.26807,0.27282 -0.53459,0.6455 -0.59226,0.82819 -0.0577,0.18269 -0.28218,0.40658 -0.4989,0.49753 -0.23454,0.0984 -0.37307,0.28277 -0.34225,0.45543 0.0285,0.15953 -0.0696,0.33422 -0.21802,0.38821 -0.16077,0.0585 -0.26982,0.29926 -0.26982,0.59577 0,0.41621 -0.0571,0.48347 -0.34883,0.41115 -0.23614,-0.0586 -0.34884,-0.005 -0.34884,0.16549 0,0.13858 -0.54943,0.82971 -1.22094,1.53584 -1.23729,1.30108 -1.39533,1.56857 -1.00291,1.69751 0.11992,0.0394 -0.0294,0.12433 -0.33188,0.18873 -0.38659,0.0823 -0.61415,0.26413 -0.76625,0.61222 -0.12713,0.29096 -0.48552,0.62531 -0.86908,0.81081 -0.70943,0.34308 -1.73921,1.53573 -1.73921,2.01427 0,0.16396 -0.0785,0.29812 -0.17442,0.29812 -0.0959,0 -0.17442,0.14379 -0.17442,0.31953 0,0.17576 -0.15516,0.36624 -0.34481,0.42329 -0.18965,0.057 -0.94742,0.78752 -1.68394,1.62324 -0.73652,0.83572 -1.99911,2.14751 -2.80576,2.91511 -0.83054,0.79033 -1.50565,1.58058 -1.5566,1.8221 -0.0901,0.42727 -1.91072,2.25793 -4.4229,4.44741 -1.29758,1.1309 -2.17484,1.67673 -2.69485,1.67673 -0.2725,0 -0.36944,0.34693 -0.15401,0.55115 0.0639,0.0606 0.53779,0.11023 1.05297,0.11023 0.76661,0 1.24017,-0.14261 2.608,-0.78539 z m 3.63559,-3.18284 c -0.0593,-0.0909 0.0192,-0.16535 0.17441,-0.16535 0.15522,0 0.23371,0.0744 0.17443,0.16535 -0.0593,0.0909 -0.13778,0.16534 -0.17443,0.16534 -0.0366,0 -0.11512,-0.0744 -0.17441,-0.16534 z m 0.78489,-0.96943 c 0,-0.225 1.64328,-1.62341 2.05228,-1.74647 0.25547,-0.0769 0.38534,-0.27321 0.42277,-0.63915 0.0395,-0.38614 0.18289,-0.58647 0.53314,-0.74481 0.2635,-0.11913 0.86131,-0.58468 1.32845,-1.03454 0.46713,-0.44987 0.93831,-0.81794 1.04705,-0.81794 0.10876,0 0.19773,-0.17135 0.19773,-0.38079 0,-0.52521 0.99345,-1.77759 1.31678,-1.65998 0.16917,0.0615 0.253,-0.0178 0.253,-0.23921 0,-0.41482 1.10916,-1.35756 1.5972,-1.35756 0.27942,0 0.32025,-0.0501 0.17552,-0.21544 -0.13918,-0.15897 -0.0944,-0.36225 0.17072,-0.77557 0.60823,-0.9481 1.75886,-2.1505 2.05791,-2.1505 0.15616,0 0.43327,-0.24182 0.6158,-0.53737 0.18253,-0.29555 0.45455,-0.62895 0.60447,-0.7409 0.21231,-0.15852 0.22411,-0.23397 0.0533,-0.34118 -0.16329,-0.10249 -0.10763,-0.22965 0.21803,-0.49807 0.24052,-0.19824 0.4373,-0.43533 0.4373,-0.52687 0,-0.0915 0.13735,-0.16961 0.30524,-0.17348 0.16787,-0.004 0.60853,-0.37979 0.97925,-0.83537 0.66173,-0.81322 0.75567,-1.24691 0.17183,-0.79324 -0.25045,0.19461 -0.24559,0.15638 0.0315,-0.24703 0.18026,-0.2625 0.35749,-0.39271 0.39383,-0.28935 0.10335,0.29391 0.38556,0.22022 0.38842,-0.10143 0.005,-0.54553 0.43135,-1.11828 0.79692,-1.07018 0.40094,0.0527 1.32391,-0.97324 0.97476,-1.08356 -0.35281,-0.11148 -0.2226,-0.36764 0.18797,-0.36979 0.46304,-0.002 1.25857,-1.04685 1.09853,-1.44222 -0.057,-0.14066 0.0246,-0.44109 0.18115,-0.66762 0.2228,-0.32234 0.31686,-0.36251 0.43274,-0.18476 0.17637,0.27052 0.10493,0.342 1.63566,-1.63651 1.10199,-1.42433 1.38672,-2.0538 0.68093,-1.50538 -0.25782,0.20033 -0.25488,0.1699 0.0227,-0.23432 0.21515,-0.31335 0.36064,-0.40064 0.447,-0.26816 0.19031,0.29189 0.38337,0.12373 1.91124,-1.66475 1.40691,-1.64687 2.11257,-2.30478 1.50058,-1.39901 -0.18196,0.26929 -1.51173,2.01492 -2.95505,3.87915 -7.9159,10.2244 -10.48715,13.26015 -16.37651,19.33501 -3.13681,3.23561 -4.62598,4.60494 -4.97958,4.57887 -0.16297,-0.012 -0.37463,0.14556 -0.47035,0.35018 -0.1717,0.36703 -0.44015,0.50688 -0.44015,0.2293 z m 2.35466,-3.66017 c 0.17363,-0.18188 0.35494,-0.33068 0.4029,-0.33068 0.048,0 -0.0548,0.1488 -0.22848,0.33068 -0.17364,0.18188 -0.35494,0.33069 -0.40291,0.33069 -0.048,0 0.0549,-0.14881 0.22849,-0.33069 z m 1.04652,-1.1574 c 0.17363,-0.18187 0.35494,-0.33068 0.4029,-0.33068 0.048,0 -0.0549,0.14881 -0.22849,0.33068 -0.17363,0.18188 -0.35493,0.33069 -0.4029,0.33069 -0.048,0 0.0549,-0.14881 0.22849,-0.33069 z m 2.17714,-2.30931 c 0.25283,-0.44782 0.51091,-0.56391 0.4057,-0.1825 -0.0485,0.17572 -0.19995,0.36016 -0.33661,0.40987 -0.19644,0.0715 -0.21091,0.0239 -0.0691,-0.22737 z m 1.04962,-1.24556 c 0.22531,-0.22734 0.44889,-0.41335 0.49686,-0.41335 0.048,0 -0.0971,0.18601 -0.32244,0.41335 -0.22531,0.22735 -0.44889,0.41336 -0.49686,0.41336 -0.048,0 0.0971,-0.18601 0.32244,-0.41336 z m 2.67203,-3.0845 c 1.19997,-1.42367 2.27778,-2.76294 2.39516,-2.97617 0.11737,-0.21323 0.58523,-0.76403 1.0397,-1.224 0.45447,-0.45997 0.94715,-1.0552 1.09485,-1.32274 0.14769,-0.26754 0.55696,-0.74685 0.90947,-1.06514 0.3525,-0.31828 0.82165,-0.91352 1.04255,-1.32274 0.22088,-0.40923 0.57318,-0.89102 0.78287,-1.07066 0.55613,-0.47642 -0.59443,1.40174 -1.402,2.2886 -0.34231,0.37592 -0.90635,1.09273 -1.25341,1.59288 -0.34705,0.50017 -1.28649,1.61624 -2.08764,2.48015 -0.80115,0.86391 -1.74374,1.97998 -2.09466,2.48014 -0.35091,0.50016 -1.08141,1.3186 -1.62333,1.81877 -0.74468,0.6873 -0.45249,0.27723 1.19644,-1.67909 z m 6.74663,-6.81582 c 0,-0.0343 0.13735,-0.16454 0.30523,-0.28935 0.27665,-0.20566 0.28282,-0.19982 0.0659,0.0624 -0.22786,0.27542 -0.37109,0.36301 -0.37109,0.22692 z m 1.56978,-3.4722 c 0,-0.0343 0.13735,-0.16454 0.30523,-0.28935 0.27664,-0.20566 0.28281,-0.19981 0.0659,0.0624 -0.22787,0.27542 -0.37109,0.36301 -0.37109,0.22692 z"
       id="path886" />
  </g>
</svg>
