<?xml version="1.0" encoding="UTF-8" standalone="no"?>
<!-- Created with Inkscape (http://www.inkscape.org/) -->

<svg
   xmlns:dc="http://purl.org/dc/elements/1.1/"
   xmlns:cc="http://creativecommons.org/ns#"
   xmlns:rdf="http://www.w3.org/1999/02/22-rdf-syntax-ns#"
   xmlns:svg="http://www.w3.org/2000/svg"
   xmlns="http://www.w3.org/2000/svg"
   xmlns:sodipodi="http://sodipodi.sourceforge.net/DTD/sodipodi-0.dtd"
   xmlns:inkscape="http://www.inkscape.org/namespaces/inkscape"
   width="39.309525mm"
   height="39.309525mm"
   viewBox="0 0 39.309525 39.309525"
   version="1.1"
   id="svg8"
   sodipodi:docname="rotate.svg"
   inkscape:version="0.92.5 (2060ec1f9f, 2020-04-08)">
  <defs
     id="defs2" />
  <sodipodi:namedview
     id="base"
     pagecolor="#ffffff"
     bordercolor="#666666"
     borderopacity="1.0"
     inkscape:pageopacity="0.0"
     inkscape:pageshadow="2"
     inkscape:zoom="2.8"
     inkscape:cx="166.78055"
     inkscape:cy="43.524634"
     inkscape:document-units="mm"
     inkscape:current-layer="layer1"
     showgrid="false"
     inkscape:window-width="1920"
     inkscape:window-height="1025"
     inkscape:window-x="0"
     inkscape:window-y="0"
     inkscape:window-maximized="1"
     showguides="true"
     inkscape:guide-bbox="true" />
  <metadata
     id="metadata5">
    <rdf:RDF>
      <cc:Work
         rdf:about="">
        <dc:format>image/svg+xml</dc:format>
        <dc:type
           rdf:resource="http://purl.org/dc/dcmitype/StillImage" />
        <dc:title></dc:title>
      </cc:Work>
    </rdf:RDF>
  </metadata>
  <g
     inkscape:label="Layer 1"
     inkscape:groupmode="layer"
     id="layer1"
     transform="translate(-57.074402,-73.04911)">
    <path
       style="stroke-width:0.24970761"
       d="m 76.697218,74.122843 v 3.867542 A 16.648023,16.648023 0 0 0 60.080932,94.63691 16.648023,16.648023 0 0 0 76.729408,111.2849 16.648023,16.648023 0 0 0 93.377396,94.63691 16.648023,16.648023 0 0 0 93.299854,93.091844 H 87.390757 A 10.783377,10.783377 0 0 1 87.512685,94.63691 10.783377,10.783377 0 0 1 76.729412,105.42018 10.783377,10.783377 0 0 1 65.945652,94.63691 10.783377,10.783377 0 0 1 76.697223,83.854124 v 3.612958 l 4.635686,-3.335938 4.635687,-3.336426 -4.635687,-3.335938 z"
       id="path3808"
       inkscape:connector-curvature="0" />
  </g>
</svg>
