<svg id="Layer_1" data-name="Layer 1" xmlns="http://www.w3.org/2000/svg" viewBox="0 0 37 35"><defs><style>.cls-1{fill:#d09892;}</style></defs><path class="cls-1" d="M36,13.66a3.92,3.92,0,0,1-1.58,3.24c-1.25,1-2.5,1.94-3.76,2.89a7.76,7.76,0,0,0-3.13,5.72c-.18,2-.37,4-.54,6-.25,2.76-2.53,3.93-4.91,2.5q-2.57-1.55-5.1-3.13a3.8,3.8,0,0,0-3.9-.2c-2.48,1.17-5,2.27-7.47,3.45a2.57,2.57,0,0,1-3.11-.34,2.51,2.51,0,0,1-.41-3.1q1.26-2.85,2.5-5.71a5.91,5.91,0,0,0-.74-6.33c-.7-.93-1.43-1.84-2.09-2.79a3.44,3.44,0,0,1,2.34-5.57c2.29-.36,4.59-.7,6.9-1a5.43,5.43,0,0,0,4.07-2.34c1.15-1.62,2.41-3.17,3.61-4.77A3.93,3.93,0,0,1,22.94.54a3.86,3.86,0,0,1,3,3.17c.23.93.38,1.88.62,2.8a3.44,3.44,0,0,0,3,2.79c1,.16,2.06.31,3.08.48A4,4,0,0,1,36,13.66ZM21.63,2.37a7.25,7.25,0,0,0-1.4,1.08C19,5,17.8,6.51,16.68,8.1a7.4,7.4,0,0,1-5.54,3.17c-2.23.25-4.45.57-6.66.94-1.46.24-1.89,1.35-1.05,2.55.62.88,1.3,1.72,1.95,2.58a7.93,7.93,0,0,1,1,8.45C5.59,27.62,4.77,29.44,4,31.27a3.54,3.54,0,0,0-.1,1,3.11,3.11,0,0,0,1-.12c2.46-1.1,4.9-2.24,7.35-3.38a5.65,5.65,0,0,1,5.7.32c1.69,1.05,3.38,2.1,5.1,3.11,1.16.69,1.79.34,1.92-1,.18-1.9.37-3.8.53-5.71a9.78,9.78,0,0,1,4-7.41,34.73,34.73,0,0,0,3.62-2.86,2.55,2.55,0,0,0,.68-2,2.71,2.71,0,0,0-1.62-1.42,19.19,19.19,0,0,0-3.06-.54,5.27,5.27,0,0,1-4.46-4c-.29-1-.49-2.1-.74-3.15S23.07,2.47,21.63,2.37Z"/></svg>