<svg id="Layer_1" data-name="Layer 1" xmlns="http://www.w3.org/2000/svg" viewBox="0 0 37 35"><defs><style>.cls-1{fill:#d09892;}</style></defs><path class="cls-1" d="M23.16,25.3H21.83c-1.22,0-1.77-.56-1.77-1.8V9.72h4.72a1,1,0,0,1,.87.52,3.42,3.42,0,0,1,.4.92c.13.53.2,1.09.3,1.65h1.47V8.19H9.17v4.62h1.42c.2-.79.34-1.54.58-2.26a1.23,1.23,0,0,1,1.31-.84c.77,0,1.55,0,2.33,0h2.13V23.53a1.54,1.54,0,0,1-1.76,1.77H13.85v1.53h9.31ZM2.9,1.91H4.45V.39H1.38V3.46H2.9ZM32.55.38V1.93h1.56V3.46h1.51V.38ZM1.37,34.62H4.45V33.08H2.9V31.55H1.37Zm32.71-1.53H32.56v1.54h3.06V31.56H34.08ZM7.62.38V1.9h3.06V.38Zm9.3,0H13.85V1.9h3.07Zm3.16,0V1.9h3.06V.37ZM26.31,1.9h3.07V.39H26.31ZM1.38,6.62V9.69h1.5V6.62Zm1.5,9.31V12.85H1.38v3.08Zm32.75-3.08H34.11v3.07h1.52ZM1.37,22.15H2.89V19.09H1.37Zm34.25,0V19.09H34.11v3.07ZM1.38,25.32v3.07h1.5V25.32Zm34.25,0H34.11v3.06h1.52ZM34.12,6.61V9.69h1.5V6.61ZM7.62,33.11v1.51h3.07V33.11Zm6.23,0v1.51h3.07V33.11Zm6.23,0v1.52h3.06V33.1Zm6.23,1.52h3.07V33.11H26.31Z"/><path class="cls-1" d="M23.16,25.3v1.53H13.85V25.3h1.33a1.54,1.54,0,0,0,1.76-1.77V9.71H14.81c-.78,0-1.56,0-2.33,0a1.23,1.23,0,0,0-1.31.84c-.24.72-.38,1.47-.58,2.26H9.17V8.19H27.82v4.62H26.35c-.1-.56-.17-1.12-.3-1.65a3.42,3.42,0,0,0-.4-.92,1,1,0,0,0-.87-.52H20.06V23.5c0,1.24.55,1.8,1.77,1.8Z"/><path class="cls-1" d="M2.9,1.91V3.46H1.38V.39H4.45V1.91Z"/><path class="cls-1" d="M32.55.38h3.07V3.46H34.11V1.93H32.55Z"/><path class="cls-1" d="M1.37,34.62V31.55H2.9v1.53H4.45v1.54Z"/><path class="cls-1" d="M34.08,33.09V31.56h1.54v3.07H32.56V33.09Z"/><path class="cls-1" d="M7.62.38h3.06V1.9H7.62Z"/><path class="cls-1" d="M16.92.39V1.9H13.85V.39Z"/><path class="cls-1" d="M20.08.37h3.06V1.9H20.08Z"/><path class="cls-1" d="M26.31,1.9V.39h3.07V1.9Z"/><path class="cls-1" d="M1.38,6.62h1.5V9.69H1.38Z"/><path class="cls-1" d="M2.88,15.93H1.38V12.85h1.5Z"/><path class="cls-1" d="M35.63,12.85v3.07H34.11V12.85Z"/><path class="cls-1" d="M1.37,22.15V19.09H2.89v3.06Z"/><path class="cls-1" d="M35.62,22.16H34.11V19.09h1.51Z"/><path class="cls-1" d="M1.38,25.32h1.5v3.07H1.38Z"/><path class="cls-1" d="M35.63,25.33v3.06H34.11V25.33Z"/><path class="cls-1" d="M34.12,6.61h1.5V9.69h-1.5Z"/><path class="cls-1" d="M7.62,33.11h3.07v1.51H7.62Z"/><path class="cls-1" d="M13.85,33.11h3.07v1.51H13.85Z"/><path class="cls-1" d="M20.08,33.1h3.06v1.52H20.08Z"/><path class="cls-1" d="M26.31,34.62V33.11h3.07v1.51Z"/></svg>