<svg id="Layer_5" enable-background="new 0 0 64 64" height="512" viewBox="0 0 64 64" width="512" xmlns="http://www.w3.org/2000/svg" xmlns:xlink="http://www.w3.org/1999/xlink"><linearGradient id="SVGID_1_" gradientUnits="userSpaceOnUse" x1="32" x2="32" y1="63" y2="1"><stop offset="0" stop-color="#9f2fff"/><stop offset="1" stop-color="#0bb1d3"/></linearGradient><path d="m44 31h6c4.962 0 9-4.037 9-9s-4.038-9-9-9c-.186 0-.374.007-.568.021-2.018-7.018-9.193-12.021-17.432-12.021s-15.414 5.003-17.432 12.021c-.194-.014-.382-.021-.568-.021-4.962 0-9 4.037-9 9s4.038 9 9 9h6v2h-19v30h27.586 1.414 12 2 19v-30h-19zm0 8h13v6h-13zm-37-17c0-3.859 3.14-7 7-7 .353 0 .732.034 1.158.104l.935.155.205-.926c1.449-6.566 8.053-11.333 15.702-11.333s14.253 4.767 15.703 11.334l.205.926.935-.155c.425-.071.804-.105 1.157-.105 3.86 0 7 3.141 7 7s-3.14 7-7 7h-14v-2h1.434c1.415 0 2.566-1.151 2.566-2.566 0-.465-.126-.922-.366-1.32l-5.262-8.771c-.497-.828-1.406-1.343-2.372-1.343s-1.875.515-2.372 1.343l-5.262 8.771c-.24.398-.366.855-.366 1.32 0 1.415 1.151 2.566 2.566 2.566h1.434v2h-14c-3.86 0-7-3.141-7-7zm19.566 3c-.312 0-.566-.254-.566-.566 0-.103.028-.203.081-.291l5.262-8.771c.275-.459 1.039-.459 1.314 0l5.262 8.771c.053.087.081.188.081.291 0 .312-.254.566-.566.566h-3.434v16h-4v-16zm9.434 18v-4h2v6h-12v-6h2v4zm-8 16.586-4.586-4.586h4.586zm-25 1.414v-26h17v19.414l6.586 6.586zm27 0v-8h-8v-22h6v6h-4v10h16v-10h-4v-6h6v30zm31-26v26h-17v-14h15v-10h-15v-2zm-37 14h16v2h-16zm12 4v2h-4v-2zm2 0h2v2h-2zm-6 4h8v2h-8zm14-8h13v2h-13zm0 4h13v2h-13zm11 4h2v2h-2zm-11 0h9v2h-9zm-41 2h13v-6h-13zm2-4h9v2h-9zm9-6h2v2h-2zm-2 2h-9v-2h9zm-9-6h13v2h-13zm4-4h9v2h-9zm-2 2h-2v-2h2zm-2-6h13v2h-13zm19-26c-.551 0-1 .448-1 1v7h-2v-7c0-1.654 1.346-3 3-3h16c1.654 0 3 1.346 3 3v7h-2v-7c0-.552-.449-1-1-1z" fill="url(#SVGID_1_)"/></svg>