<?xml version="1.0" encoding="UTF-8" standalone="no"?>
<svg
   xmlns:dc="http://purl.org/dc/elements/1.1/"
   xmlns:cc="http://creativecommons.org/ns#"
   xmlns:rdf="http://www.w3.org/1999/02/22-rdf-syntax-ns#"
   xmlns:svg="http://www.w3.org/2000/svg"
   xmlns="http://www.w3.org/2000/svg"
   xmlns:sodipodi="http://sodipodi.sourceforge.net/DTD/sodipodi-0.dtd"
   xmlns:inkscape="http://www.inkscape.org/namespaces/inkscape"
   width="90.079475mm"
   height="96.949753mm"
   viewBox="0 0 90.079475 96.949753"
   version="1.1"
   id="svg8"
   inkscape:version="1.0.1 (3bc2e813f5, 2020-09-07)"
   sodipodi:docname="yellow_brush.svg">
  <defs
     id="defs2" />
  <sodipodi:namedview
     id="base"
     pagecolor="#ffffff"
     bordercolor="#666666"
     borderopacity="1.0"
     inkscape:pageopacity="0.0"
     inkscape:pageshadow="2"
     inkscape:zoom="0.98994949"
     inkscape:cx="435.36191"
     inkscape:cy="274.75405"
     inkscape:document-units="mm"
     inkscape:current-layer="layer1"
     inkscape:document-rotation="0"
     showgrid="false"
     inkscape:window-width="1680"
     inkscape:window-height="997"
     inkscape:window-x="-8"
     inkscape:window-y="-8"
     inkscape:window-maximized="1" />
  <metadata
     id="metadata5">
    <rdf:RDF>
      <cc:Work
         rdf:about="">
        <dc:format>image/svg+xml</dc:format>
        <dc:type
           rdf:resource="http://purl.org/dc/dcmitype/StillImage" />
        <dc:title></dc:title>
      </cc:Work>
    </rdf:RDF>
  </metadata>
  <g
     inkscape:label="Layer 1"
     inkscape:groupmode="layer"
     id="layer1"
     transform="translate(-12.786278,-26.96123)">
    <path
       style="fill:#fecd00;stroke-width:0.131125"
       d="m 14.688239,121.71985 c 5.479192,-3.38452 8.682921,-6.75635 11.36442,-11.9607 0.743732,-1.44346 0.902438,-1.89809 0.662602,-1.89809 -0.270522,0 -1.356614,0.94282 -3.486302,3.02639 l -2.290452,2.24086 0.395006,-1.48628 c 1.695519,-6.37969 3.780736,-11.84809 6.891863,-18.07362 2.833362,-5.669721 3.924285,-7.314643 6.655126,-10.034775 3.607388,-3.593243 6.904907,-5.477416 11.055108,-6.316779 1.657551,-0.335231 5.948413,-0.330745 7.509527,0.0077 5.827091,1.263856 9.78061,4.189349 12.306271,9.106294 1.346657,2.62168 1.91168,4.914933 1.912389,7.761908 6.62e-4,2.801458 -0.571952,5.119265 -1.928491,7.805482 -2.357892,4.66908 -7.623248,9.80102 -13.076912,12.74556 -6.25391,3.3766 -15.73396,5.79768 -26.552871,6.78126 -5.026588,0.45698 -11.97019,0.63617 -11.417284,0.29464 z m 28.407319,-7.89551 c 1.080638,-0.26083 2.023923,-0.71484 3.545878,-1.70664 3.012382,-1.96306 5.582976,-4.2998 8.937974,-8.12484 1.012107,-1.1539 2.077302,-2.30314 2.367103,-2.55385 0.2898,-0.25073 1.012202,-1.10632 1.605336,-1.901324 0.593135,-0.795003 1.585861,-2.093661 2.206062,-2.885906 0.620211,-0.792255 1.224176,-1.643867 1.342153,-1.892482 0.208638,-0.439666 0.206088,-0.458854 -0.09316,-0.701143 -1.239358,-1.003577 -3.714364,-1.647672 -4.179189,-1.087595 -0.08626,0.103897 -0.314031,0.207152 -0.506221,0.229465 -0.289159,0.03355 -0.362625,0.122309 -0.425778,0.514301 -0.04198,0.260548 -0.204947,0.691721 -0.362145,0.958154 -0.157207,0.266424 -0.285822,0.559272 -0.285822,0.650757 0,0.09144 -0.153901,0.309382 -0.342008,0.484225 -0.359117,0.333784 -1.493743,1.861993 -1.493743,2.011897 0,0.04792 -0.368787,0.517626 -0.819533,1.043697 -1.242319,1.449944 -1.278472,1.502484 -1.278472,1.857284 0,0.19643 -0.09307,0.36328 -0.229475,0.41142 -0.333372,0.11766 -0.819523,0.5839 -0.819523,0.78596 0,0.0956 -0.05904,0.17383 -0.131131,0.17383 -0.07211,0 -0.131125,0.14936 -0.131125,0.33193 0,0.1973 -0.09307,0.36536 -0.229469,0.41436 -0.393982,0.14155 -0.71886,0.56547 -0.646222,0.84324 0.05589,0.21373 0.03443,0.23309 -0.118064,0.10653 -0.153116,-0.12707 -0.186372,-0.0926 -0.186372,0.19331 0,0.1914 -0.08851,0.38195 -0.196687,0.42346 -0.108179,0.0415 -0.196689,0.15768 -0.196689,0.25814 0,0.10046 -0.111616,0.18266 -0.248035,0.18266 -0.261802,0 -0.487234,0.5518 -0.32962,0.80683 0.05596,0.0906 -0.01133,0.10826 -0.192676,0.0507 -0.203235,-0.0645 -0.278671,-0.0328 -0.278671,0.11708 0,0.11304 -0.04425,0.20797 -0.09834,0.21098 -0.05409,0.003 -0.332952,0.21255 -0.619696,0.46566 -0.423724,0.37404 -0.485109,0.48313 -0.327813,0.5826 0.152883,0.0967 0.130697,0.12281 -0.105608,0.1244 -0.164532,9.6e-4 -0.331728,0.0869 -0.371548,0.19069 -0.03982,0.10377 -0.259244,0.22835 -0.487605,0.27684 -0.539253,0.11451 -0.839144,0.38788 -0.94269,0.85933 -0.04588,0.20888 -0.169763,0.37978 -0.275302,0.37978 -0.105537,0 -0.469638,0.25278 -0.809114,0.56173 -0.339474,0.30895 -0.956514,0.78161 -1.371197,1.05034 -0.496677,0.32187 -0.753971,0.57661 -0.753971,0.7465 0,0.14184 -0.162267,0.35866 -0.360594,0.48181 -0.198327,0.12315 -0.478607,0.32329 -0.622845,0.44475 -0.144237,0.12146 -0.432105,0.26111 -0.639706,0.31034 -0.2076,0.0493 -0.590088,0.23398 -0.849972,0.41058 -0.343217,0.23322 -0.649152,0.32109 -1.118026,0.32109 -0.625265,0 -0.638458,0.008 -0.420654,0.24846 0.25748,0.28451 0.608369,0.3922 1.717106,0.52699 0.841922,0.10234 1.039684,0.0852 2.172879,-0.18831 z m 1.170815,-1.22597 c 0,-0.22208 0.55997,-0.5413 0.949551,-0.5413 0.32981,0 0.358055,-0.0344 0.280781,-0.34232 -0.07646,-0.30464 -0.05508,-0.33253 0.19419,-0.25341 0.166637,0.0529 0.280106,0.0322 0.280106,-0.0511 0,-0.077 0.110788,-0.13995 0.246195,-0.13995 0.135407,0 0.320756,-0.0898 0.411889,-0.19965 0.09565,-0.11525 0.268723,-0.16695 0.40943,-0.12229 0.253143,0.0803 0.341507,-0.12666 0.114072,-0.26723 -0.07941,-0.0491 -0.04729,-0.20586 0.08284,-0.40447 0.154849,-0.23633 0.284355,-0.30152 0.477315,-0.24027 0.206251,0.0655 0.246948,0.0375 0.184039,-0.12645 -0.08634,-0.22499 0.408966,-0.43134 0.867631,-0.36145 0.206768,0.0315 0.215444,0.002 0.06909,-0.232 -0.148322,-0.23749 -0.115988,-0.32105 0.283912,-0.73364 0.2558,-0.26392 0.530974,-0.43505 0.635228,-0.39504 0.101163,0.0388 0.32914,-0.0861 0.506616,-0.27761 0.252937,-0.27292 0.284928,-0.37211 0.148004,-0.45891 -0.133605,-0.0847 -0.12072,-0.11121 0.05479,-0.11274 0.126208,-9.6e-4 0.22947,-0.0611 0.22947,-0.13313 0,-0.0721 0.112768,-0.13113 0.250594,-0.13113 0.322722,0 0.929533,-0.71925 0.929533,-1.10177 0,-0.41639 0.559971,-0.91315 0.905659,-0.80342 0.356059,0.113 0.71114,-0.52848 0.399238,-0.72124 -0.146271,-0.0904 -0.153143,-0.15128 -0.03086,-0.27354 0.121696,-0.1217 0.199792,-0.12194 0.345411,-9.6e-4 0.153938,0.12776 0.303727,0.0182 0.823587,-0.60217 1.120776,-1.33756 2.707941,-2.65804 2.29055,-1.90569 -0.234258,0.42225 -3.955551,4.67287 -5.171411,5.907 -0.66067,0.67059 -1.525752,1.46703 -1.922406,1.76984 -0.396654,0.30282 -0.76924,0.62604 -0.827968,0.71827 -0.05873,0.0922 -0.302624,0.2989 -0.541992,0.45927 -0.239366,0.16039 -0.86989,0.58999 -1.401162,0.95468 -0.531272,0.36469 -1.054458,0.70314 -1.162636,0.75212 -0.108178,0.049 -0.330673,0.18639 -0.494432,0.30538 -0.274194,0.19922 -0.291235,0.19937 -0.21544,0.002 0.104637,-0.27268 -0.126152,-0.2776 -0.395326,-0.009 -0.113331,0.11332 -0.206054,0.14618 -0.206054,0.073 z m 8.394647,-7.03517 c 0.09125,-0.10993 0.125127,-0.2406 0.07534,-0.2904 -0.10937,-0.10937 -0.50094,0.12013 -0.572805,0.33571 -0.0747,0.2241 0.302385,0.18976 0.497479,-0.0453 z m -7.739021,5.6576 c 0,-0.0272 0.103261,-0.13048 0.229469,-0.22946 0.207973,-0.1631 0.212611,-0.15846 0.0495,0.0495 -0.171297,0.21842 -0.278976,0.28788 -0.278976,0.17996 z m 0.655626,-0.59064 c 0,-0.0721 0.059,-0.16759 0.131126,-0.21216 0.07212,-0.0446 0.131125,-0.0221 0.131125,0.0501 0,0.0722 -0.059,0.1676 -0.131125,0.21217 -0.07212,0.0446 -0.131126,0.022 -0.131126,-0.0501 z m 2.425818,-2.23721 c 2.243121,-2.21649 3.73707,-3.78351 3.73707,-3.91984 0,-0.0684 0.08595,-0.15736 0.191008,-0.19767 0.281802,-0.10814 -0.0076,0.52776 -0.468165,1.02868 -0.798059,0.86799 -1.649796,1.72701 -2.115879,2.13396 -0.270446,0.23614 -0.491721,0.4788 -0.491721,0.53925 0,0.0605 -0.413044,0.41707 -0.917876,0.79246 -0.504832,0.3754 -0.917877,0.76705 -0.917877,0.87034 0,0.10329 -0.103261,0.18561 -0.229469,0.18294 -0.147259,-0.003 0.287283,-0.51549 1.212909,-1.43012 z m 3.085613,-1.79004 c 0.0076,-0.21465 0.362381,-0.59596 0.439089,-0.47185 0.04128,0.0668 -0.04156,0.22699 -0.1841,0.35598 -0.142537,0.129 -0.257282,0.18114 -0.254989,0.11587 z m 1.831582,-3.38074 c 0,-0.0272 0.103265,-0.13049 0.229475,-0.22947 0.207967,-0.1631 0.212606,-0.15847 0.04946,0.0495 -0.171306,0.21842 -0.27898,0.28789 -0.27898,0.17996 z m 1.528363,-0.54648 c 0.03997,-0.1041 0.125443,-0.15661 0.190005,-0.11671 0.162613,0.10049 0.147642,0.14852 -0.07265,0.23305 -0.126747,0.0486 -0.165833,0.01 -0.117383,-0.11634 z M 68.081207,82.324411 c -1.065838,-2.190592 -3.198472,-4.78139 -5.104296,-6.200881 -0.590805,-0.440039 -1.17745,-0.883836 -1.303661,-0.986209 -0.12621,-0.102373 -0.229465,-0.153871 -0.229465,-0.11444 0,0.03939 -0.162267,-0.01802 -0.360602,-0.127734 -0.198325,-0.109687 -1.077531,-0.47834 -1.953785,-0.819236 -1.572471,-0.611747 -1.594199,-0.625885 -1.670148,-1.086464 -0.06393,-0.387448 0.04323,-0.711437 0.631138,-1.909025 2.4659,-5.023104 11.19411,-19.155454 20.205401,-32.715754 5.525828,-8.315321 6.339082,-9.476017 6.575841,-9.385165 0.107885,0.0414 0.28706,0.07527 0.398164,0.07527 0.173089,0 0.176252,0.03119 0.02204,0.217754 -0.162344,0.196439 -0.154274,0.201766 0.08243,0.05443 0.262244,-0.163254 0.520971,-0.117485 2.989489,0.528852 l 0.498208,0.130447 -0.276324,0.484918 c -0.151974,0.266704 -0.186968,0.366905 -0.07773,0.222667 0.580933,-0.767277 -0.01649,-0.837065 6.537944,0.763719 3.519264,0.859505 5.978899,1.52111 5.948749,1.600122 -0.0283,0.07409 -1.253194,1.638039 -2.722027,3.475439 -6.506625,8.139297 -9.990518,13.14362 -16.063482,23.073841 -3.582461,5.857855 -9.315709,15.711787 -12.569081,21.602884 -0.567544,1.027701 -1.067899,1.86854 -1.111902,1.86854 -0.04399,0 -0.245079,-0.339286 -0.446844,-0.753974 z m -6.24405,-7.769173 c 0.07716,-0.144229 0.110846,-0.262245 0.07476,-0.262245 -0.03604,0 -0.128721,0.118016 -0.205916,0.262245 -0.07716,0.144239 -0.110846,0.262254 -0.07476,0.262254 0.03604,0 0.128721,-0.118015 0.205916,-0.262254 z m -0.528515,-0.852312 c 0,-0.07208 -0.05722,-0.04265 -0.127111,0.06556 -0.06987,0.108181 -0.127111,0.255698 -0.127111,0.327813 0,0.07208 0.05722,0.04265 0.127111,-0.06556 0.06987,-0.108172 0.127111,-0.255689 0.127111,-0.327813 z m 1.184141,-0.196686 c 0.07716,-0.144239 0.110856,-0.262254 0.07476,-0.262254 -0.03604,0 -0.128721,0.118015 -0.205916,0.262254 -0.07716,0.144239 -0.110846,0.262254 -0.07476,0.262254 0.03604,0 0.128721,-0.118015 0.205916,-0.262254 z m 0.393381,-0.655626 c 0.07716,-0.144239 0.110846,-0.262254 0.07476,-0.262254 -0.03604,0 -0.128721,0.118015 -0.205916,0.262254 -0.07716,0.144239 -0.110855,0.262254 -0.07476,0.262254 0.03604,0 0.128722,-0.118015 0.205916,-0.262254 z m 0.393372,-0.655626 c 0.07716,-0.144239 0.110846,-0.262254 0.07476,-0.262254 -0.03604,0 -0.128721,0.118015 -0.205916,0.262254 -0.07716,0.144239 -0.110846,0.262254 -0.07476,0.262254 0.03604,0 0.128722,-0.118015 0.205916,-0.262254 z m -1.184141,-0.590067 c 0,-0.07208 -0.05722,-0.04265 -0.127111,0.06556 -0.06987,0.108181 -0.127111,0.255698 -0.127111,0.327813 0,0.07208 0.05722,0.04265 0.127111,-0.06556 0.06987,-0.108172 0.127111,-0.255689 0.127111,-0.327813 z m 1.856607,-0.524499 0.12875,-0.262254 -0.213526,0.262254 c -0.11744,0.144239 -0.271465,0.38026 -0.342276,0.524499 l -0.12876,0.262254 0.213536,-0.262254 c 0.11744,-0.144239 0.271465,-0.38026 0.342276,-0.524499 z m -1.332108,-0.786753 c 0,-0.07208 -0.05722,-0.04265 -0.127111,0.06556 -0.06987,0.108181 -0.127111,0.255698 -0.127111,0.327813 0,0.07208 0.05722,0.04265 0.127111,-0.06556 0.06987,-0.108181 0.127111,-0.255689 0.127111,-0.327813 z m 1.70864,0.196686 c 0.07716,-0.144229 0.110855,-0.262245 0.07476,-0.262245 -0.03604,0 -0.128731,0.118016 -0.205916,0.262245 -0.07716,0.144239 -0.110856,0.262254 -0.07476,0.262254 0.03604,0 0.128721,-0.118015 0.205906,-0.262254 z m -1.446386,-0.852312 c 0,-0.07208 -0.05722,-0.04265 -0.127111,0.06556 -0.06987,0.108182 -0.127111,0.255698 -0.127111,0.327813 0,0.07208 0.05722,0.04265 0.127111,-0.06556 0.06987,-0.108172 0.127111,-0.255689 0.127111,-0.327813 z m 1.839767,0.196686 c 0.07716,-0.144229 0.110846,-0.262245 0.07476,-0.262245 -0.03604,0 -0.128721,0.118016 -0.205916,0.262245 -0.07716,0.144239 -0.110846,0.262254 -0.07476,0.262254 0.03604,0 0.128722,-0.118015 0.205916,-0.262254 z m 0.393372,-0.655626 c 0.07716,-0.144239 0.110855,-0.262245 0.07476,-0.262245 -0.03604,0 -0.128722,0.118006 -0.205916,0.262245 -0.07716,0.144239 -0.110846,0.262254 -0.07476,0.262254 0.03604,0 0.128721,-0.118015 0.205916,-0.262254 z m -1.839767,-0.45893 c 0,-0.07208 -0.05722,-0.04265 -0.127111,0.06556 -0.06987,0.108172 -0.127111,0.255689 -0.127111,0.327813 0,0.07208 0.05722,0.04265 0.127111,-0.06556 0.06987,-0.108182 0.127111,-0.255699 0.127111,-0.327813 z m 2.512242,-0.655636 0.128751,-0.262245 -0.213536,0.262245 c -0.11744,0.144239 -0.271465,0.38027 -0.342276,0.524509 l -0.12875,0.262244 0.213526,-0.262244 c 0.11744,-0.144239 0.271465,-0.38027 0.342285,-0.524509 z m -1.993015,-0.524499 c 0,-0.07208 -0.08434,0.01639 -0.187398,0.196686 -0.103063,0.180306 -0.187398,0.386826 -0.187398,0.45894 0,0.07217 0.08434,-0.01639 0.187398,-0.196686 0.103063,-0.180296 0.187398,-0.386816 0.187398,-0.45894 z m 2.369547,-0.06556 c 0.07716,-0.144238 0.110846,-0.262244 0.07476,-0.262244 -0.03604,0 -0.128721,0.118006 -0.205916,0.262244 -0.07716,0.144239 -0.110846,0.262255 -0.07476,0.262255 0.03604,0 0.128722,-0.118016 0.205916,-0.262255 z m -1.845048,-1.114566 c 0,-0.07208 -0.08434,0.01639 -0.187398,0.196696 -0.103064,0.180296 -0.187389,0.386816 -0.187389,0.45893 0,0.07208 0.08434,-0.01639 0.187389,-0.196685 0.103073,-0.180297 0.187398,-0.386816 0.187398,-0.458941 z m 2.23842,0.458941 c 0.07716,-0.144239 0.110855,-0.262245 0.07476,-0.262245 -0.03604,0 -0.128722,0.118006 -0.205916,0.262245 -0.07716,0.144238 -0.110846,0.262254 -0.07476,0.262254 0.03604,0 0.128721,-0.118016 0.205916,-0.262254 z m 0.393381,-0.655626 c 0.07716,-0.144239 0.110846,-0.262245 0.07476,-0.262245 -0.03604,0 -0.128731,0.118006 -0.205916,0.262245 -0.07716,0.144238 -0.110855,0.262254 -0.07476,0.262254 0.03604,0 0.128722,-0.118016 0.205906,-0.262254 z m 0.672466,-1.114566 0.12875,-0.262245 -0.213526,0.262245 c -0.11745,0.144238 -0.271474,0.380269 -0.342285,0.524508 l -0.128751,0.262245 0.213526,-0.262245 c 0.11745,-0.144239 0.271475,-0.38027 0.342286,-0.524508 z m -2.51922,-0.393372 c 0,-0.07208 -0.11306,0.07543 -0.251251,0.327813 -0.138191,0.252411 -0.251261,0.517943 -0.251261,0.590067 0,0.07208 0.11307,-0.07543 0.251261,-0.327813 0.138191,-0.25242 0.251251,-0.517953 0.251251,-0.590067 z m 2.895752,-0.196686 c 0.07716,-0.144239 0.110846,-0.262254 0.07476,-0.262254 -0.03604,0 -0.128722,0.118015 -0.205916,0.262254 -0.07716,0.144239 -0.110846,0.262245 -0.07476,0.262245 0.03604,0 0.128721,-0.118006 0.205916,-0.262245 z m 0.393371,-0.655626 c 0.07716,-0.144239 0.110856,-0.262254 0.07476,-0.262254 -0.03604,0 -0.128721,0.118015 -0.205906,0.262254 -0.07716,0.144229 -0.110855,0.262245 -0.07476,0.262245 0.03604,0 0.128722,-0.118016 0.205906,-0.262245 z m -2.110369,-1.639074 c 0,-0.07208 -0.171449,0.193407 -0.381007,0.590067 -0.209549,0.396649 -0.380998,0.780187 -0.380998,0.852312 0,0.07208 0.171449,-0.193408 0.380998,-0.590068 0.209558,-0.396649 0.381007,-0.780187 0.381007,-0.852311 z m 2.503751,0.983438 c 0.07716,-0.144238 0.110846,-0.262254 0.07476,-0.262254 -0.03604,0 -0.128722,0.118016 -0.205916,0.262254 -0.07716,0.144239 -0.110846,0.262255 -0.07476,0.262255 0.03604,0 0.128721,-0.118016 0.205916,-0.262255 z m 0.655626,-1.048997 c 0.07716,-0.144239 0.110846,-0.262254 0.07476,-0.262254 -0.03604,0 -0.128722,0.118015 -0.205916,0.262254 -0.07716,0.144239 -0.110846,0.262244 -0.07476,0.262244 0.03604,0 0.128721,-0.118005 0.205916,-0.262244 z m 0.393371,-0.655626 c 0.07716,-0.144239 0.110856,-0.262254 0.07476,-0.262254 -0.03604,0 -0.128721,0.118015 -0.205906,0.262254 -0.07716,0.144239 -0.110855,0.262244 -0.07476,0.262244 0.03604,0 0.128722,-0.118005 0.205906,-0.262244 z m 0.393382,-0.655626 c 0.07716,-0.144239 0.110846,-0.262254 0.07476,-0.262254 -0.03604,0 -0.128722,0.118015 -0.205916,0.262254 -0.07716,0.144229 -0.110856,0.262244 -0.07476,0.262244 0.03604,0 0.128721,-0.118015 0.205916,-0.262244 z m 0.393372,-0.655626 c 0.07716,-0.144239 0.110855,-0.262254 0.07476,-0.262254 -0.03604,0 -0.128722,0.118015 -0.205916,0.262254 -0.07716,0.144229 -0.110846,0.262245 -0.07476,0.262245 0.03604,0 0.128731,-0.118016 0.205916,-0.262245 z m 0.655626,-1.049006 c 0.07716,-0.144238 0.110855,-0.262251 0.07476,-0.262251 -0.03604,0 -0.128721,0.118013 -0.205915,0.262251 -0.07716,0.144238 -0.110846,0.26225 -0.07476,0.26225 0.03604,0 0.128721,-0.118012 0.205915,-0.26225 z m 0.393381,-0.655627 c 0.07716,-0.144237 0.110846,-0.262251 0.07476,-0.262251 -0.03604,0 -0.128722,0.118014 -0.205916,0.262251 -0.07716,0.144238 -0.110846,0.262251 -0.07476,0.262251 0.03604,0 0.128721,-0.118013 0.205916,-0.262251 z m 0.393372,-0.655626 c 0.07716,-0.144238 0.110855,-0.262251 0.07476,-0.262251 -0.03604,0 -0.128722,0.118013 -0.205916,0.262251 -0.07716,0.144238 -0.110846,0.26225 -0.07476,0.26225 0.03604,0 0.128721,-0.118012 0.205916,-0.26225 z m 0.393381,-0.655626 c 0.07716,-0.144238 0.110846,-0.262251 0.07476,-0.262251 -0.03604,0 -0.128721,0.118013 -0.205916,0.262251 -0.07716,0.144238 -0.110856,0.26225 -0.07476,0.26225 0.03604,0 0.128721,-0.118012 0.205916,-0.26225 z m 0.655626,-1.049003 c 0.07716,-0.144238 0.110846,-0.26225 0.07476,-0.26225 -0.03604,0 -0.128722,0.118012 -0.205916,0.26225 -0.07716,0.144238 -0.110856,0.262251 -0.07476,0.262251 0.03604,0 0.128721,-0.118013 0.205916,-0.262251 z m 0.393372,-0.655626 c 0.07716,-0.144238 0.110846,-0.262251 0.07476,-0.262251 -0.03604,0 -0.128722,0.118013 -0.205916,0.262251 -0.07716,0.144238 -0.110846,0.262251 -0.07476,0.262251 0.03604,0 0.128721,-0.118013 0.205916,-0.262251 z m 0.393381,-0.655627 c 0.07716,-0.144237 0.110846,-0.26225 0.07476,-0.26225 -0.03604,0 -0.128731,0.118013 -0.205916,0.26225 -0.07716,0.144238 -0.110856,0.262251 -0.07476,0.262251 0.03604,0 0.128721,-0.118013 0.205916,-0.262251 z m -3.147012,-1.442378 c 0.290088,-0.57695 0.49793,-1.049001 0.461863,-1.049001 -0.03604,0 -0.302903,0.472051 -0.59299,1.049001 -0.290079,0.576952 -0.497921,1.049003 -0.461864,1.049003 0.03604,0 0.302903,-0.472051 0.592991,-1.049003 z M 74.29406,54.0997 c 0.07716,-0.144237 0.110846,-0.26225 0.07476,-0.26225 -0.03604,0 -0.128722,0.118013 -0.205916,0.26225 -0.07716,0.144238 -0.110846,0.262251 -0.07476,0.262251 0.03604,0 0.128721,-0.118013 0.205916,-0.262251 z m 0.655626,-1.049002 c 0.07716,-0.144238 0.110846,-0.26225 0.07476,-0.26225 -0.03604,0 -0.128722,0.118012 -0.205916,0.26225 -0.07716,0.144238 -0.110846,0.26225 -0.07476,0.26225 0.03604,0 0.128721,-0.118012 0.205916,-0.26225 z m 0.393371,-0.655626 c 0.07716,-0.144238 0.110856,-0.26225 0.07476,-0.26225 -0.03604,0 -0.128721,0.118012 -0.205916,0.26225 -0.07716,0.144238 -0.110846,0.26225 -0.07476,0.26225 0.03604,0 0.128722,-0.118012 0.205916,-0.26225 z m 0.393382,-0.655627 c 0.07716,-0.144238 0.110846,-0.26225 0.07476,-0.26225 -0.03604,0 -0.128722,0.118012 -0.205916,0.26225 -0.07716,0.144238 -0.110846,0.262251 -0.07476,0.262251 0.03604,0 0.128721,-0.118013 0.205916,-0.262251 z m 0.672466,-1.114564 0.12875,-0.26225 -0.213526,0.26225 c -0.11744,0.144238 -0.271475,0.380263 -0.342286,0.524501 l -0.12875,0.26225 0.213536,-0.26225 c 0.11744,-0.144238 0.271465,-0.380263 0.342276,-0.524501 z m -3.950596,-0.590064 c 0.218433,-0.432713 0.367647,-0.786751 0.331589,-0.786751 -0.03604,0 -0.244283,0.354038 -0.462716,0.786751 -0.218434,0.432713 -0.367647,0.786752 -0.33159,0.786752 0.03604,0 0.244284,-0.354039 0.462717,-0.786752 z m 4.327127,0 c 0.07716,-0.144238 0.110856,-0.262251 0.07476,-0.262251 -0.03604,0 -0.128721,0.118013 -0.205916,0.262251 -0.07716,0.144238 -0.110846,0.26225 -0.07476,0.26225 0.03604,0 0.128722,-0.118012 0.205916,-0.26225 z m 0.393382,-0.655626 c 0.07716,-0.144238 0.110846,-0.262251 0.07476,-0.262251 -0.03604,0 -0.128722,0.118013 -0.205916,0.262251 -0.07716,0.144238 -0.110856,0.26225 -0.07476,0.26225 0.03604,0 0.128721,-0.118012 0.205916,-0.26225 z m 0.393371,-0.655626 c 0.07716,-0.144238 0.110846,-0.262252 0.07476,-0.262252 -0.03604,0 -0.128721,0.118014 -0.205915,0.262252 -0.07716,0.144237 -0.110847,0.26225 -0.07476,0.26225 0.03604,0 0.128721,-0.118013 0.205915,-0.26225 z M 78.244656,47.609 78.373406,47.346749 78.15988,47.609 c -0.117441,0.144238 -0.271465,0.380263 -0.342277,0.524501 l -0.12875,0.26225 0.213526,-0.26225 C 78.01982,47.989263 78.173844,47.753238 78.244656,47.609 Z M 73.83512,47.412312 c 0.18273,-0.360594 0.30273,-0.655627 0.266672,-0.655627 -0.03604,0 -0.215069,0.295033 -0.3978,0.655627 -0.182721,0.360594 -0.30272,0.655626 -0.266663,0.655626 0.03604,0 0.21506,-0.295032 0.397791,-0.655626 z m 4.786077,-0.393377 c 0.07716,-0.144237 0.110846,-0.26225 0.07476,-0.26225 -0.03604,0 -0.128731,0.118013 -0.205916,0.26225 -0.07716,0.144238 -0.110856,0.262252 -0.07476,0.262252 0.03604,0 0.128721,-0.118014 0.205916,-0.262252 z m 0.393371,-0.655626 c 0.07716,-0.144237 0.110846,-0.26225 0.07476,-0.26225 -0.03604,0 -0.128721,0.118013 -0.205915,0.26225 -0.07716,0.144238 -0.110847,0.262251 -0.07476,0.262251 0.03604,0 0.128721,-0.118013 0.205915,-0.262251 z m 0.393372,-0.655625 c 0.07716,-0.144238 0.110856,-0.262251 0.07476,-0.262251 -0.03604,0 -0.128721,0.118013 -0.205906,0.262251 -0.07716,0.144237 -0.110856,0.26225 -0.07476,0.26225 0.03604,0 0.128721,-0.118013 0.205906,-0.26225 z m -4.392696,-0.524502 c 0.182731,-0.360594 0.30273,-0.655626 0.266673,-0.655626 -0.03604,0 -0.215069,0.295032 -0.39779,0.655626 -0.182731,0.360595 -0.30273,0.655627 -0.266673,0.655627 0.03604,0 0.215069,-0.295032 0.39779,-0.655627 z m 5.065172,-0.590064 0.12875,-0.26225 -0.213536,0.26225 c -0.11744,0.144238 -0.271465,0.380263 -0.342276,0.524501 l -0.12875,0.262251 0.213526,-0.262251 c 0.11744,-0.144238 0.271465,-0.380263 0.342286,-0.524501 z m 0.376531,-0.590063 c 0.07716,-0.144238 0.110846,-0.262251 0.07476,-0.262251 -0.03604,0 -0.128721,0.118013 -0.205915,0.262251 -0.07716,0.144238 -0.110847,0.26225 -0.07476,0.26225 0.03604,0 0.128721,-0.118012 0.205915,-0.26225 z m -4.589381,-0.393376 c 0.07716,-0.144237 0.110846,-0.262251 0.07476,-0.262251 -0.03604,0 -0.128722,0.118014 -0.205916,0.262251 -0.07716,0.144237 -0.110856,0.262251 -0.07476,0.262251 0.03604,0 0.128721,-0.118014 0.205916,-0.262251 z m 4.982753,-0.262251 c 0.07716,-0.144238 0.110856,-0.26225 0.07476,-0.26225 -0.03604,0 -0.128721,0.118012 -0.205916,0.26225 -0.07716,0.144238 -0.110846,0.262251 -0.07476,0.262251 0.03604,0 0.128731,-0.118013 0.205916,-0.262251 z m -4.458254,-0.655626 c 0.07716,-0.144238 0.110846,-0.26225 0.07476,-0.26225 -0.03604,0 -0.128722,0.118012 -0.205916,0.26225 -0.07716,0.144238 -0.110846,0.262251 -0.07476,0.262251 0.03604,0 0.128721,-0.118013 0.205916,-0.262251 z m 4.851635,0 c 0.07716,-0.144238 0.110847,-0.26225 0.07476,-0.26225 -0.03604,0 -0.128721,0.118012 -0.205915,0.26225 -0.07716,0.144238 -0.110846,0.262251 -0.07476,0.262251 0.03604,0 0.128721,-0.118013 0.205915,-0.262251 z m -4.458264,-0.655627 c 0.07716,-0.144237 0.110856,-0.26225 0.07476,-0.26225 -0.03604,0 -0.128721,0.118013 -0.205916,0.26225 -0.07716,0.144238 -0.110846,0.262252 -0.07476,0.262252 0.03604,0 0.128722,-0.118014 0.205916,-0.262252 z m 5.11389,-0.393375 c 0.07716,-0.144238 0.110846,-0.262251 0.07476,-0.262251 -0.03604,0 -0.128721,0.118013 -0.205915,0.262251 -0.07716,0.144238 -0.110856,0.26225 -0.07476,0.26225 0.03604,0 0.128721,-0.118012 0.205915,-0.26225 z m -4.441424,-0.721189 0.12876,-0.26225 -0.213535,0.26225 c -0.117441,0.144238 -0.271465,0.380263 -0.342277,0.524501 l -0.12875,0.26225 0.213526,-0.26225 c 0.117441,-0.144238 0.271465,-0.380263 0.342276,-0.524501 z m 4.834796,0.06556 c 0.07716,-0.144238 0.110846,-0.26225 0.07476,-0.26225 -0.03604,0 -0.128721,0.118012 -0.205916,0.26225 -0.07716,0.144238 -0.110846,0.26225 -0.07476,0.26225 0.03604,0 0.128722,-0.118012 0.205916,-0.26225 z m 0.393381,-0.655627 c 0.07716,-0.144238 0.110847,-0.26225 0.07476,-0.26225 -0.03604,0 -0.128721,0.118012 -0.205915,0.26225 -0.07716,0.144238 -0.110856,0.262251 -0.07476,0.262251 0.03604,0 0.128721,-0.118013 0.205915,-0.262251 z m -4.310296,-0.852314 0.12875,-0.26225 -0.213526,0.26225 c -0.117441,0.144238 -0.271475,0.380263 -0.342286,0.524501 l -0.12875,0.26225 0.213535,-0.26225 c 0.117441,-0.144238 0.271465,-0.380263 0.342277,-0.524501 z m 4.703668,0.196688 c 0.07716,-0.144238 0.110846,-0.26225 0.07476,-0.26225 -0.03604,0 -0.128721,0.118012 -0.205916,0.26225 -0.07716,0.144238 -0.110846,0.26225 -0.07476,0.26225 0.03604,0 0.128722,-0.118012 0.205916,-0.26225 z m 0.655626,-1.049002 c 0.07716,-0.144238 0.110846,-0.262251 0.07476,-0.262251 -0.03604,0 -0.128721,0.118013 -0.205916,0.262251 -0.07716,0.144238 -0.110846,0.26225 -0.07476,0.26225 0.03604,0 0.128722,-0.118012 0.205916,-0.26225 z m 0.393372,-0.655626 c 0.07716,-0.144238 0.110856,-0.262251 0.07476,-0.262251 -0.03604,0 -0.128721,0.118013 -0.205906,0.262251 -0.07716,0.144238 -0.110856,0.26225 -0.07476,0.26225 0.03604,0 0.128721,-0.118012 0.205906,-0.26225 z m 0.393381,-0.655626 c 0.07716,-0.144238 0.110846,-0.262252 0.07476,-0.262252 -0.03604,0 -0.128721,0.118014 -0.205916,0.262252 -0.07716,0.144237 -0.110846,0.26225 -0.07476,0.26225 0.03604,0 0.128722,-0.118013 0.205916,-0.26225 z m 0.393372,-0.655627 c 0.07716,-0.144238 0.110856,-0.262251 0.07476,-0.262251 -0.03604,0 -0.128721,0.118013 -0.205916,0.262251 -0.07716,0.144238 -0.110846,0.26225 -0.07476,0.26225 0.03604,0 0.128721,-0.118012 0.205916,-0.26225 z m 0.655626,-1.049003 c 0.07716,-0.144237 0.110856,-0.26225 0.07476,-0.26225 -0.03604,0 -0.128721,0.118013 -0.205916,0.26225 -0.07716,0.144238 -0.110846,0.262252 -0.07476,0.262252 0.03604,0 0.128731,-0.118014 0.205916,-0.262252 z m -4.19601,-0.590063 c 0.223293,-0.324535 0.376474,-0.590063 0.340417,-0.590063 -0.03604,0 -0.248251,0.265528 -0.471535,0.590063 -0.223292,0.324535 -0.376474,0.590063 -0.340416,0.590063 0.03604,0 0.248251,-0.265528 0.471534,-0.590063 z m 4.589391,-0.06556 c 0.07716,-0.144238 0.110846,-0.26225 0.07476,-0.26225 -0.03604,0 -0.128721,0.118012 -0.205916,0.26225 -0.07716,0.144238 -0.110855,0.262251 -0.07476,0.262251 0.03604,0 0.128722,-0.118013 0.205916,-0.262251 z m 0.393372,-0.655626 c 0.07716,-0.144238 0.110856,-0.26225 0.07476,-0.26225 -0.03604,0 -0.128721,0.118012 -0.205916,0.26225 -0.07716,0.144238 -0.110846,0.262251 -0.07476,0.262251 0.03604,0 0.128721,-0.118013 0.205916,-0.262251 z m -3.802629,-0.98344 c 0.223284,-0.324535 0.376465,-0.590063 0.340408,-0.590063 -0.03604,0 -0.248252,0.265528 -0.471535,0.590063 -0.223283,0.324535 -0.376474,0.590064 -0.340416,0.590064 0.03604,0 0.24826,-0.265529 0.471543,-0.590064 z m 4.19601,0.327813 c 0.07716,-0.144238 0.110846,-0.26225 0.07476,-0.26225 -0.03604,0 -0.128721,0.118012 -0.205916,0.26225 -0.07716,0.144238 -0.110855,0.262251 -0.07476,0.262251 0.03604,0 0.128722,-0.118013 0.205916,-0.262251 z m 0.655626,-1.049001 c 0.07716,-0.144238 0.110846,-0.262252 0.07476,-0.262252 -0.03604,0 -0.128721,0.118014 -0.205916,0.262252 -0.07716,0.144238 -0.110855,0.26225 -0.07476,0.26225 0.03604,0 0.128722,-0.118012 0.205916,-0.26225 z M 83.341705,32.20178 c 0.154054,-0.216356 0.2506,-0.393375 0.214542,-0.393375 -0.03604,0 -0.191615,0.177019 -0.345669,0.393375 -0.154063,0.216358 -0.250609,0.393377 -0.214551,0.393377 0.03604,0 0.191615,-0.177019 0.345678,-0.393377 z m 4.458255,-0.26225 c 0.07716,-0.144238 0.110846,-0.26225 0.07476,-0.26225 -0.03604,0 -0.128721,0.118012 -0.205916,0.26225 -0.07716,0.144238 -0.110846,0.26225 -0.07476,0.26225 0.03604,0 0.128721,-0.118012 0.205916,-0.26225 z m 0.393372,-0.655626 c 0.07716,-0.144238 0.110855,-0.26225 0.07476,-0.26225 -0.03604,0 -0.128722,0.118012 -0.205907,0.26225 -0.07716,0.144238 -0.110855,0.26225 -0.07476,0.26225 0.03604,0 0.128722,-0.118012 0.205907,-0.26225 z m -3.933756,-0.393376 c 0.154063,-0.216357 0.250609,-0.393376 0.214552,-0.393376 -0.03604,0 -0.191616,0.177019 -0.34567,0.393376 -0.154063,0.216357 -0.250608,0.393376 -0.214551,0.393376 0.03604,0 0.191616,-0.177019 0.345669,-0.393376 z m 0.655626,-0.917877 c 0.154063,-0.216356 0.250609,-0.393375 0.214552,-0.393375 -0.03604,0 -0.191616,0.177019 -0.345679,0.393375 -0.154054,0.216356 -0.250599,0.393376 -0.214542,0.393376 0.03604,0 0.191615,-0.17702 0.345669,-0.393376 z"
       id="path849" />
  </g>
</svg>
