<?xml version="1.0" encoding="UTF-8" standalone="no"?>
<svg
   xmlns:dc="http://purl.org/dc/elements/1.1/"
   xmlns:cc="http://creativecommons.org/ns#"
   xmlns:rdf="http://www.w3.org/1999/02/22-rdf-syntax-ns#"
   xmlns:svg="http://www.w3.org/2000/svg"
   xmlns="http://www.w3.org/2000/svg"
   xmlns:sodipodi="http://sodipodi.sourceforge.net/DTD/sodipodi-0.dtd"
   xmlns:inkscape="http://www.inkscape.org/namespaces/inkscape"
   width="3.6628404mm"
   height="3.6225305mm"
   viewBox="0 0 3.6628404 3.6225305"
   version="1.1"
   id="svg1002"
   inkscape:version="1.0.1 (3bc2e813f5, 2020-09-07)"
   sodipodi:docname="tick.svg">
  <defs
     id="defs996" />
  <sodipodi:namedview
     id="base"
     pagecolor="#ffffff"
     bordercolor="#666666"
     borderopacity="1.0"
     inkscape:pageopacity="0.0"
     inkscape:pageshadow="2"
     inkscape:zoom="22.4"
     inkscape:cx="10.103534"
     inkscape:cy="3.6138563"
     inkscape:document-units="mm"
     inkscape:current-layer="layer1"
     inkscape:document-rotation="0"
     showgrid="false"
     inkscape:window-width="1267"
     inkscape:window-height="967"
     inkscape:window-x="78"
     inkscape:window-y="14"
     inkscape:window-maximized="0" />
  <metadata
     id="metadata999">
    <rdf:RDF>
      <cc:Work
         rdf:about="">
        <dc:format>image/svg+xml</dc:format>
        <dc:type
           rdf:resource="http://purl.org/dc/dcmitype/StillImage" />
        <dc:title></dc:title>
      </cc:Work>
    </rdf:RDF>
  </metadata>
  <g
     inkscape:label="Layer 1"
     inkscape:groupmode="layer"
     id="layer1"
     transform="translate(91.789755,-73.783968)">
    <g
       id="g982"
       transform="matrix(0.01077808,-0.00288797,0.00288797,0.01077808,-92.731093,73.999043)">
      <path
         id="path960"
         style="fill:#008080;fill-opacity:1;stroke-width:1.18089"
         d="M 179.62272,81.406086 C 106.22025,81.537411 46.78542,141.07892 46.785729,214.4815 c -1.94e-4,73.49561 59.579821,133.07562 133.075421,133.07543 73.49561,1.9e-4 133.07562,-59.57982 133.07543,-133.07543 4e-5,-10.64229 -1.27653,-21.24616 -3.80236,-31.58437 l -17.23487,19.59564 c 0.42567,3.98206 0.63873,7.98398 0.63829,11.98873 -4e-5,62.22949 -50.447,112.67645 -112.67649,112.6765 -62.22948,-5e-5 -112.67645,-50.44701 -112.676493,-112.6765 0,-62.17473 50.361513,-112.59902 112.536203,-112.67648 h 0.14029 c 37.00259,0 71.64686,18.16741 92.68756,48.60554 l 16.03512,-12.66482 C 263.64906,102.41684 223.1032,81.40613 179.86115,81.406086 Z"
         sodipodi:nodetypes="ccccccccccsccsc" />
      <rect
         style="fill:#008080;fill-opacity:1;stroke-width:0.718114"
         id="rect962"
         width="22.478897"
         height="120.48689"
         x="0.43580279"
         y="199.57658"
         transform="rotate(-37.091041)" />
      <rect
         style="fill:#008080;fill-opacity:1;stroke-width:1.01556"
         id="rect964"
         width="22.478897"
         height="240.97377"
         x="297.58459"
         y="-241.40956"
         transform="rotate(52.908959)" />
    </g>
  </g>
</svg>
